{"glyphs":{"0":{"ha":803,"x_min":53,"x_max":751,"o":"m 53 400 q 98 185 53 281 q 222 35 143 89 q 403 -18 301 -18 q 582 36 503 -18 q 706 186 661 90 q 751 401 751 282 q 706 608 751 517 q 582 752 661 700 q 403 804 503 804 q 222 752 301 804 q 98 608 143 700 q 53 400 53 515 m 132 404 q 167 576 132 500 q 263 696 201 653 q 403 739 325 739 q 540 695 479 739 q 636 574 601 651 q 671 397 671 496 q 636 217 671 297 q 540 92 601 138 q 403 47 479 47 q 263 93 325 47 q 167 220 201 139 q 132 404 132 301 z "},"1":{"ha":417,"x_min":14,"x_max":308,"o":"m 256 786 l 14 674 l 44 614 l 231 693 l 231 0 l 308 0 l 308 786 l 256 786 z "},"2":{"ha":657,"x_min":35,"x_max":629,"o":"m 304 804 q 165 783 225 804 q 53 732 104 763 l 83 674 q 186 722 138 704 q 301 740 235 740 q 449 696 393 740 q 506 578 506 651 q 470 460 506 511 q 339 328 435 408 l 35 69 l 35 0 l 629 0 l 618 61 l 124 61 l 379 271 q 535 431 485 358 q 586 581 586 504 q 551 696 586 644 q 451 776 515 747 q 304 804 388 804 z "},"3":{"ha":626,"x_min":0,"x_max":567,"o":"m 285 804 q 15 722 144 804 l 58 672 q 281 740 163 740 q 380 717 336 740 q 447 657 424 694 q 471 578 471 619 q 404 448 471 497 q 222 399 338 399 l 175 399 l 189 342 l 214 342 q 420 290 353 342 q 488 144 488 238 q 456 48 488 90 q 374 -18 425 6 q 268 -42 324 -42 q 149 -26 197 -42 q 46 21 100 -11 l 0 -33 q 123 -85 54 -64 q 264 -106 192 -106 q 424 -72 356 -106 q 529 18 492 -39 q 567 147 567 75 q 519 292 567 231 q 392 372 471 354 q 505 451 460 394 q 550 579 550 507 q 520 690 550 639 q 430 773 490 742 q 285 804 369 804 z "},"4":{"ha":711,"x_min":14,"x_max":683,"o":"m 529 793 l 482 793 l 14 174 l 26 103 l 453 103 l 453 -96 l 529 -96 l 529 103 l 672 103 l 683 165 l 529 165 l 529 793 m 94 165 l 453 644 l 453 165 l 94 165 z "},"5":{"ha":682,"x_min":53,"x_max":629,"o":"m 171 319 q 249 372 201 349 q 346 394 296 394 q 492 337 438 394 q 547 181 547 279 q 485 19 547 79 q 314 -42 422 -42 q 197 -26 249 -42 q 92 21 144 -10 l 53 -35 q 308 -106 186 -106 q 482 -67 410 -106 q 592 37 554 -28 q 629 181 629 101 q 556 381 628 303 q 340 458 485 458 q 260 444 303 458 q 182 404 218 429 l 196 724 l 568 724 l 575 786 l 124 786 l 103 319 l 171 319 z "},"6":{"ha":690,"x_min":53,"x_max":638,"o":"m 354 538 q 507 499 443 538 q 604 399 571 461 q 638 264 638 336 q 601 124 638 189 q 499 21 564 60 q 356 -18 435 -18 q 198 26 267 -18 q 91 156 129 71 q 53 361 53 242 q 122 622 53 510 q 298 800 190 735 q 524 881 406 865 l 549 819 q 374 767 464 815 q 217 634 283 719 q 133 440 150 549 q 354 538 228 538 m 353 47 q 463 77 417 47 q 535 155 510 107 q 560 257 560 203 q 504 414 560 353 q 354 475 449 475 q 226 440 289 475 q 128 356 164 404 q 188 126 131 204 q 353 47 244 47 z "},"7":{"ha":596,"x_min":14,"x_max":568,"o":"m 538 786 l 14 786 l 25 724 l 488 724 l 168 -68 l 242 -96 l 568 746 l 538 786 z "},"8":{"ha":706,"x_min":53,"x_max":654,"o":"m 354 893 q 210 862 269 893 q 121 780 150 831 q 92 668 92 729 q 134 549 92 601 q 243 471 176 497 q 148 422 192 460 q 78 335 104 385 q 53 235 53 285 q 87 106 53 164 q 189 15 121 49 q 354 -18 257 -18 q 517 17 450 -18 q 619 109 585 51 q 654 235 654 167 q 598 386 654 319 q 465 471 542 453 q 572 551 528 499 q 615 668 615 603 q 586 778 615 726 q 499 861 557 829 q 354 893 440 893 m 350 831 q 490 784 442 831 q 539 669 539 738 q 488 562 539 611 q 354 500 438 513 q 219 560 268 513 q 169 669 169 608 q 216 783 169 736 q 350 831 263 831 m 354 439 q 517 368 460 426 q 575 228 575 310 q 545 134 575 175 q 465 69 515 93 q 354 46 414 46 q 241 69 292 46 q 161 135 190 93 q 132 228 132 176 q 189 368 132 310 q 354 439 246 426 z "},"9":{"ha":690,"x_min":53,"x_max":638,"o":"m 333 803 q 491 759 422 803 q 599 629 560 715 q 638 424 638 543 q 569 163 638 275 q 392 -15 500 50 q 165 -96 283 -81 l 140 -35 q 317 17 226 -31 q 474 151 407 65 q 558 346 542 236 q 335 247 460 247 q 182 285 246 247 q 85 386 118 324 q 53 521 53 449 q 89 662 53 597 q 190 765 125 726 q 333 803 254 803 m 335 311 q 464 347 401 311 q 563 432 526 383 q 501 660 558 582 q 336 739 443 739 q 226 709 272 739 q 154 631 179 679 q 129 528 129 582 q 185 372 129 433 q 335 311 240 311 z "},"\r":{"ha":0,"x_min":0,"x_max":0,"o":""}," ":{"ha":331,"x_min":0,"x_max":0,"o":""},"\u0000":{"ha":0,"x_min":0,"x_max":0,"o":""}," ":{"ha":324,"x_min":0,"x_max":0,"o":""},"‌":{"ha":0,"x_min":-37,"x_max":38,"o":"m 38 1718 l -37 1718 l -37 -94 l 38 -94 l 38 1718 z "},"‍":{"ha":0,"x_min":-157,"x_max":158,"o":"m -157 1778 l -54 1675 l -157 1572 l -103 1518 l -37 1578 l -37 -94 l 38 -94 l 38 1579 l 104 1518 l 158 1572 l 56 1675 l 158 1778 l 103 1833 l 0 1731 l -101 1833 l -157 1778 z "},"◌":{"ha":854,"x_min":69,"x_max":785,"o":"m 426 638 q 456 649 444 638 q 467 678 467 660 q 456 708 467 696 q 426 719 444 719 q 397 708 408 719 q 386 678 386 696 q 397 649 386 660 q 426 638 408 638 m 303 697 q 274 686 285 697 q 263 657 263 675 q 274 628 263 639 q 303 617 285 617 q 332 628 321 617 q 343 657 343 639 q 332 686 343 675 q 303 697 321 697 m 551 617 q 581 628 569 617 q 592 657 592 639 q 581 686 592 675 q 551 697 569 697 q 522 686 533 697 q 511 657 511 675 q 522 628 511 639 q 551 617 533 617 m 197 628 q 167 616 179 628 q 156 586 156 604 q 167 557 156 568 q 197 546 179 546 q 226 557 215 546 q 238 586 238 568 q 226 616 238 604 q 197 628 215 628 m 657 546 q 687 557 675 546 q 699 586 699 568 q 687 616 699 604 q 657 628 675 628 q 628 616 639 628 q 617 586 617 604 q 628 557 617 568 q 657 546 639 546 m 131 518 q 101 506 113 518 q 89 476 89 494 q 101 447 89 458 q 131 436 113 436 q 160 447 149 436 q 171 476 171 458 q 160 506 171 494 q 131 518 149 518 m 724 436 q 753 447 742 436 q 764 476 764 458 q 753 506 764 494 q 724 518 742 518 q 694 506 706 518 q 683 476 683 494 q 694 447 683 458 q 724 436 706 436 m 111 399 q 81 387 93 399 q 69 357 69 375 q 81 328 69 339 q 111 318 93 318 q 140 328 129 318 q 151 357 151 339 q 140 387 151 375 q 111 399 129 399 m 743 318 q 773 328 761 318 q 785 357 785 339 q 773 387 785 375 q 743 399 761 399 q 714 387 725 399 q 703 357 703 375 q 714 328 703 339 q 743 318 725 318 m 131 282 q 101 271 113 282 q 89 242 89 260 q 101 213 89 224 q 131 201 113 201 q 160 213 149 201 q 171 242 171 224 q 160 271 171 260 q 131 282 149 282 m 724 201 q 753 213 742 201 q 764 242 764 224 q 753 271 764 260 q 724 282 742 282 q 694 271 706 282 q 683 242 683 260 q 694 213 683 224 q 724 201 706 201 m 196 171 q 166 160 178 171 q 154 131 154 149 q 166 101 154 113 q 196 90 178 90 q 225 101 214 90 q 236 131 236 113 q 225 160 236 149 q 196 171 214 171 m 658 90 q 688 101 676 90 q 700 131 700 113 q 688 160 700 149 q 658 171 676 171 q 629 160 640 171 q 618 131 618 149 q 629 101 618 113 q 658 90 640 90 m 303 103 q 274 91 285 103 q 263 61 263 79 q 274 32 263 43 q 303 21 285 21 q 332 32 321 21 q 343 61 343 43 q 332 91 343 79 q 303 103 321 103 m 551 21 q 581 32 569 21 q 592 61 592 43 q 581 91 592 79 q 551 103 569 103 q 522 91 533 103 q 511 61 511 79 q 522 32 511 43 q 551 21 533 21 m 426 0 q 456 11 444 0 q 467 40 467 22 q 456 70 467 58 q 426 82 444 82 q 397 70 408 82 q 386 40 386 58 q 397 11 386 22 q 426 0 408 0 z "},"A":{"ha":807,"x_min":14,"x_max":793,"o":"m 89 0 l 194 290 l 606 290 l 717 -8 l 793 7 l 433 944 l 357 944 l 14 0 l 89 0 m 396 844 l 583 351 l 215 351 l 396 844 z "},"B":{"ha":793,"x_min":136,"x_max":740,"o":"m 385 0 q 643 61 546 0 q 740 261 740 122 q 690 415 740 356 q 547 503 639 475 q 649 583 610 533 q 688 699 688 632 q 598 888 688 832 q 347 944 508 944 l 136 944 l 136 0 l 385 0 m 357 882 q 544 841 479 882 q 608 697 608 800 q 534 563 608 604 q 339 521 460 522 l 213 521 l 213 882 l 357 882 m 410 458 q 594 409 528 458 q 661 258 661 360 q 588 109 661 156 q 394 63 515 63 l 213 63 l 213 458 l 410 458 z "},"C":{"ha":768,"x_min":67,"x_max":731,"o":"m 731 913 q 624 950 696 936 q 501 964 553 964 q 271 898 369 964 q 119 719 172 832 q 67 467 67 606 q 115 223 67 333 q 258 47 163 113 q 493 -19 354 -19 q 622 -4 551 -19 q 731 32 692 11 l 697 90 q 605 60 653 71 q 489 49 557 49 q 308 106 385 49 q 190 258 231 163 q 150 468 150 353 q 196 690 150 593 q 322 842 242 788 q 501 897 403 897 q 610 888 569 897 q 703 856 650 878 l 731 913 z "},"D":{"ha":921,"x_min":136,"x_max":854,"o":"m 444 0 q 670 63 578 0 q 808 235 763 126 q 854 478 854 343 q 756 815 854 686 q 451 944 657 944 l 136 944 l 136 0 l 444 0 m 460 882 q 635 828 564 882 q 742 683 707 775 q 778 476 778 592 q 736 262 778 356 q 619 115 694 168 q 446 63 544 63 l 213 63 l 213 882 l 460 882 z "},"E":{"ha":693,"x_min":136,"x_max":665,"o":"m 213 61 l 213 456 l 553 456 l 546 513 l 213 513 l 213 886 l 633 886 l 626 944 l 136 944 l 136 0 l 665 0 l 657 61 l 213 61 z "},"F":{"ha":649,"x_min":136,"x_max":621,"o":"m 213 886 l 621 886 l 611 944 l 136 944 l 136 0 l 213 0 l 213 450 l 539 450 l 531 507 l 213 507 l 213 886 z "},"G":{"ha":861,"x_min":67,"x_max":779,"o":"m 703 81 q 533 49 615 49 q 337 101 424 49 q 200 249 250 154 q 150 467 150 344 q 203 693 150 594 q 347 845 257 792 q 546 899 438 899 q 654 889 613 899 q 747 858 696 879 l 774 913 q 667 950 739 936 q 543 964 594 964 q 300 901 408 964 q 129 724 192 838 q 67 467 67 611 q 124 217 67 328 q 288 44 182 107 q 535 -19 394 -19 q 668 -1 597 -19 q 779 43 739 17 l 779 475 l 499 475 l 490 417 l 703 417 l 703 81 z "},"H":{"ha":907,"x_min":136,"x_max":771,"o":"m 694 944 l 694 508 l 213 508 l 213 951 l 136 944 l 136 0 l 213 0 l 213 447 l 694 447 l 694 0 l 771 0 l 771 944 l 694 944 z "},"I":{"ha":347,"x_min":136,"x_max":213,"o":"m 136 944 l 136 0 l 213 0 l 213 944 l 136 944 z "},"J":{"ha":332,"x_min":14,"x_max":211,"o":"m 135 75 q 124 -10 135 19 q 90 -55 114 -39 q 14 -90 65 -71 l 47 -142 q 149 -97 114 -121 q 198 -36 185 -72 q 211 58 211 0 l 211 944 l 135 944 l 135 75 z "},"K":{"ha":814,"x_min":136,"x_max":800,"o":"m 213 365 l 213 0 l 136 0 l 136 944 l 213 944 l 213 458 l 685 965 l 736 917 l 381 543 l 800 0 l 706 0 l 329 489 l 213 365 z "},"L":{"ha":686,"x_min":136,"x_max":672,"o":"m 213 944 l 136 944 l 136 0 l 672 0 l 665 61 l 213 61 l 213 944 z "},"M":{"ha":1028,"x_min":136,"x_max":892,"o":"m 815 0 l 892 0 l 892 944 l 846 944 l 513 444 l 175 944 l 136 944 l 136 0 l 213 0 l 213 771 l 501 331 l 529 336 l 815 778 l 815 0 z "},"N":{"ha":931,"x_min":136,"x_max":796,"o":"m 232 749 l 749 0 l 796 0 l 796 944 l 718 944 l 718 165 l 671 247 l 183 944 l 136 944 l 136 0 l 213 0 l 213 789 l 232 749 z "},"O":{"ha":990,"x_min":67,"x_max":925,"o":"m 500 967 q 277 901 376 965 q 122 723 178 836 q 67 468 67 610 q 122 217 67 328 q 273 43 176 106 q 492 -19 369 -19 q 714 45 615 -19 q 869 224 813 110 q 925 479 925 338 q 870 731 925 619 q 718 904 815 842 q 500 967 621 967 m 150 469 q 195 690 150 592 q 321 844 240 789 q 501 900 401 900 q 676 846 599 900 q 797 695 753 792 q 840 478 840 599 q 795 256 840 354 q 670 101 750 157 q 489 46 590 46 q 315 101 392 46 q 194 252 238 156 q 150 469 150 349 z "},"P":{"ha":763,"x_min":136,"x_max":711,"o":"m 356 367 q 611 440 513 367 q 711 660 710 514 q 619 876 711 807 q 371 944 528 944 l 136 944 l 136 0 l 213 0 l 213 367 l 356 367 m 381 881 q 633 658 633 881 q 558 488 632 546 q 365 429 483 429 l 213 429 l 213 881 l 381 881 z "},"Q":{"ha":990,"x_min":67,"x_max":925,"o":"m 925 479 q 889 271 925 367 q 788 106 853 175 l 882 13 l 835 -26 l 739 64 q 492 -19 629 -19 q 273 43 369 -19 q 122 217 176 106 q 67 468 67 328 q 122 723 67 610 q 277 901 178 836 q 500 967 376 965 q 718 904 621 967 q 870 731 815 842 q 925 479 925 619 m 489 46 q 686 114 599 46 l 539 251 l 593 297 l 733 158 q 813 300 785 218 q 840 478 840 382 q 797 695 840 599 q 676 846 753 792 q 501 900 599 900 q 321 844 401 900 q 195 690 240 789 q 150 469 150 592 q 194 252 150 349 q 315 101 238 156 q 489 46 392 46 z "},"R":{"ha":800,"x_min":136,"x_max":786,"o":"m 213 0 l 213 397 l 356 397 q 474 408 414 397 l 700 0 l 786 0 l 540 429 q 665 521 619 460 q 711 675 710 582 q 620 881 711 817 q 371 944 529 944 l 136 944 l 136 0 l 213 0 m 374 881 q 633 672 633 881 q 554 511 632 563 q 358 460 476 460 l 213 460 l 213 881 l 374 881 z "},"S":{"ha":703,"x_min":67,"x_max":650,"o":"m 76 40 q 189 0 110 18 q 329 -18 268 -18 q 565 47 481 -18 q 650 219 650 113 q 590 376 650 314 q 397 496 531 438 q 201 609 261 557 q 142 736 142 661 q 201 856 142 810 q 358 903 260 903 q 465 890 422 903 q 558 856 508 878 l 589 913 q 481 951 542 936 q 356 967 421 967 q 203 937 268 967 q 102 856 138 907 q 67 740 67 804 q 130 579 67 647 q 321 457 193 511 q 514 349 454 400 q 574 222 574 297 q 508 97 574 147 q 328 46 443 46 q 203 62 264 46 q 97 100 142 78 l 76 40 z "},"T":{"ha":754,"x_min":14,"x_max":740,"o":"m 14 883 l 338 883 l 338 0 l 415 0 l 415 883 l 740 883 l 733 944 l 14 944 l 14 883 z "},"U":{"ha":924,"x_min":122,"x_max":801,"o":"m 122 332 q 163 151 122 231 q 281 28 204 72 q 461 -17 357 -17 q 644 28 567 -17 q 761 151 721 72 q 801 332 801 231 l 801 944 l 725 944 l 725 336 q 693 190 725 256 q 601 86 661 124 q 461 49 542 49 q 324 87 383 49 q 231 190 264 125 q 199 336 199 256 l 199 944 l 122 944 l 122 332 z "},"V":{"ha":807,"x_min":14,"x_max":793,"o":"m 374 -1 l 450 -1 l 793 943 l 719 943 l 411 100 l 90 951 l 14 936 l 374 -1 z "},"W":{"ha":1133,"x_min":14,"x_max":1119,"o":"m 797 -1 l 568 815 l 361 -1 l 285 -1 l 14 936 l 90 951 l 321 114 l 532 943 l 607 943 l 835 114 l 1046 943 l 1119 943 l 874 -1 l 797 -1 z "},"X":{"ha":758,"x_min":14,"x_max":744,"o":"m 647 0 l 736 0 l 438 464 l 744 944 l 661 944 l 396 525 l 119 961 l 50 928 l 340 482 l 14 0 l 101 0 l 381 424 l 647 0 z "},"Y":{"ha":746,"x_min":14,"x_max":732,"o":"m 732 944 l 647 944 l 364 456 l 86 961 l 14 925 l 326 378 l 326 0 l 403 0 l 403 386 l 732 944 z "},"Z":{"ha":761,"x_min":39,"x_max":724,"o":"m 724 876 l 717 944 l 68 944 l 82 883 l 646 883 l 39 69 l 47 0 l 710 0 l 703 61 l 119 61 l 724 876 z "},"a":{"ha":665,"x_min":72,"x_max":576,"o":"m 146 581 q 237 617 197 606 q 339 628 276 628 q 459 584 418 628 q 500 467 500 540 l 500 390 l 313 390 q 139 337 206 390 q 72 189 72 283 q 131 40 72 97 q 299 -18 189 -18 q 413 8 357 -18 q 504 72 469 33 l 515 0 l 576 0 l 576 472 q 513 632 576 572 q 335 692 449 692 q 222 675 289 692 q 119 633 156 658 l 146 581 m 150 189 q 192 294 150 253 q 314 336 235 336 l 500 336 l 500 157 q 413 76 464 107 q 300 46 361 46 q 190 88 229 46 q 150 189 150 129 z "},"b":{"ha":717,"x_min":108,"x_max":664,"o":"m 365 692 q 587 594 510 692 q 664 335 664 497 q 628 153 664 233 q 524 28 593 74 q 358 -18 456 -18 q 262 3 310 -18 q 174 56 214 24 l 156 0 l 108 0 l 108 967 l 185 981 l 185 624 q 365 692 267 692 m 361 46 q 526 128 468 46 q 585 333 585 210 q 530 547 585 465 q 367 628 475 628 q 266 606 308 628 q 185 543 224 583 l 185 119 q 266 66 224 86 q 361 46 308 46 z "},"c":{"ha":625,"x_min":53,"x_max":578,"o":"m 543 93 q 506 75 536 90 q 441 53 476 60 q 361 46 406 46 q 191 129 251 46 q 131 342 131 213 q 160 486 132 421 q 242 590 189 551 q 368 628 296 628 q 464 616 428 628 q 550 581 500 604 l 578 633 q 476 675 539 658 q 371 692 414 692 q 201 647 274 692 q 91 522 129 601 q 53 340 53 442 q 134 81 53 179 q 361 -18 215 -18 q 469 -2 407 -18 q 571 39 531 14 l 543 93 z "},"d":{"ha":714,"x_min":53,"x_max":606,"o":"m 606 0 l 560 0 l 539 58 q 350 -18 456 -18 q 129 79 206 -18 q 53 339 53 176 q 88 520 53 440 q 192 646 124 600 q 358 692 261 692 q 529 628 442 692 l 529 967 l 606 979 l 606 0 m 350 46 q 449 67 407 46 q 529 129 490 89 l 529 556 q 449 608 490 589 q 354 628 408 628 q 190 547 247 628 q 131 340 132 465 q 186 128 131 210 q 350 46 242 46 z "},"e":{"ha":675,"x_min":53,"x_max":622,"o":"m 622 335 q 551 593 622 494 q 351 692 481 692 q 130 594 207 692 q 53 340 53 497 q 135 78 53 175 q 382 -18 217 -18 q 501 -2 440 -18 q 607 40 561 14 l 579 97 q 482 58 529 72 q 374 44 435 44 q 192 124 251 44 q 131 335 132 204 l 622 335 m 133 389 q 197 561 143 494 q 344 628 250 628 q 486 563 439 628 q 543 389 533 497 l 133 389 z "},"f":{"ha":374,"x_min":26,"x_max":374,"o":"m 128 0 l 204 0 l 204 599 l 356 599 l 326 656 l 204 656 l 204 794 q 300 908 204 908 q 331 904 313 908 q 357 896 349 900 l 374 957 q 282 975 326 975 q 168 923 208 975 q 128 782 128 871 l 128 656 l 26 656 l 26 599 l 128 599 l 128 0 z "},"g":{"ha":708,"x_min":53,"x_max":606,"o":"m 606 -86 q 533 -254 606 -189 q 331 -319 460 -319 q 212 -303 285 -319 q 101 -262 139 -286 l 128 -207 q 222 -242 178 -231 q 328 -256 267 -254 q 473 -214 417 -256 q 529 -93 529 -172 l 529 49 q 350 -18 449 -18 q 129 79 206 -18 q 53 339 53 176 q 88 520 53 440 q 192 646 124 600 q 358 692 261 692 q 542 619 447 692 l 560 674 l 606 674 l 606 -86 m 350 46 q 449 67 407 46 q 529 129 490 89 l 529 556 q 449 608 490 589 q 354 628 408 628 q 190 547 247 628 q 131 340 132 465 q 186 128 131 210 q 350 46 242 46 z "},"h":{"ha":718,"x_min":108,"x_max":631,"o":"m 426 692 q 581 631 531 692 q 631 468 631 571 l 631 0 l 554 0 l 554 460 q 425 626 554 626 q 304 589 369 626 q 185 490 239 551 l 185 0 l 108 0 l 108 967 l 185 981 l 185 571 q 297 657 228 622 q 426 692 365 692 z "},"i":{"ha":265,"x_min":74,"x_max":192,"o":"m 132 828 q 174 844 157 828 q 192 886 192 861 q 174 928 192 911 q 132 944 157 944 q 90 928 106 944 q 74 886 74 911 q 90 844 74 861 q 132 828 106 828 m 94 674 l 94 0 l 171 0 l 171 674 l 94 674 z "},"j":{"ha":292,"x_min":0,"x_max":203,"o":"m 143 828 q 101 844 117 828 q 85 886 85 861 q 101 928 85 911 q 143 944 117 944 q 185 928 168 944 q 203 886 203 911 q 185 844 203 861 q 143 828 168 828 m 183 -86 q 172 -188 183 -150 q 128 -255 161 -226 q 29 -304 94 -283 l 0 -250 q 69 -212 47 -232 q 99 -160 92 -192 q 106 -71 107 -129 l 106 674 l 183 674 l 183 -86 z "},"k":{"ha":629,"x_min":108,"x_max":629,"o":"m 286 379 l 536 0 l 629 0 l 336 429 l 550 644 l 497 692 l 185 368 l 185 981 l 108 967 l 108 0 l 185 0 l 185 276 l 286 379 z "},"l":{"ha":292,"x_min":108,"x_max":185,"o":"m 108 967 l 108 0 l 185 0 l 185 981 l 108 967 z "},"m":{"ha":1089,"x_min":94,"x_max":1001,"o":"m 811 692 q 956 632 910 692 q 1001 468 1001 572 l 1001 0 l 925 0 l 925 460 q 900 583 925 539 q 810 626 875 626 q 703 592 763 626 q 590 503 643 558 q 592 468 592 492 l 592 0 l 515 0 l 515 460 q 491 583 515 539 q 401 626 467 626 q 288 589 351 626 q 171 490 225 551 l 171 0 l 94 0 l 94 674 l 156 674 l 169 569 q 281 656 213 619 q 403 692 349 692 q 578 569 542 692 q 689 656 621 619 q 811 692 757 692 z "},"n":{"ha":704,"x_min":94,"x_max":617,"o":"m 171 490 q 290 589 225 551 q 411 626 356 626 q 540 460 540 626 l 540 0 l 617 0 l 617 468 q 567 631 617 571 q 413 692 517 692 q 282 656 351 692 q 169 569 213 621 l 156 674 l 94 674 l 94 0 l 171 0 l 171 490 z "},"o":{"ha":729,"x_min":53,"x_max":676,"o":"m 676 333 q 638 153 676 233 q 528 28 600 74 q 360 -18 457 -18 q 133 81 214 -18 q 53 340 53 179 q 91 520 53 440 q 201 646 129 600 q 369 692 272 692 q 597 594 517 690 q 676 333 676 497 m 361 46 q 487 84 433 46 q 569 188 540 122 q 599 332 597 253 q 538 544 599 461 q 368 628 478 628 q 242 590 296 628 q 160 486 189 551 q 131 342 132 421 q 191 129 131 213 q 361 46 251 46 z "},"p":{"ha":711,"x_min":103,"x_max":658,"o":"m 360 692 q 581 594 504 692 q 658 335 658 497 q 623 153 658 233 q 519 28 588 74 q 353 -18 450 -18 q 262 0 307 -18 q 179 47 217 18 l 179 -289 l 103 -304 l 103 674 l 150 674 l 168 614 q 360 692 253 692 m 356 46 q 521 128 463 46 q 579 333 579 210 q 524 547 579 465 q 361 628 469 628 q 260 606 303 628 q 179 543 218 583 l 179 119 q 260 66 218 86 q 356 46 303 46 z "},"q":{"ha":708,"x_min":53,"x_max":606,"o":"m 606 -289 l 529 -304 l 529 49 q 350 -18 449 -18 q 129 79 206 -18 q 53 339 53 176 q 88 520 53 440 q 192 646 124 600 q 358 692 261 692 q 540 619 446 692 l 560 674 l 606 674 l 606 -289 m 350 46 q 449 67 407 46 q 529 129 490 89 l 529 556 q 449 608 490 589 q 354 628 408 628 q 190 547 247 628 q 131 340 132 465 q 186 128 131 210 q 350 46 242 46 z "},"r":{"ha":425,"x_min":94,"x_max":411,"o":"m 171 489 q 283 575 214 536 q 411 614 351 614 l 388 674 q 277 640 340 674 q 167 567 214 606 l 142 674 l 94 674 l 94 0 l 171 0 l 171 489 z "},"s":{"ha":572,"x_min":58,"x_max":519,"o":"m 58 35 q 156 -3 94 11 q 264 -18 217 -18 q 455 31 390 -18 q 519 171 519 81 q 460 290 519 240 q 306 375 401 339 q 179 437 224 406 q 135 511 135 468 q 179 595 135 561 q 293 629 224 629 q 384 617 347 629 q 468 582 421 604 l 496 636 q 404 676 463 660 q 300 692 346 692 q 124 641 188 692 q 61 506 61 590 q 267 314 61 388 q 447 165 447 247 q 399 76 447 108 q 267 44 350 44 q 83 94 186 44 l 58 35 z "},"t":{"ha":410,"x_min":26,"x_max":371,"o":"m 203 865 l 126 835 l 126 656 l 26 656 l 26 599 l 126 599 l 126 161 q 167 28 126 75 q 279 -18 208 -18 q 333 -11 306 -18 q 371 -1 367 -1 l 354 60 q 297 47 325 47 q 226 82 249 47 q 203 171 203 117 l 203 599 l 354 599 l 325 656 l 203 656 l 203 865 z "},"u":{"ha":704,"x_min":89,"x_max":611,"o":"m 535 183 q 415 85 481 122 q 293 47 349 47 q 194 92 224 47 q 165 214 165 136 l 165 674 l 89 674 l 89 206 q 138 42 89 103 q 292 -18 188 -18 q 422 18 353 -18 q 536 106 492 54 l 550 0 l 611 0 l 611 674 l 535 674 l 535 183 z "},"v":{"ha":603,"x_min":14,"x_max":589,"o":"m 513 674 l 301 93 l 82 688 l 14 657 l 263 0 l 340 0 l 589 674 l 513 674 z "},"w":{"ha":892,"x_min":14,"x_max":878,"o":"m 801 674 l 644 101 l 476 674 l 407 674 l 244 101 l 82 686 l 14 656 l 207 0 l 285 0 l 438 558 l 604 0 l 683 0 l 878 674 l 801 674 z "},"x":{"ha":578,"x_min":14,"x_max":564,"o":"m 461 0 l 546 0 l 338 322 l 564 674 l 481 674 l 297 379 l 107 686 l 39 656 l 239 339 l 14 0 l 100 0 l 279 282 l 461 0 z "},"y":{"ha":603,"x_min":14,"x_max":589,"o":"m 224 -136 q 177 -203 207 -179 q 89 -250 147 -226 l 103 -304 q 218 -251 169 -290 q 288 -156 267 -212 l 589 674 l 513 674 l 301 94 l 79 686 l 14 656 l 268 -4 l 224 -136 z "},"z":{"ha":600,"x_min":36,"x_max":564,"o":"m 99 614 l 474 614 l 36 43 l 47 0 l 556 0 l 542 58 l 122 58 l 564 629 l 560 674 l 76 674 l 99 614 z "},"ﬁ":{"ha":638,"x_min":26,"x_max":565,"o":"m 128 0 l 204 0 l 204 599 l 356 599 l 326 656 l 204 656 l 204 794 q 300 908 204 908 q 331 904 313 908 q 357 896 349 900 l 374 957 q 282 975 326 975 q 168 923 208 975 q 128 782 128 871 l 128 656 l 26 656 l 26 599 l 128 599 l 128 0 m 506 828 q 548 844 531 828 q 565 886 565 861 q 548 928 565 911 q 506 944 531 944 q 463 928 479 944 q 447 886 447 911 q 463 844 447 861 q 506 828 479 828 m 468 674 l 468 0 l 544 0 l 544 674 l 468 674 z "},"ﬂ":{"ha":665,"x_min":26,"x_max":558,"o":"m 128 0 l 204 0 l 204 599 l 356 599 l 326 656 l 204 656 l 204 794 q 300 908 204 908 q 331 904 313 908 q 357 896 349 900 l 374 957 q 282 975 326 975 q 168 923 208 975 q 128 782 128 871 l 128 656 l 26 656 l 26 599 l 128 599 l 128 0 m 482 967 l 482 0 l 558 0 l 558 981 l 482 967 z "},"`":{"ha":196,"x_min":14,"x_max":182,"o":"m 106 1031 l 14 1031 l 132 818 l 182 835 l 106 1031 z "},"¨":{"ha":358,"x_min":14,"x_max":344,"o":"m 69 858 q 109 874 93 858 q 125 914 125 890 q 109 952 125 936 q 69 968 93 968 q 30 953 46 968 q 14 914 14 938 q 30 874 14 890 q 69 858 46 858 m 289 858 q 328 874 313 858 q 344 914 344 890 q 328 952 344 936 q 289 968 313 968 q 249 953 264 968 q 233 914 233 938 q 249 874 233 890 q 289 858 264 858 z "},"¯":{"ha":363,"x_min":14,"x_max":349,"o":"m 340 949 l 14 949 l 14 889 l 349 889 l 340 949 z "},"´":{"ha":196,"x_min":14,"x_max":182,"o":"m 90 1031 l 14 835 l 64 818 l 182 1031 l 90 1031 z "},"ˆ":{"ha":383,"x_min":14,"x_max":369,"o":"m 369 835 l 225 1031 l 157 1031 l 14 832 l 79 818 l 192 976 l 301 818 l 369 835 z "},"ˇ":{"ha":383,"x_min":14,"x_max":369,"o":"m 14 1017 l 158 818 l 226 818 l 369 1014 l 304 1031 l 193 872 l 82 1031 l 14 1017 z "},"˘":{"ha":389,"x_min":14,"x_max":375,"o":"m 314 1015 q 281 931 314 967 q 194 894 249 894 q 106 931 139 894 q 74 1015 74 968 l 14 1015 q 61 888 14 940 q 194 835 108 835 q 328 888 282 835 q 375 1015 375 940 l 314 1015 z "},"˙":{"ha":146,"x_min":14,"x_max":132,"o":"m 74 858 q 115 876 97 858 q 132 918 132 893 q 115 959 132 942 q 74 976 97 976 q 31 959 49 976 q 14 918 14 942 q 31 876 14 893 q 74 858 47 858 z "},"˚":{"ha":274,"x_min":14,"x_max":260,"o":"m 138 1054 q 51 1021 88 1054 q 14 938 14 988 q 50 857 14 889 q 138 825 86 825 q 224 857 189 825 q 260 938 260 889 q 224 1021 260 988 q 138 1054 188 1054 m 138 872 q 91 891 110 872 q 72 938 72 910 q 91 986 72 967 q 138 1006 110 1006 q 184 986 165 1006 q 203 938 203 967 q 184 891 203 910 q 138 872 165 872 z "},"˜":{"ha":419,"x_min":14,"x_max":401,"o":"m 344 971 q 326 922 342 939 q 286 904 310 904 q 219 940 251 904 q 129 976 188 976 q 46 946 78 976 q 14 850 14 915 l 72 850 q 91 900 75 882 q 131 918 107 918 q 203 882 164 918 q 286 844 239 844 q 369 875 338 844 q 401 971 401 906 l 344 971 z "},"˝":{"ha":381,"x_min":14,"x_max":367,"o":"m 90 1031 l 14 835 l 64 818 l 182 1031 l 90 1031 m 276 1031 l 200 835 l 249 818 l 367 1031 l 276 1031 z "},"˛":{"ha":285,"x_min":14,"x_max":271,"o":"m 103 6 q 39 -71 64 -26 q 14 -154 14 -115 q 56 -250 14 -212 q 160 -287 97 -287 q 223 -276 193 -287 q 271 -246 253 -264 l 240 -201 q 164 -231 204 -231 q 108 -210 133 -231 q 83 -153 83 -190 q 104 -70 83 -110 q 163 0 125 -31 l 103 6 z "},"¸":{"ha":286,"x_min":14,"x_max":272,"o":"m 75 -110 q 169 -135 132 -111 q 206 -189 206 -158 q 179 -233 206 -215 q 117 -250 153 -250 q 35 -231 82 -250 l 14 -281 q 62 -299 31 -292 q 119 -307 93 -307 q 229 -275 186 -307 q 272 -186 272 -243 q 239 -115 272 -149 q 153 -72 206 -82 l 189 18 l 124 18 l 75 -110 z "},"":{"ha":0,"x_min":14,"x_max":161,"o":"m 101 -29 q 59 -47 76 -29 q 42 -89 42 -64 q 57 -128 42 -110 q 96 -147 72 -146 q 14 -260 94 -212 l 38 -297 q 127 -215 93 -271 q 161 -96 161 -160 q 144 -49 161 -68 q 101 -29 126 -29 z "},"Þ":{"ha":763,"x_min":136,"x_max":711,"o":"m 371 833 q 619 765 528 833 q 711 549 711 696 q 611 329 710 403 q 356 256 513 256 l 213 256 l 213 0 l 136 0 l 136 944 l 213 944 l 213 833 l 371 833 m 365 318 q 558 376 483 318 q 633 547 632 435 q 381 769 633 769 l 213 769 l 213 318 l 365 318 z "},"Ð":{"ha":921,"x_min":21,"x_max":854,"o":"m 451 944 q 756 815 657 944 q 854 478 854 686 q 808 235 854 343 q 670 63 763 126 q 444 0 578 0 l 136 0 l 136 433 l 33 433 l 21 494 l 136 494 l 136 944 l 451 944 m 446 63 q 619 115 544 63 q 736 262 694 168 q 778 476 778 356 q 742 683 778 592 q 635 828 707 775 q 460 882 564 882 l 213 882 l 213 494 l 365 494 l 378 433 l 213 433 l 213 63 l 446 63 z "},"Æ":{"ha":1160,"x_min":14,"x_max":1132,"o":"m 1125 61 l 679 61 l 679 456 l 1019 456 l 1013 513 l 679 513 l 679 886 l 1101 886 l 1094 944 l 592 944 l 14 7 l 88 -7 l 265 290 l 603 290 l 603 0 l 1132 0 l 1125 61 m 304 351 l 603 839 l 603 351 l 304 351 z "},"Đ":{"ha":921,"x_min":21,"x_max":854,"o":"m 451 944 q 756 815 657 944 q 854 478 854 686 q 808 235 854 343 q 670 63 763 126 q 444 0 578 0 l 136 0 l 136 433 l 33 433 l 21 494 l 136 494 l 136 944 l 451 944 m 446 63 q 619 115 544 63 q 736 262 694 168 q 778 476 778 356 q 742 683 778 592 q 635 828 707 775 q 460 882 564 882 l 213 882 l 213 494 l 365 494 l 378 433 l 213 433 l 213 63 l 446 63 z "},"Ł":{"ha":679,"x_min":17,"x_max":665,"o":"m 53 303 l 17 354 l 129 451 l 129 944 l 206 944 l 206 518 l 363 656 l 399 607 l 206 436 l 206 61 l 658 61 l 665 0 l 129 0 l 129 369 l 53 303 z "},"Œ":{"ha":1251,"x_min":67,"x_max":1224,"o":"m 694 17 q 597 -9 653 1 q 493 -19 540 -19 q 258 47 354 -19 q 115 223 163 113 q 67 467 67 333 q 119 719 67 606 q 271 898 172 832 q 501 964 369 964 q 597 955 540 964 q 694 931 653 946 l 694 944 l 1185 944 l 1192 886 l 771 886 l 771 513 l 1104 513 l 1111 456 l 771 456 l 771 61 l 1215 61 l 1224 0 l 694 0 l 694 17 m 489 49 q 604 59 557 49 q 694 89 651 69 l 694 858 q 606 888 647 878 q 501 897 565 897 q 322 842 403 897 q 196 690 242 788 q 150 468 150 593 q 190 258 150 353 q 308 106 231 163 q 489 49 385 49 z "},"Ø":{"ha":990,"x_min":67,"x_max":925,"o":"m 500 967 q 718 904 621 967 q 870 731 815 842 q 925 479 925 619 q 869 224 925 338 q 714 45 813 110 q 492 -19 615 -19 q 273 43 369 -19 q 122 217 176 106 q 67 468 67 328 q 122 723 67 610 q 277 901 178 836 q 500 967 376 965 m 150 469 q 190 260 150 353 q 301 111 231 167 l 629 872 q 501 900 569 900 q 321 844 401 900 q 195 690 240 789 q 150 469 150 592 m 489 46 q 670 101 590 46 q 795 256 750 157 q 840 478 840 354 q 801 686 840 593 q 692 833 763 779 l 364 72 q 489 46 425 46 z "},"ß":{"ha":764,"x_min":108,"x_max":704,"o":"m 185 657 q 238 817 185 756 q 392 879 292 879 q 524 832 471 879 q 578 697 578 785 q 524 564 578 607 q 349 521 471 521 l 311 521 l 311 458 l 374 458 q 558 409 492 458 q 625 258 625 360 q 553 109 625 156 q 360 63 481 63 l 289 63 l 289 0 l 349 0 q 608 61 511 0 q 704 261 704 122 q 657 408 704 349 q 531 494 610 468 q 624 574 592 522 q 657 699 657 625 q 581 881 657 817 q 392 944 506 944 q 185 869 261 944 q 108 657 108 793 l 108 0 l 185 0 l 185 657 z "},"ð":{"ha":729,"x_min":53,"x_max":676,"o":"m 397 915 q 676 333 676 708 q 638 153 676 233 q 528 28 600 74 q 360 -18 457 -18 q 133 81 214 -18 q 53 340 53 179 q 91 520 53 440 q 201 646 129 600 q 369 692 272 692 q 539 638 467 690 q 333 882 474 781 l 156 793 l 125 847 l 275 921 q 136 990 207 961 l 158 1042 q 340 953 257 1006 l 497 1031 l 526 981 l 397 915 m 361 46 q 487 84 433 46 q 569 188 540 122 q 599 332 597 253 q 575 536 599 442 q 481 604 535 581 q 368 628 428 628 q 242 590 296 628 q 160 486 189 551 q 131 342 132 421 q 191 129 131 213 q 361 46 251 46 z "},"þ":{"ha":711,"x_min":103,"x_max":658,"o":"m 360 692 q 581 594 504 692 q 658 335 658 497 q 623 153 658 233 q 519 28 588 74 q 353 -18 450 -18 q 262 0 307 -18 q 179 47 217 18 l 179 -289 l 103 -304 l 103 967 l 179 981 l 179 622 q 360 692 260 692 m 356 46 q 521 128 463 46 q 579 333 579 210 q 524 547 579 465 q 361 628 469 628 q 260 606 303 628 q 179 542 218 583 l 179 121 q 260 66 218 86 q 356 46 301 46 z "},"ƒ":{"ha":415,"x_min":0,"x_max":415,"o":"m 169 599 l 169 89 q 72 -25 169 -25 q 42 -21 60 -25 q 17 -12 25 -17 l 0 -74 q 92 -92 47 -92 q 206 -40 165 -92 q 246 101 246 13 l 246 599 l 397 599 l 368 656 l 246 656 l 246 794 q 342 908 246 908 q 372 904 354 908 q 399 896 390 900 l 415 957 q 324 975 368 975 q 210 923 250 975 q 169 782 169 871 l 169 656 l 68 656 l 68 599 l 169 599 z "},"æ":{"ha":1118,"x_min":72,"x_max":1065,"o":"m 818 46 q 926 59 879 46 q 1022 97 974 72 l 1050 40 q 944 -2 1004 14 q 825 -18 883 -18 q 554 111 639 -18 q 299 -18 461 -18 q 131 40 189 -18 q 72 189 72 97 q 139 337 72 283 q 313 390 206 390 l 499 390 l 500 408 l 500 467 q 459 584 500 540 q 339 628 418 628 q 237 617 276 628 q 146 581 197 606 l 119 633 q 222 675 156 658 q 335 692 289 692 q 474 660 417 692 q 557 571 531 628 q 655 660 594 629 q 796 692 715 692 q 994 593 924 692 q 1065 335 1065 494 l 574 335 q 635 126 575 206 q 818 46 694 46 m 788 628 q 640 562 693 628 q 576 390 586 496 l 986 390 q 929 563 976 499 q 788 628 882 628 m 300 46 q 435 80 385 46 q 524 172 485 114 q 496 336 496 247 l 314 336 q 192 294 235 336 q 150 189 150 253 q 190 88 150 129 q 300 46 229 46 z "},"đ":{"ha":714,"x_min":53,"x_max":708,"o":"m 606 797 l 606 0 l 560 0 l 539 58 q 350 -18 456 -18 q 129 79 206 -18 q 53 339 53 176 q 88 520 53 440 q 192 646 124 600 q 358 692 261 692 q 529 628 442 692 l 529 797 l 364 797 l 353 851 l 529 851 l 529 967 l 606 979 l 606 851 l 697 851 l 708 797 l 606 797 m 350 46 q 449 67 407 46 q 529 129 490 89 l 529 556 q 449 608 490 589 q 354 628 408 628 q 190 547 247 628 q 131 340 132 465 q 186 128 131 210 q 350 46 242 46 z "},"œ":{"ha":1064,"x_min":53,"x_max":1013,"o":"m 764 44 q 872 58 825 44 q 968 97 918 71 l 996 40 q 890 -2 950 14 q 771 -18 829 -18 q 569 39 650 -18 q 468 -2 529 14 q 361 -18 407 -18 q 134 81 215 -18 q 53 340 53 179 q 91 522 53 442 q 201 647 129 601 q 371 692 274 692 q 469 677 411 692 q 568 639 526 663 q 742 692 639 692 q 941 592 869 692 q 1013 335 1013 493 l 521 335 q 581 124 522 204 q 764 44 640 44 m 131 342 q 191 129 131 213 q 361 46 251 46 q 451 55 417 46 q 521 82 485 64 q 442 340 442 178 q 519 594 442 500 q 451 619 486 610 q 368 628 417 628 q 242 590 296 628 q 160 486 189 551 q 131 342 132 421 m 735 628 q 587 561 640 628 q 524 389 533 494 l 933 389 q 876 563 924 497 q 735 628 829 628 z "},"ĺ":{"ha":292,"x_min":108,"x_max":283,"o":"m 193 1239 l 117 1043 l 165 1026 l 283 1239 l 193 1239 m 108 936 l 108 0 l 185 0 l 185 950 l 108 936 z "},"ł":{"ha":381,"x_min":0,"x_max":381,"o":"m 229 981 l 153 967 l 153 500 l 0 368 l 36 315 l 153 418 l 153 0 l 229 0 l 229 485 l 381 619 l 346 669 l 229 567 l 229 981 z "},"ı":{"ha":265,"x_min":94,"x_max":171,"o":"m 94 674 l 94 0 l 171 0 l 171 674 l 94 674 z "},"ø":{"ha":729,"x_min":53,"x_max":676,"o":"m 676 333 q 638 153 676 233 q 528 28 600 74 q 360 -18 457 -18 q 133 81 214 -18 q 53 340 53 179 q 91 520 53 440 q 201 646 129 600 q 369 692 272 692 q 597 594 517 690 q 676 333 676 497 m 361 46 q 487 84 433 46 q 569 188 540 122 q 599 332 597 253 q 538 544 599 461 q 368 628 478 628 q 242 590 296 628 q 160 486 189 551 q 131 342 132 421 q 191 129 131 213 q 361 46 251 46 m 358 306 l 382 349 l 379 343 l 361 310 l 358 306 z "},"À":{"ha":807,"x_min":14,"x_max":793,"o":"m 89 0 l 194 290 l 606 290 l 717 -8 l 793 7 l 433 944 l 357 944 l 14 0 l 89 0 m 396 844 l 583 351 l 215 351 l 396 844 m 372 1239 l 281 1239 l 399 1026 l 449 1043 l 372 1239 z "},"Á":{"ha":807,"x_min":14,"x_max":793,"o":"m 89 0 l 194 290 l 606 290 l 717 -8 l 793 7 l 433 944 l 357 944 l 14 0 l 89 0 m 396 844 l 583 351 l 215 351 l 396 844 m 413 1239 l 336 1043 l 386 1026 l 504 1239 l 413 1239 z "},"Â":{"ha":807,"x_min":14,"x_max":793,"o":"m 89 0 l 194 290 l 606 290 l 717 -8 l 793 7 l 433 944 l 357 944 l 14 0 l 89 0 m 396 844 l 583 351 l 215 351 l 396 844 m 574 1044 l 429 1240 l 361 1240 l 218 1042 l 283 1028 l 396 1185 l 506 1028 l 574 1044 z "},"Ã":{"ha":807,"x_min":14,"x_max":793,"o":"m 89 0 l 194 290 l 606 290 l 717 -8 l 793 7 l 433 944 l 357 944 l 14 0 l 89 0 m 396 844 l 583 351 l 215 351 l 396 844 m 524 1179 q 505 1130 521 1147 q 465 1113 489 1113 q 399 1149 431 1113 q 308 1185 367 1185 q 225 1154 257 1185 q 193 1058 193 1124 l 251 1058 q 270 1108 254 1090 q 310 1126 286 1126 q 382 1090 343 1126 q 465 1053 418 1053 q 549 1083 517 1053 q 581 1179 581 1114 l 524 1179 z "},"Ä":{"ha":807,"x_min":14,"x_max":793,"o":"m 89 0 l 194 290 l 606 290 l 717 -8 l 793 7 l 433 944 l 357 944 l 14 0 l 89 0 m 396 844 l 583 351 l 215 351 l 396 844 m 282 1067 q 322 1083 306 1067 q 338 1122 338 1099 q 322 1160 338 1144 q 282 1176 306 1176 q 242 1161 258 1176 q 226 1122 226 1146 q 242 1083 226 1099 q 282 1067 258 1067 m 501 1067 q 541 1083 525 1067 q 557 1122 557 1099 q 541 1160 557 1144 q 501 1176 525 1176 q 461 1161 476 1176 q 446 1122 446 1146 q 461 1083 446 1099 q 501 1067 476 1067 z "},"Å":{"ha":807,"x_min":14,"x_max":793,"o":"m 89 0 l 194 290 l 606 290 l 717 -8 l 793 7 l 433 944 l 357 944 l 14 0 l 89 0 m 396 844 l 583 351 l 215 351 l 396 844 m 396 1263 q 309 1229 346 1263 q 272 1146 272 1196 q 308 1065 272 1097 q 396 1033 344 1033 q 483 1065 447 1033 q 518 1146 518 1097 q 482 1229 518 1196 q 396 1263 446 1263 m 396 1081 q 349 1099 368 1081 q 331 1146 331 1118 q 349 1194 331 1175 q 396 1214 368 1214 q 442 1194 424 1214 q 461 1146 461 1175 q 442 1099 461 1118 q 396 1081 424 1081 z "},"Ă":{"ha":807,"x_min":14,"x_max":793,"o":"m 89 0 l 194 290 l 606 290 l 717 -8 l 793 7 l 433 944 l 357 944 l 14 0 l 89 0 m 396 844 l 583 351 l 215 351 l 396 844 m 515 1224 q 483 1139 515 1175 q 396 1103 450 1103 q 308 1140 340 1103 q 275 1224 275 1176 l 215 1224 q 263 1096 215 1149 q 396 1043 310 1043 q 530 1096 483 1043 q 576 1224 576 1149 l 515 1224 z "},"Ą":{"ha":807,"x_min":14,"x_max":894,"o":"m 894 -246 q 847 -276 876 -264 q 783 -287 817 -287 q 679 -250 721 -287 q 638 -154 638 -212 q 659 -78 638 -119 q 715 -4 681 -36 l 606 290 l 194 290 l 89 0 l 14 0 l 357 944 l 433 944 l 793 7 l 767 1 l 786 0 q 728 -70 749 -31 q 707 -153 707 -110 q 732 -210 707 -190 q 788 -231 757 -231 q 864 -201 828 -231 l 894 -246 m 396 844 l 215 351 l 583 351 l 396 844 z "},"Ā":{"ha":807,"x_min":14,"x_max":793,"o":"m 89 0 l 194 290 l 606 290 l 717 -8 l 793 7 l 433 944 l 357 944 l 14 0 l 89 0 m 396 844 l 583 351 l 215 351 l 396 844 m 554 1157 l 226 1157 l 226 1097 l 561 1097 l 554 1157 z "},"Ç":{"ha":768,"x_min":67,"x_max":731,"o":"m 731 32 q 635 -2 696 13 q 517 -19 574 -17 l 496 -72 q 582 -115 549 -82 q 615 -186 615 -149 q 572 -275 615 -243 q 463 -307 529 -307 q 405 -299 436 -307 q 357 -281 374 -292 l 378 -231 q 460 -250 425 -250 q 522 -233 496 -250 q 549 -189 549 -215 q 512 -135 549 -158 q 418 -110 475 -111 l 453 -18 q 240 60 326 -8 q 110 234 153 128 q 67 467 67 340 q 119 719 67 606 q 271 898 172 832 q 501 964 369 964 q 624 950 553 964 q 731 913 696 936 l 703 856 q 610 888 650 878 q 501 897 569 897 q 322 842 403 897 q 196 690 242 788 q 150 468 150 593 q 190 258 150 353 q 308 106 231 163 q 489 49 385 49 q 605 60 557 49 q 697 90 653 71 l 731 32 z "},"Ć":{"ha":768,"x_min":67,"x_max":731,"o":"m 731 913 q 624 950 696 936 q 501 964 553 964 q 271 898 369 964 q 119 719 172 832 q 67 467 67 606 q 115 223 67 333 q 258 47 163 113 q 493 -19 354 -19 q 622 -4 551 -19 q 731 32 692 11 l 697 90 q 605 60 653 71 q 489 49 557 49 q 308 106 385 49 q 190 258 231 163 q 150 468 150 353 q 196 690 150 593 q 322 842 242 788 q 501 897 403 897 q 610 888 569 897 q 703 856 650 878 l 731 913 m 518 1239 l 442 1043 l 492 1026 l 610 1239 l 518 1239 z "},"Č":{"ha":768,"x_min":67,"x_max":731,"o":"m 731 913 q 624 950 696 936 q 501 964 553 964 q 271 898 369 964 q 119 719 172 832 q 67 467 67 606 q 115 223 67 333 q 258 47 163 113 q 493 -19 354 -19 q 622 -4 551 -19 q 731 32 692 11 l 697 90 q 605 60 653 71 q 489 49 557 49 q 308 106 385 49 q 190 258 231 163 q 150 468 150 353 q 196 690 150 593 q 322 842 242 788 q 501 897 403 897 q 610 888 569 897 q 703 856 650 878 l 731 913 m 325 1225 l 469 1026 l 538 1026 l 681 1222 l 615 1239 l 504 1081 l 393 1239 l 325 1225 z "},"Ď":{"ha":921,"x_min":136,"x_max":854,"o":"m 444 0 q 670 63 578 0 q 808 235 763 126 q 854 478 854 343 q 756 815 854 686 q 451 944 657 944 l 136 944 l 136 0 l 444 0 m 460 882 q 635 828 564 882 q 742 683 707 775 q 778 476 778 592 q 736 262 778 356 q 619 115 694 168 q 446 63 544 63 l 213 63 l 213 882 l 460 882 m 256 1225 l 400 1026 l 468 1026 l 611 1222 l 546 1239 l 435 1081 l 324 1239 l 256 1225 z "},"È":{"ha":693,"x_min":136,"x_max":665,"o":"m 213 61 l 213 456 l 553 456 l 546 513 l 213 513 l 213 886 l 633 886 l 626 944 l 136 944 l 136 0 l 665 0 l 657 61 l 213 61 m 361 1239 l 269 1239 l 388 1026 l 438 1043 l 361 1239 z "},"É":{"ha":693,"x_min":136,"x_max":665,"o":"m 213 61 l 213 456 l 553 456 l 546 513 l 213 513 l 213 886 l 633 886 l 626 944 l 136 944 l 136 0 l 665 0 l 657 61 l 213 61 m 400 1239 l 324 1043 l 374 1026 l 492 1239 l 400 1239 z "},"Ê":{"ha":693,"x_min":136,"x_max":665,"o":"m 213 61 l 213 456 l 553 456 l 546 513 l 213 513 l 213 886 l 633 886 l 626 944 l 136 944 l 136 0 l 665 0 l 657 61 l 213 61 m 563 1044 l 418 1240 l 350 1240 l 207 1042 l 272 1028 l 385 1185 l 494 1028 l 563 1044 z "},"Ë":{"ha":693,"x_min":136,"x_max":665,"o":"m 213 61 l 213 456 l 553 456 l 546 513 l 213 513 l 213 886 l 633 886 l 626 944 l 136 944 l 136 0 l 665 0 l 657 61 l 213 61 m 269 1067 q 309 1083 293 1067 q 325 1122 325 1099 q 309 1160 325 1144 q 269 1176 293 1176 q 230 1161 246 1176 q 214 1122 214 1146 q 230 1083 214 1099 q 269 1067 246 1067 m 489 1067 q 528 1083 513 1067 q 544 1122 544 1099 q 528 1160 544 1144 q 489 1176 513 1176 q 449 1161 464 1176 q 433 1122 433 1146 q 449 1083 433 1099 q 489 1067 464 1067 z "},"Ē":{"ha":693,"x_min":136,"x_max":665,"o":"m 213 61 l 213 456 l 553 456 l 546 513 l 213 513 l 213 886 l 633 886 l 626 944 l 136 944 l 136 0 l 665 0 l 657 61 l 213 61 m 542 1157 l 214 1157 l 214 1097 l 549 1097 l 542 1157 z "},"Ė":{"ha":693,"x_min":136,"x_max":665,"o":"m 213 61 l 213 456 l 553 456 l 546 513 l 213 513 l 213 886 l 633 886 l 626 944 l 136 944 l 136 0 l 665 0 l 657 61 l 213 61 m 382 1067 q 423 1084 406 1067 q 440 1126 440 1101 q 423 1167 440 1150 q 382 1185 406 1185 q 340 1167 357 1185 q 322 1126 322 1150 q 339 1084 322 1101 q 382 1067 356 1067 z "},"Ę":{"ha":693,"x_min":136,"x_max":675,"o":"m 675 -246 q 627 -276 657 -264 q 564 -287 597 -287 q 460 -250 501 -287 q 418 -154 418 -212 q 441 -75 418 -118 q 500 0 464 -32 l 136 0 l 136 944 l 626 944 l 633 886 l 213 886 l 213 513 l 546 513 l 553 456 l 213 456 l 213 61 l 657 61 l 665 0 l 567 0 q 508 -70 529 -31 q 488 -153 488 -110 q 513 -210 488 -190 q 568 -231 538 -231 q 644 -201 608 -231 l 675 -246 z "},"Ě":{"ha":693,"x_min":136,"x_max":665,"o":"m 213 61 l 213 456 l 553 456 l 546 513 l 213 513 l 213 886 l 633 886 l 626 944 l 136 944 l 136 0 l 665 0 l 657 61 l 213 61 m 207 1225 l 351 1026 l 419 1026 l 563 1222 l 497 1239 l 386 1081 l 275 1239 l 207 1225 z "},"Ğ":{"ha":861,"x_min":67,"x_max":779,"o":"m 703 81 q 533 49 615 49 q 337 101 424 49 q 200 249 250 154 q 150 467 150 344 q 203 693 150 594 q 347 845 257 792 q 546 899 438 899 q 654 889 613 899 q 747 858 696 879 l 774 913 q 667 950 739 936 q 543 964 594 964 q 300 901 408 964 q 129 724 192 838 q 67 467 67 611 q 124 217 67 328 q 288 44 182 107 q 535 -19 394 -19 q 668 -1 597 -19 q 779 43 739 17 l 779 475 l 499 475 l 490 417 l 703 417 l 703 81 m 649 1224 q 616 1139 649 1175 q 529 1103 583 1103 q 441 1140 474 1103 q 408 1224 408 1176 l 349 1224 q 396 1096 349 1149 q 529 1043 443 1043 q 663 1096 617 1043 q 710 1224 710 1149 l 649 1224 z "},"Ì":{"ha":347,"x_min":60,"x_max":228,"o":"m 136 944 l 136 0 l 213 0 l 213 944 l 136 944 m 151 1239 l 60 1239 l 178 1026 l 228 1043 l 151 1239 z "},"Í":{"ha":347,"x_min":115,"x_max":283,"o":"m 136 944 l 136 0 l 213 0 l 213 944 l 136 944 m 192 1239 l 115 1043 l 165 1026 l 283 1239 l 192 1239 z "},"Î":{"ha":347,"x_min":-3,"x_max":353,"o":"m 136 944 l 136 0 l 213 0 l 213 944 l 136 944 m 353 1044 l 208 1240 l 140 1240 l -3 1042 l 63 1028 l 175 1185 l 285 1028 l 353 1044 z "},"Ï":{"ha":347,"x_min":6,"x_max":336,"o":"m 136 944 l 136 0 l 213 0 l 213 944 l 136 944 m 61 1067 q 101 1083 85 1067 q 117 1122 117 1099 q 101 1160 117 1144 q 61 1176 85 1176 q 22 1161 38 1176 q 6 1122 6 1146 q 22 1083 6 1099 q 61 1067 38 1067 m 281 1067 q 320 1083 304 1067 q 336 1122 336 1099 q 320 1160 336 1144 q 281 1176 304 1176 q 240 1161 256 1176 q 225 1122 225 1146 q 240 1083 225 1099 q 281 1067 256 1067 z "},"Ī":{"ha":347,"x_min":6,"x_max":340,"o":"m 136 944 l 136 0 l 213 0 l 213 944 l 136 944 m 333 1157 l 6 1157 l 6 1097 l 340 1097 l 333 1157 z "},"Į":{"ha":347,"x_min":57,"x_max":314,"o":"m 314 -246 q 266 -276 296 -264 q 203 -287 236 -287 q 99 -250 140 -287 q 57 -154 57 -212 q 80 -75 57 -118 q 139 0 103 -32 l 136 0 l 136 944 l 213 944 l 213 0 l 206 0 q 147 -70 168 -31 q 126 -153 126 -110 q 151 -210 126 -190 q 207 -231 176 -231 q 283 -201 247 -231 l 314 -246 z "},"İ":{"ha":347,"x_min":114,"x_max":232,"o":"m 136 944 l 136 0 l 213 0 l 213 944 l 136 944 m 174 1067 q 215 1084 197 1067 q 232 1126 232 1101 q 215 1167 232 1150 q 174 1185 197 1185 q 131 1167 149 1185 q 114 1126 114 1150 q 131 1084 114 1101 q 174 1067 147 1067 z "},"Ĺ":{"ha":686,"x_min":136,"x_max":672,"o":"m 213 944 l 136 944 l 136 0 l 672 0 l 665 61 l 213 61 l 213 944 m 263 1239 l 186 1043 l 236 1026 l 354 1239 l 263 1239 z "},"Ľ":{"ha":686,"x_min":136,"x_max":672,"o":"m 213 944 l 136 944 l 136 0 l 672 0 l 665 61 l 213 61 l 213 944 m 518 975 q 475 957 492 975 q 458 915 458 939 q 473 876 458 894 q 513 856 488 857 q 431 744 508 792 l 454 707 q 544 790 510 735 q 578 907 578 844 q 560 955 578 935 q 518 975 543 975 z "},"Ñ":{"ha":931,"x_min":136,"x_max":796,"o":"m 232 749 l 749 0 l 796 0 l 796 944 l 718 944 l 718 165 l 671 247 l 183 944 l 136 944 l 136 0 l 213 0 l 213 789 l 232 749 m 593 1179 q 574 1130 590 1147 q 535 1113 558 1113 q 468 1149 500 1113 q 378 1185 436 1185 q 294 1154 326 1185 q 263 1058 263 1124 l 321 1058 q 340 1108 324 1090 q 379 1126 356 1126 q 451 1090 413 1126 q 535 1053 488 1053 q 618 1083 586 1053 q 650 1179 650 1114 l 593 1179 z "},"Ń":{"ha":931,"x_min":136,"x_max":796,"o":"m 232 749 l 749 0 l 796 0 l 796 944 l 718 944 l 718 165 l 671 247 l 183 944 l 136 944 l 136 0 l 213 0 l 213 789 l 232 749 m 482 1239 l 406 1043 l 456 1026 l 574 1239 l 482 1239 z "},"Ň":{"ha":931,"x_min":136,"x_max":796,"o":"m 232 749 l 749 0 l 796 0 l 796 944 l 718 944 l 718 165 l 671 247 l 183 944 l 136 944 l 136 0 l 213 0 l 213 789 l 232 749 m 288 1225 l 432 1026 l 500 1026 l 643 1222 l 578 1239 l 467 1081 l 356 1239 l 288 1225 z "},"Ò":{"ha":990,"x_min":67,"x_max":925,"o":"m 500 967 q 277 901 376 965 q 122 723 178 836 q 67 468 67 610 q 122 217 67 328 q 273 43 176 106 q 492 -19 369 -19 q 714 45 615 -19 q 869 224 813 110 q 925 479 925 338 q 870 731 925 619 q 718 904 815 842 q 500 967 621 967 m 150 469 q 195 690 150 592 q 321 844 240 789 q 501 900 401 900 q 676 846 599 900 q 797 695 753 792 q 840 478 840 599 q 795 256 840 354 q 670 101 750 157 q 489 46 590 46 q 315 101 392 46 q 194 252 238 156 q 150 469 150 349 m 476 1239 l 385 1239 l 503 1026 l 553 1043 l 476 1239 z "},"Ó":{"ha":990,"x_min":67,"x_max":925,"o":"m 500 967 q 277 901 376 965 q 122 723 178 836 q 67 468 67 610 q 122 217 67 328 q 273 43 176 106 q 492 -19 369 -19 q 714 45 615 -19 q 869 224 813 110 q 925 479 925 338 q 870 731 925 619 q 718 904 815 842 q 500 967 621 967 m 150 469 q 195 690 150 592 q 321 844 240 789 q 501 900 401 900 q 676 846 599 900 q 797 695 753 792 q 840 478 840 599 q 795 256 840 354 q 670 101 750 157 q 489 46 590 46 q 315 101 392 46 q 194 252 238 156 q 150 469 150 349 m 515 1239 l 439 1043 l 489 1026 l 607 1239 l 515 1239 z "},"Ô":{"ha":990,"x_min":67,"x_max":925,"o":"m 500 967 q 277 901 376 965 q 122 723 178 836 q 67 468 67 610 q 122 217 67 328 q 273 43 176 106 q 492 -19 369 -19 q 714 45 615 -19 q 869 224 813 110 q 925 479 925 338 q 870 731 925 619 q 718 904 815 842 q 500 967 621 967 m 150 469 q 195 690 150 592 q 321 844 240 789 q 501 900 401 900 q 676 846 599 900 q 797 695 753 792 q 840 478 840 599 q 795 256 840 354 q 670 101 750 157 q 489 46 590 46 q 315 101 392 46 q 194 252 238 156 q 150 469 150 349 m 678 1044 l 533 1240 l 465 1240 l 322 1042 l 388 1028 l 500 1185 l 610 1028 l 678 1044 z "},"Õ":{"ha":990,"x_min":67,"x_max":925,"o":"m 500 967 q 277 901 376 965 q 122 723 178 836 q 67 468 67 610 q 122 217 67 328 q 273 43 176 106 q 492 -19 369 -19 q 714 45 615 -19 q 869 224 813 110 q 925 479 925 338 q 870 731 925 619 q 718 904 815 842 q 500 967 621 967 m 150 469 q 195 690 150 592 q 321 844 240 789 q 501 900 401 900 q 676 846 599 900 q 797 695 753 792 q 840 478 840 599 q 795 256 840 354 q 670 101 750 157 q 489 46 590 46 q 315 101 392 46 q 194 252 238 156 q 150 469 150 349 m 628 1179 q 609 1130 625 1147 q 569 1113 593 1113 q 503 1149 535 1113 q 413 1185 471 1185 q 329 1154 361 1185 q 297 1058 297 1124 l 356 1058 q 374 1108 358 1090 q 414 1126 390 1126 q 486 1090 447 1126 q 569 1053 522 1053 q 653 1083 621 1053 q 685 1179 685 1114 l 628 1179 z "},"Ö":{"ha":990,"x_min":67,"x_max":925,"o":"m 500 967 q 277 901 376 965 q 122 723 178 836 q 67 468 67 610 q 122 217 67 328 q 273 43 176 106 q 492 -19 369 -19 q 714 45 615 -19 q 869 224 813 110 q 925 479 925 338 q 870 731 925 619 q 718 904 815 842 q 500 967 621 967 m 150 469 q 195 690 150 592 q 321 844 240 789 q 501 900 401 900 q 676 846 599 900 q 797 695 753 792 q 840 478 840 599 q 795 256 840 354 q 670 101 750 157 q 489 46 590 46 q 315 101 392 46 q 194 252 238 156 q 150 469 150 349 m 386 1067 q 426 1083 410 1067 q 442 1122 442 1099 q 426 1160 442 1144 q 386 1176 410 1176 q 347 1161 363 1176 q 331 1122 331 1146 q 347 1083 331 1099 q 386 1067 363 1067 m 606 1067 q 645 1083 629 1067 q 661 1122 661 1099 q 645 1160 661 1144 q 606 1176 629 1176 q 565 1161 581 1176 q 550 1122 550 1146 q 565 1083 550 1099 q 606 1067 581 1067 z "},"Ō":{"ha":990,"x_min":67,"x_max":925,"o":"m 500 967 q 277 901 376 965 q 122 723 178 836 q 67 468 67 610 q 122 217 67 328 q 273 43 176 106 q 492 -19 369 -19 q 714 45 615 -19 q 869 224 813 110 q 925 479 925 338 q 870 731 925 619 q 718 904 815 842 q 500 967 621 967 m 150 469 q 195 690 150 592 q 321 844 240 789 q 501 900 401 900 q 676 846 599 900 q 797 695 753 792 q 840 478 840 599 q 795 256 840 354 q 670 101 750 157 q 489 46 590 46 q 315 101 392 46 q 194 252 238 156 q 150 469 150 349 m 658 1157 l 331 1157 l 331 1097 l 665 1097 l 658 1157 z "},"Ő":{"ha":990,"x_min":67,"x_max":925,"o":"m 500 967 q 277 901 376 965 q 122 723 178 836 q 67 468 67 610 q 122 217 67 328 q 273 43 176 106 q 492 -19 369 -19 q 714 45 615 -19 q 869 224 813 110 q 925 479 925 338 q 870 731 925 619 q 718 904 815 842 q 500 967 621 967 m 150 469 q 195 690 150 592 q 321 844 240 789 q 501 900 401 900 q 676 846 599 900 q 797 695 753 792 q 840 478 840 599 q 795 256 840 354 q 670 101 750 157 q 489 46 590 46 q 315 101 392 46 q 194 252 238 156 q 150 469 150 349 m 440 1239 l 364 1043 l 414 1026 l 532 1239 l 440 1239 m 626 1239 l 550 1043 l 599 1026 l 717 1239 l 626 1239 z "},"Ŕ":{"ha":800,"x_min":136,"x_max":786,"o":"m 213 0 l 213 397 l 356 397 q 474 408 414 397 l 700 0 l 786 0 l 540 429 q 665 521 619 460 q 711 675 710 582 q 620 881 711 817 q 371 944 529 944 l 136 944 l 136 0 l 213 0 m 374 881 q 633 672 633 881 q 554 511 632 563 q 358 460 476 460 l 213 460 l 213 881 l 374 881 m 386 1239 l 310 1043 l 360 1026 l 478 1239 l 386 1239 z "},"Ř":{"ha":800,"x_min":136,"x_max":786,"o":"m 213 0 l 213 397 l 356 397 q 474 408 414 397 l 700 0 l 786 0 l 540 429 q 665 521 619 460 q 711 675 710 582 q 620 881 711 817 q 371 944 529 944 l 136 944 l 136 0 l 213 0 m 374 881 q 633 672 633 881 q 554 511 632 563 q 358 460 476 460 l 213 460 l 213 881 l 374 881 m 193 1225 l 338 1026 l 406 1026 l 549 1222 l 483 1239 l 372 1081 l 261 1239 l 193 1225 z "},"Ś":{"ha":703,"x_min":67,"x_max":650,"o":"m 76 40 q 189 0 110 18 q 329 -18 268 -18 q 565 47 481 -18 q 650 219 650 113 q 590 376 650 314 q 397 496 531 438 q 201 609 261 557 q 142 736 142 661 q 201 856 142 810 q 358 903 260 903 q 465 890 422 903 q 558 856 508 878 l 589 913 q 481 951 542 936 q 356 967 421 967 q 203 937 268 967 q 102 856 138 907 q 67 740 67 804 q 130 579 67 647 q 321 457 193 511 q 514 349 454 400 q 574 222 574 297 q 508 97 574 147 q 328 46 443 46 q 203 62 264 46 q 97 100 142 78 l 76 40 m 372 1239 l 296 1043 l 346 1026 l 464 1239 l 372 1239 z "},"Š":{"ha":703,"x_min":67,"x_max":650,"o":"m 76 40 q 189 0 110 18 q 329 -18 268 -18 q 565 47 481 -18 q 650 219 650 113 q 590 376 650 314 q 397 496 531 438 q 201 609 261 557 q 142 736 142 661 q 201 856 142 810 q 358 903 260 903 q 465 890 422 903 q 558 856 508 878 l 589 913 q 481 951 542 936 q 356 967 421 967 q 203 937 268 967 q 102 856 138 907 q 67 740 67 804 q 130 579 67 647 q 321 457 193 511 q 514 349 454 400 q 574 222 574 297 q 508 97 574 147 q 328 46 443 46 q 203 62 264 46 q 97 100 142 78 l 76 40 m 179 1225 l 324 1026 l 392 1026 l 535 1222 l 469 1239 l 358 1081 l 247 1239 l 179 1225 z "},"Ť":{"ha":754,"x_min":14,"x_max":740,"o":"m 14 883 l 338 883 l 338 0 l 415 0 l 415 883 l 740 883 l 733 944 l 14 944 l 14 883 m 200 1225 l 344 1026 l 413 1026 l 556 1222 l 490 1239 l 379 1081 l 268 1239 l 200 1225 z "},"Ù":{"ha":924,"x_min":122,"x_max":801,"o":"m 122 332 q 163 151 122 231 q 281 28 204 72 q 461 -17 357 -17 q 644 28 567 -17 q 761 151 721 72 q 801 332 801 231 l 801 944 l 725 944 l 725 336 q 693 190 725 256 q 601 86 661 124 q 461 49 542 49 q 324 87 383 49 q 231 190 264 125 q 199 336 199 256 l 199 944 l 122 944 l 122 332 m 438 1239 l 346 1239 l 464 1026 l 514 1043 l 438 1239 z "},"Ú":{"ha":924,"x_min":122,"x_max":801,"o":"m 122 332 q 163 151 122 231 q 281 28 204 72 q 461 -17 357 -17 q 644 28 567 -17 q 761 151 721 72 q 801 332 801 231 l 801 944 l 725 944 l 725 336 q 693 190 725 256 q 601 86 661 124 q 461 49 542 49 q 324 87 383 49 q 231 190 264 125 q 199 336 199 256 l 199 944 l 122 944 l 122 332 m 478 1239 l 401 1043 l 451 1026 l 569 1239 l 478 1239 z "},"Û":{"ha":924,"x_min":122,"x_max":801,"o":"m 122 332 q 163 151 122 231 q 281 28 204 72 q 461 -17 357 -17 q 644 28 567 -17 q 761 151 721 72 q 801 332 801 231 l 801 944 l 725 944 l 725 336 q 693 190 725 256 q 601 86 661 124 q 461 49 542 49 q 324 87 383 49 q 231 190 264 125 q 199 336 199 256 l 199 944 l 122 944 l 122 332 m 639 1044 l 494 1240 l 426 1240 l 283 1042 l 349 1028 l 461 1185 l 571 1028 l 639 1044 z "},"Ü":{"ha":924,"x_min":122,"x_max":801,"o":"m 122 332 q 163 151 122 231 q 281 28 204 72 q 461 -17 357 -17 q 644 28 567 -17 q 761 151 721 72 q 801 332 801 231 l 801 944 l 725 944 l 725 336 q 693 190 725 256 q 601 86 661 124 q 461 49 542 49 q 324 87 383 49 q 231 190 264 125 q 199 336 199 256 l 199 944 l 122 944 l 122 332 m 347 1067 q 387 1083 371 1067 q 403 1122 403 1099 q 387 1160 403 1144 q 347 1176 371 1176 q 308 1161 324 1176 q 292 1122 292 1146 q 308 1083 292 1099 q 347 1067 324 1067 m 567 1067 q 606 1083 590 1067 q 622 1122 622 1099 q 606 1160 622 1144 q 567 1176 590 1176 q 526 1161 542 1176 q 511 1122 511 1146 q 526 1083 511 1099 q 567 1067 542 1067 z "},"Ū":{"ha":924,"x_min":122,"x_max":801,"o":"m 122 332 q 163 151 122 231 q 281 28 204 72 q 461 -17 357 -17 q 644 28 567 -17 q 761 151 721 72 q 801 332 801 231 l 801 944 l 725 944 l 725 336 q 693 190 725 256 q 601 86 661 124 q 461 49 542 49 q 324 87 383 49 q 231 190 264 125 q 199 336 199 256 l 199 944 l 122 944 l 122 332 m 619 1157 l 292 1157 l 292 1097 l 626 1097 l 619 1157 z "},"Ů":{"ha":924,"x_min":122,"x_max":801,"o":"m 122 332 q 163 151 122 231 q 281 28 204 72 q 461 -17 357 -17 q 644 28 567 -17 q 761 151 721 72 q 801 332 801 231 l 801 944 l 725 944 l 725 336 q 693 190 725 256 q 601 86 661 124 q 461 49 542 49 q 324 87 383 49 q 231 190 264 125 q 199 336 199 256 l 199 944 l 122 944 l 122 332 m 461 1263 q 374 1229 411 1263 q 338 1146 338 1196 q 374 1065 338 1097 q 461 1033 410 1033 q 548 1065 513 1033 q 583 1146 583 1097 q 547 1229 583 1196 q 461 1263 511 1263 m 461 1081 q 415 1099 433 1081 q 396 1146 396 1118 q 415 1194 396 1175 q 461 1214 433 1214 q 508 1194 489 1214 q 526 1146 526 1175 q 508 1099 526 1118 q 461 1081 489 1081 z "},"Ű":{"ha":924,"x_min":122,"x_max":801,"o":"m 122 332 q 163 151 122 231 q 281 28 204 72 q 461 -17 357 -17 q 644 28 567 -17 q 761 151 721 72 q 801 332 801 231 l 801 944 l 725 944 l 725 336 q 693 190 725 256 q 601 86 661 124 q 461 49 542 49 q 324 87 383 49 q 231 190 264 125 q 199 336 199 256 l 199 944 l 122 944 l 122 332 m 401 1239 l 325 1043 l 375 1026 l 493 1239 l 401 1239 m 588 1239 l 511 1043 l 560 1026 l 678 1239 l 588 1239 z "},"Ų":{"ha":924,"x_min":122,"x_max":801,"o":"m 801 332 q 763 155 801 233 q 649 31 724 76 q 474 -17 575 -14 q 413 -153 413 -75 q 438 -210 413 -190 q 493 -231 463 -231 q 569 -201 533 -231 l 600 -246 q 552 -276 582 -264 q 489 -287 522 -287 q 385 -250 426 -287 q 343 -154 343 -212 q 362 -83 343 -121 q 411 -14 381 -46 q 199 97 276 3 q 122 332 122 192 l 122 944 l 199 944 l 199 336 q 231 190 199 256 q 324 87 264 125 q 461 49 383 49 q 601 86 542 49 q 693 190 661 124 q 725 336 725 256 l 725 944 l 801 944 l 801 332 z "},"Ý":{"ha":746,"x_min":14,"x_max":732,"o":"m 732 944 l 647 944 l 364 456 l 86 961 l 14 925 l 326 378 l 326 0 l 403 0 l 403 386 l 732 944 m 381 1239 l 304 1043 l 354 1026 l 472 1239 l 381 1239 z "},"Ÿ":{"ha":746,"x_min":14,"x_max":732,"o":"m 732 944 l 647 944 l 364 456 l 86 961 l 14 925 l 326 378 l 326 0 l 403 0 l 403 386 l 732 944 m 250 1067 q 290 1083 274 1067 q 306 1122 306 1099 q 290 1160 306 1144 q 250 1176 274 1176 q 210 1161 226 1176 q 194 1122 194 1146 q 210 1083 194 1099 q 250 1067 226 1067 m 469 1067 q 509 1083 493 1067 q 525 1122 525 1099 q 509 1160 525 1144 q 469 1176 493 1176 q 429 1161 444 1176 q 414 1122 414 1146 q 429 1083 414 1099 q 469 1067 444 1067 z "},"Ź":{"ha":761,"x_min":39,"x_max":724,"o":"m 724 876 l 717 944 l 68 944 l 82 883 l 646 883 l 39 69 l 47 0 l 710 0 l 703 61 l 119 61 l 724 876 m 400 1239 l 324 1043 l 374 1026 l 492 1239 l 400 1239 z "},"Ż":{"ha":761,"x_min":39,"x_max":724,"o":"m 724 876 l 717 944 l 68 944 l 82 883 l 646 883 l 39 69 l 47 0 l 710 0 l 703 61 l 119 61 l 724 876 m 382 1067 q 423 1084 406 1067 q 440 1126 440 1101 q 423 1167 440 1150 q 382 1185 406 1185 q 340 1167 357 1185 q 322 1126 322 1150 q 339 1084 322 1101 q 382 1067 356 1067 z "},"Ž":{"ha":761,"x_min":39,"x_max":724,"o":"m 724 876 l 717 944 l 68 944 l 82 883 l 646 883 l 39 69 l 47 0 l 710 0 l 703 61 l 119 61 l 724 876 m 207 1225 l 351 1026 l 419 1026 l 563 1222 l 497 1239 l 386 1081 l 275 1239 l 207 1225 z "},"Ş":{"ha":703,"x_min":67,"x_max":650,"o":"m 650 219 q 572 53 650 118 q 356 -18 494 -12 l 333 -72 q 419 -115 386 -82 q 453 -186 453 -149 q 410 -275 453 -243 q 300 -307 367 -307 q 242 -299 274 -307 q 194 -281 211 -292 l 215 -231 q 297 -250 263 -250 q 360 -233 333 -250 q 386 -189 386 -215 q 349 -135 386 -158 q 256 -110 313 -111 l 292 -17 q 167 5 231 -11 q 76 40 104 21 l 97 100 q 203 62 142 78 q 328 46 264 46 q 508 97 443 46 q 574 222 574 147 q 514 349 574 297 q 321 457 454 400 q 130 579 193 511 q 67 740 67 647 q 102 856 67 804 q 203 937 138 907 q 356 967 268 967 q 481 951 421 967 q 589 913 542 936 l 558 856 q 465 890 508 878 q 358 903 422 903 q 201 856 260 903 q 142 736 142 810 q 201 609 142 661 q 397 496 261 557 q 590 376 531 438 q 650 219 650 314 z "},"Ţ":{"ha":754,"x_min":14,"x_max":740,"o":"m 382 -72 q 468 -115 435 -82 q 501 -186 501 -149 q 458 -275 501 -243 q 349 -307 415 -307 q 291 -299 322 -307 q 243 -281 260 -292 l 264 -231 q 346 -250 311 -250 q 408 -233 382 -250 q 435 -189 435 -215 q 398 -135 435 -158 q 304 -110 361 -111 l 346 0 l 338 0 l 338 883 l 14 883 l 14 944 l 733 944 l 740 883 l 415 883 l 415 18 l 418 18 l 415 11 l 415 0 l 411 0 l 382 -72 z "},"Ș":{"ha":703,"x_min":67,"x_max":650,"o":"m 76 40 q 189 0 110 18 q 329 -18 268 -18 q 565 47 481 -18 q 650 219 650 113 q 590 376 650 314 q 397 496 531 438 q 201 609 261 557 q 142 736 142 661 q 201 856 142 810 q 358 903 260 903 q 465 890 422 903 q 558 856 508 878 l 589 913 q 481 951 542 936 q 356 967 421 967 q 203 937 268 967 q 102 856 138 907 q 67 740 67 804 q 130 579 67 647 q 321 457 193 511 q 514 349 454 400 q 574 222 574 297 q 508 97 574 147 q 328 46 443 46 q 203 62 264 46 q 97 100 142 78 l 76 40 m 332 -29 q 290 -47 307 -29 q 272 -89 272 -64 q 288 -128 272 -110 q 326 -147 303 -146 q 244 -260 325 -212 l 268 -297 q 358 -215 324 -271 q 392 -96 392 -160 q 374 -49 392 -68 q 332 -29 357 -29 z "},"à":{"ha":665,"x_min":72,"x_max":576,"o":"m 146 581 q 237 617 197 606 q 339 628 276 628 q 459 584 418 628 q 500 467 500 540 l 500 390 l 313 390 q 139 337 206 390 q 72 189 72 283 q 131 40 72 97 q 299 -18 189 -18 q 413 8 357 -18 q 504 72 469 33 l 515 0 l 576 0 l 576 472 q 513 632 576 572 q 335 692 449 692 q 222 675 289 692 q 119 633 156 658 l 146 581 m 150 189 q 192 294 150 253 q 314 336 235 336 l 500 336 l 500 157 q 413 76 464 107 q 300 46 361 46 q 190 88 229 46 q 150 189 150 129 m 317 1031 l 225 1031 l 343 818 l 393 835 l 317 1031 z "},"á":{"ha":665,"x_min":72,"x_max":576,"o":"m 146 581 q 237 617 197 606 q 339 628 276 628 q 459 584 418 628 q 500 467 500 540 l 500 390 l 313 390 q 139 337 206 390 q 72 189 72 283 q 131 40 72 97 q 299 -18 189 -18 q 413 8 357 -18 q 504 72 469 33 l 515 0 l 576 0 l 576 472 q 513 632 576 572 q 335 692 449 692 q 222 675 289 692 q 119 633 156 658 l 146 581 m 150 189 q 192 294 150 253 q 314 336 235 336 l 500 336 l 500 157 q 413 76 464 107 q 300 46 361 46 q 190 88 229 46 q 150 189 150 129 m 353 1031 l 276 835 l 326 818 l 444 1031 l 353 1031 z "},"â":{"ha":665,"x_min":72,"x_max":576,"o":"m 146 581 q 237 617 197 606 q 339 628 276 628 q 459 584 418 628 q 500 467 500 540 l 500 390 l 313 390 q 139 337 206 390 q 72 189 72 283 q 131 40 72 97 q 299 -18 189 -18 q 413 8 357 -18 q 504 72 469 33 l 515 0 l 576 0 l 576 472 q 513 632 576 572 q 335 692 449 692 q 222 675 289 692 q 119 633 156 658 l 146 581 m 150 189 q 192 294 150 253 q 314 336 235 336 l 500 336 l 500 157 q 413 76 464 107 q 300 46 361 46 q 190 88 229 46 q 150 189 150 129 m 522 835 l 378 1031 l 310 1031 l 167 832 l 232 818 l 344 976 l 454 818 l 522 835 z "},"ã":{"ha":665,"x_min":72,"x_max":576,"o":"m 146 581 q 237 617 197 606 q 339 628 276 628 q 459 584 418 628 q 500 467 500 540 l 500 390 l 313 390 q 139 337 206 390 q 72 189 72 283 q 131 40 72 97 q 299 -18 189 -18 q 413 8 357 -18 q 504 72 469 33 l 515 0 l 576 0 l 576 472 q 513 632 576 572 q 335 692 449 692 q 222 675 289 692 q 119 633 156 658 l 146 581 m 150 189 q 192 294 150 253 q 314 336 235 336 l 500 336 l 500 157 q 413 76 464 107 q 300 46 361 46 q 190 88 229 46 q 150 189 150 129 m 467 971 q 448 922 464 939 q 408 904 432 904 q 342 940 374 904 q 251 976 310 976 q 168 946 200 976 q 136 850 136 915 l 194 850 q 213 900 197 882 q 253 918 229 918 q 325 882 286 918 q 408 844 361 844 q 492 875 460 844 q 524 971 524 906 l 467 971 z "},"ä":{"ha":665,"x_min":72,"x_max":576,"o":"m 146 581 q 237 617 197 606 q 339 628 276 628 q 459 584 418 628 q 500 467 500 540 l 500 390 l 313 390 q 139 337 206 390 q 72 189 72 283 q 131 40 72 97 q 299 -18 189 -18 q 413 8 357 -18 q 504 72 469 33 l 515 0 l 576 0 l 576 472 q 513 632 576 572 q 335 692 449 692 q 222 675 289 692 q 119 633 156 658 l 146 581 m 150 189 q 192 294 150 253 q 314 336 235 336 l 500 336 l 500 157 q 413 76 464 107 q 300 46 361 46 q 190 88 229 46 q 150 189 150 129 m 231 858 q 270 874 254 858 q 286 914 286 890 q 270 952 286 936 q 231 968 254 968 q 191 953 207 968 q 175 914 175 938 q 191 874 175 890 q 231 858 207 858 m 450 858 q 490 874 474 858 q 506 914 506 890 q 490 952 506 936 q 450 968 474 968 q 410 953 425 968 q 394 914 394 938 q 410 874 394 890 q 450 858 425 858 z "},"å":{"ha":665,"x_min":72,"x_max":576,"o":"m 146 581 q 237 617 197 606 q 339 628 276 628 q 459 584 418 628 q 500 467 500 540 l 500 390 l 313 390 q 139 337 206 390 q 72 189 72 283 q 131 40 72 97 q 299 -18 189 -18 q 413 8 357 -18 q 504 72 469 33 l 515 0 l 576 0 l 576 472 q 513 632 576 572 q 335 692 449 692 q 222 675 289 692 q 119 633 156 658 l 146 581 m 150 189 q 192 294 150 253 q 314 336 235 336 l 500 336 l 500 157 q 413 76 464 107 q 300 46 361 46 q 190 88 229 46 q 150 189 150 129 m 339 1054 q 252 1021 289 1054 q 215 938 215 988 q 251 857 215 889 q 339 825 288 825 q 426 857 390 825 q 461 938 461 889 q 425 1021 461 988 q 339 1054 389 1054 m 339 872 q 292 891 311 872 q 274 938 274 910 q 292 986 274 967 q 339 1006 311 1006 q 385 986 367 1006 q 404 938 404 967 q 385 891 404 910 q 339 872 367 872 z "},"ā":{"ha":665,"x_min":72,"x_max":576,"o":"m 146 581 q 237 617 197 606 q 339 628 276 628 q 459 584 418 628 q 500 467 500 540 l 500 390 l 313 390 q 139 337 206 390 q 72 189 72 283 q 131 40 72 97 q 299 -18 189 -18 q 413 8 357 -18 q 504 72 469 33 l 515 0 l 576 0 l 576 472 q 513 632 576 572 q 335 692 449 692 q 222 675 289 692 q 119 633 156 658 l 146 581 m 150 189 q 192 294 150 253 q 314 336 235 336 l 500 336 l 500 157 q 413 76 464 107 q 300 46 361 46 q 190 88 229 46 q 150 189 150 129 m 492 949 l 165 949 l 165 889 l 500 889 l 492 949 z "},"ă":{"ha":665,"x_min":72,"x_max":576,"o":"m 146 581 q 237 617 197 606 q 339 628 276 628 q 459 584 418 628 q 500 467 500 540 l 500 390 l 313 390 q 139 337 206 390 q 72 189 72 283 q 131 40 72 97 q 299 -18 189 -18 q 413 8 357 -18 q 504 72 469 33 l 515 0 l 576 0 l 576 472 q 513 632 576 572 q 335 692 449 692 q 222 675 289 692 q 119 633 156 658 l 146 581 m 150 189 q 192 294 150 253 q 314 336 235 336 l 500 336 l 500 157 q 413 76 464 107 q 300 46 361 46 q 190 88 229 46 q 150 189 150 129 m 453 1015 q 420 931 453 967 q 333 894 388 894 q 245 931 278 894 q 213 1015 213 968 l 153 1015 q 200 888 153 940 q 333 835 247 835 q 467 888 421 835 q 514 1015 514 940 l 453 1015 z "},"ą":{"ha":665,"x_min":72,"x_max":688,"o":"m 688 -246 q 640 -276 669 -264 q 576 -287 610 -287 q 472 -250 514 -287 q 431 -154 431 -212 q 454 -73 431 -117 q 515 1 478 -29 l 504 72 q 413 8 469 33 q 299 -18 357 -18 q 131 40 189 -18 q 72 189 72 97 q 139 337 72 283 q 313 390 206 390 l 500 390 l 500 467 q 459 584 500 540 q 339 628 418 628 q 237 617 276 628 q 146 581 197 606 l 119 633 q 222 675 156 658 q 335 692 289 692 q 513 632 449 692 q 576 472 576 572 l 576 0 l 579 0 q 521 -70 542 -31 q 500 -153 500 -110 q 525 -210 500 -190 q 581 -231 550 -231 q 657 -201 621 -231 l 688 -246 m 314 336 q 192 294 235 336 q 150 189 150 253 q 190 88 150 129 q 300 46 229 46 q 413 76 361 46 q 500 157 464 107 l 500 336 l 314 336 z "},"ç":{"ha":625,"x_min":53,"x_max":578,"o":"m 571 39 q 485 3 538 18 q 388 -17 433 -12 l 365 -72 q 451 -115 418 -82 q 485 -186 485 -149 q 442 -275 485 -243 q 332 -307 399 -307 q 274 -299 306 -307 q 226 -281 243 -292 l 247 -231 q 329 -250 294 -250 q 392 -233 365 -250 q 418 -189 418 -215 q 381 -135 418 -158 q 288 -110 344 -111 l 324 -17 q 124 94 194 -3 q 53 340 53 190 q 91 522 53 442 q 201 647 129 601 q 371 692 274 692 q 476 675 414 692 q 578 633 539 658 l 550 581 q 464 616 500 604 q 368 628 428 628 q 242 590 296 628 q 160 486 189 551 q 131 342 132 421 q 191 129 131 213 q 361 46 251 46 q 437 52 406 46 q 494 69 468 58 q 543 93 519 81 l 571 39 z "},"ć":{"ha":625,"x_min":53,"x_max":578,"o":"m 543 93 q 506 75 536 90 q 441 53 476 60 q 361 46 406 46 q 191 129 251 46 q 131 342 131 213 q 160 486 132 421 q 242 590 189 551 q 368 628 296 628 q 464 616 428 628 q 550 581 500 604 l 578 633 q 476 675 539 658 q 371 692 414 692 q 201 647 274 692 q 91 522 129 601 q 53 340 53 442 q 134 81 53 179 q 361 -18 215 -18 q 469 -2 407 -18 q 571 39 531 14 l 543 93 m 368 1031 l 292 835 l 342 818 l 460 1031 l 368 1031 z "},"č":{"ha":625,"x_min":53,"x_max":578,"o":"m 543 93 q 506 75 536 90 q 441 53 476 60 q 361 46 406 46 q 191 129 251 46 q 131 342 131 213 q 160 486 132 421 q 242 590 189 551 q 368 628 296 628 q 464 616 428 628 q 550 581 500 604 l 578 633 q 476 675 539 658 q 371 692 414 692 q 201 647 274 692 q 91 522 129 601 q 53 340 53 442 q 134 81 53 179 q 361 -18 215 -18 q 469 -2 407 -18 q 571 39 531 14 l 543 93 m 174 1017 l 318 818 l 386 818 l 529 1014 l 464 1031 l 353 872 l 242 1031 l 174 1017 z "},"ď":{"ha":890,"x_min":53,"x_max":849,"o":"m 606 979 l 606 0 l 560 0 l 539 58 q 350 -18 456 -18 q 129 79 206 -18 q 53 339 53 176 q 88 520 53 440 q 192 646 124 600 q 358 692 261 692 q 529 628 442 692 l 529 967 l 606 979 m 789 975 q 831 955 814 975 q 849 907 849 935 q 815 790 849 844 q 725 707 781 735 l 701 744 q 783 856 779 790 q 744 876 760 857 q 729 915 729 894 q 746 957 729 939 q 789 975 763 975 m 350 46 q 449 67 407 46 q 529 129 490 89 l 529 556 q 449 608 490 589 q 354 628 408 628 q 190 547 247 628 q 131 340 132 465 q 186 128 131 210 q 350 46 242 46 z "},"è":{"ha":675,"x_min":53,"x_max":622,"o":"m 622 335 q 551 593 622 494 q 351 692 481 692 q 130 594 207 692 q 53 340 53 497 q 135 78 53 175 q 382 -18 217 -18 q 501 -2 440 -18 q 607 40 561 14 l 579 97 q 482 58 529 72 q 374 44 435 44 q 192 124 251 44 q 131 335 132 204 l 622 335 m 133 389 q 197 561 143 494 q 344 628 250 628 q 486 563 439 628 q 543 389 533 497 l 133 389 m 328 1031 l 236 1031 l 354 818 l 404 835 l 328 1031 z "},"é":{"ha":675,"x_min":53,"x_max":622,"o":"m 622 335 q 551 593 622 494 q 351 692 481 692 q 130 594 207 692 q 53 340 53 497 q 135 78 53 175 q 382 -18 217 -18 q 501 -2 440 -18 q 607 40 561 14 l 579 97 q 482 58 529 72 q 374 44 435 44 q 192 124 251 44 q 131 335 132 204 l 622 335 m 133 389 q 197 561 143 494 q 344 628 250 628 q 486 563 439 628 q 543 389 533 497 l 133 389 m 364 1031 l 288 835 l 338 818 l 456 1031 l 364 1031 z "},"ê":{"ha":675,"x_min":53,"x_max":622,"o":"m 622 335 q 551 593 622 494 q 351 692 481 692 q 130 594 207 692 q 53 340 53 497 q 135 78 53 175 q 382 -18 217 -18 q 501 -2 440 -18 q 607 40 561 14 l 579 97 q 482 58 529 72 q 374 44 435 44 q 192 124 251 44 q 131 335 132 204 l 622 335 m 133 389 q 197 561 143 494 q 344 628 250 628 q 486 563 439 628 q 543 389 533 497 l 133 389 m 533 835 l 389 1031 l 321 1031 l 178 832 l 243 818 l 356 976 l 465 818 l 533 835 z "},"ë":{"ha":675,"x_min":53,"x_max":622,"o":"m 622 335 q 551 593 622 494 q 351 692 481 692 q 130 594 207 692 q 53 340 53 497 q 135 78 53 175 q 382 -18 217 -18 q 501 -2 440 -18 q 607 40 561 14 l 579 97 q 482 58 529 72 q 374 44 435 44 q 192 124 251 44 q 131 335 132 204 l 622 335 m 133 389 q 197 561 143 494 q 344 628 250 628 q 486 563 439 628 q 543 389 533 497 l 133 389 m 240 858 q 280 874 264 858 q 296 914 296 890 q 280 952 296 936 q 240 968 264 968 q 201 953 217 968 q 185 914 185 938 q 201 874 185 890 q 240 858 217 858 m 460 858 q 499 874 483 858 q 515 914 515 890 q 499 952 515 936 q 460 968 483 968 q 419 953 435 968 q 404 914 404 938 q 419 874 404 890 q 460 858 435 858 z "},"ē":{"ha":675,"x_min":53,"x_max":622,"o":"m 622 335 q 551 593 622 494 q 351 692 481 692 q 130 594 207 692 q 53 340 53 497 q 135 78 53 175 q 382 -18 217 -18 q 501 -2 440 -18 q 607 40 561 14 l 579 97 q 482 58 529 72 q 374 44 435 44 q 192 124 251 44 q 131 335 132 204 l 622 335 m 133 389 q 197 561 143 494 q 344 628 250 628 q 486 563 439 628 q 543 389 533 497 l 133 389 m 503 949 l 176 949 l 176 889 l 511 889 l 503 949 z "},"ė":{"ha":675,"x_min":53,"x_max":622,"o":"m 622 335 q 551 593 622 494 q 351 692 481 692 q 130 594 207 692 q 53 340 53 497 q 135 78 53 175 q 382 -18 217 -18 q 501 -2 440 -18 q 607 40 561 14 l 579 97 q 482 58 529 72 q 374 44 435 44 q 192 124 251 44 q 131 335 132 204 l 622 335 m 133 389 q 197 561 143 494 q 344 628 250 628 q 486 563 439 628 q 543 389 533 497 l 133 389 m 349 858 q 390 876 372 858 q 407 918 407 893 q 390 959 407 942 q 349 976 372 976 q 306 959 324 976 q 289 918 289 942 q 306 876 289 893 q 349 858 322 858 z "},"ę":{"ha":675,"x_min":53,"x_max":622,"o":"m 485 -6 q 413 -153 413 -69 q 438 -210 413 -190 q 493 -231 463 -231 q 569 -201 533 -231 l 600 -246 q 552 -276 582 -264 q 489 -287 522 -287 q 385 -250 426 -287 q 343 -154 343 -212 q 360 -85 343 -122 q 407 -17 378 -49 l 382 -18 q 135 78 217 -18 q 53 340 53 175 q 130 594 53 497 q 351 692 207 692 q 551 593 481 692 q 622 335 622 494 l 131 335 q 192 124 132 204 q 374 44 251 44 q 482 58 435 44 q 579 97 529 72 l 607 40 q 485 -6 551 8 m 344 628 q 197 561 250 628 q 133 389 143 494 l 543 389 q 486 563 533 497 q 344 628 439 628 z "},"ě":{"ha":675,"x_min":53,"x_max":622,"o":"m 622 335 q 551 593 622 494 q 351 692 481 692 q 130 594 207 692 q 53 340 53 497 q 135 78 53 175 q 382 -18 217 -18 q 501 -2 440 -18 q 607 40 561 14 l 579 97 q 482 58 529 72 q 374 44 435 44 q 192 124 251 44 q 131 335 132 204 l 622 335 m 133 389 q 197 561 143 494 q 344 628 250 628 q 486 563 439 628 q 543 389 533 497 l 133 389 m 169 1017 l 314 818 l 382 818 l 525 1014 l 460 1031 l 349 872 l 238 1031 l 169 1017 z "},"ğ":{"ha":708,"x_min":53,"x_max":606,"o":"m 606 -86 q 533 -254 606 -189 q 331 -319 460 -319 q 212 -303 285 -319 q 101 -262 139 -286 l 128 -207 q 222 -242 178 -231 q 328 -256 267 -254 q 473 -214 417 -256 q 529 -93 529 -172 l 529 49 q 350 -18 449 -18 q 129 79 206 -18 q 53 339 53 176 q 88 520 53 440 q 192 646 124 600 q 358 692 261 692 q 542 619 447 692 l 560 674 l 606 674 l 606 -86 m 350 46 q 449 67 407 46 q 529 129 490 89 l 529 556 q 449 608 490 589 q 354 628 408 628 q 190 547 247 628 q 131 340 132 465 q 186 128 131 210 q 350 46 242 46 m 467 1015 q 434 931 467 967 q 347 894 401 894 q 259 931 292 894 q 226 1015 226 968 l 167 1015 q 214 888 167 940 q 347 835 261 835 q 481 888 435 835 q 528 1015 528 940 l 467 1015 z "},"ì":{"ha":265,"x_min":21,"x_max":189,"o":"m 94 674 l 94 0 l 171 0 l 171 674 l 94 674 m 113 1031 l 21 1031 l 139 818 l 189 835 l 113 1031 z "},"í":{"ha":265,"x_min":72,"x_max":240,"o":"m 94 674 l 94 0 l 171 0 l 171 674 l 94 674 m 149 1031 l 72 835 l 122 818 l 240 1031 l 149 1031 z "},"î":{"ha":265,"x_min":-37,"x_max":318,"o":"m 94 674 l 94 0 l 171 0 l 171 674 l 94 674 m 318 835 l 174 1031 l 106 1031 l -37 832 l 28 818 l 140 976 l 250 818 l 318 835 z "},"ï":{"ha":265,"x_min":-31,"x_max":300,"o":"m 94 674 l 94 0 l 171 0 l 171 674 l 94 674 m 25 858 q 65 874 49 858 q 81 914 81 890 q 65 952 81 936 q 25 968 49 968 q -15 953 1 968 q -31 914 -31 938 q -15 874 -31 890 q 25 858 1 858 m 244 858 q 284 874 268 858 q 300 914 300 890 q 284 952 300 936 q 244 968 268 968 q 204 953 219 968 q 189 914 189 938 q 204 874 189 890 q 244 858 219 858 z "},"ī":{"ha":265,"x_min":-39,"x_max":296,"o":"m 94 674 l 94 0 l 171 0 l 171 674 l 94 674 m 288 949 l -39 949 l -39 889 l 296 889 l 288 949 z "},"į":{"ha":265,"x_min":14,"x_max":271,"o":"m 133 858 q 90 876 107 858 q 74 918 74 893 q 91 959 74 942 q 133 976 108 976 q 174 959 157 976 q 192 918 192 942 q 174 876 192 893 q 133 858 157 858 m 271 -246 q 223 -276 253 -264 q 160 -287 193 -287 q 56 -250 97 -287 q 14 -154 14 -212 q 37 -75 14 -118 q 96 0 60 -32 l 94 0 l 94 674 l 171 674 l 171 0 l 163 0 q 104 -70 125 -31 q 83 -153 83 -110 q 108 -210 83 -190 q 164 -231 133 -231 q 240 -201 204 -231 l 271 -246 z "},"ľ":{"ha":469,"x_min":108,"x_max":428,"o":"m 108 967 l 108 0 l 185 0 l 185 981 l 108 967 m 368 975 q 325 957 342 975 q 308 915 308 939 q 323 876 308 894 q 363 856 338 857 q 281 744 358 792 l 304 707 q 394 790 360 735 q 428 907 428 844 q 410 955 428 935 q 368 975 393 975 z "},"ñ":{"ha":704,"x_min":94,"x_max":617,"o":"m 171 490 q 290 589 225 551 q 411 626 356 626 q 540 460 540 626 l 540 0 l 617 0 l 617 468 q 567 631 617 571 q 413 692 517 692 q 282 656 351 692 q 169 569 213 621 l 156 674 l 94 674 l 94 0 l 171 0 l 171 490 m 494 971 q 476 922 492 939 q 436 904 460 904 q 369 940 401 904 q 279 976 338 976 q 196 946 228 976 q 164 850 164 915 l 222 850 q 241 900 225 882 q 281 918 257 918 q 353 882 314 918 q 436 844 389 844 q 519 875 488 844 q 551 971 551 906 l 494 971 z "},"ń":{"ha":704,"x_min":94,"x_max":617,"o":"m 171 490 q 290 589 225 551 q 411 626 356 626 q 540 460 540 626 l 540 0 l 617 0 l 617 468 q 567 631 617 571 q 413 692 517 692 q 282 656 351 692 q 169 569 213 621 l 156 674 l 94 674 l 94 0 l 171 0 l 171 490 m 381 1031 l 304 835 l 354 818 l 472 1031 l 381 1031 z "},"ň":{"ha":704,"x_min":94,"x_max":617,"o":"m 171 490 q 290 589 225 551 q 411 626 356 626 q 540 460 540 626 l 540 0 l 617 0 l 617 468 q 567 631 617 571 q 413 692 517 692 q 282 656 351 692 q 169 569 213 621 l 156 674 l 94 674 l 94 0 l 171 0 l 171 490 m 188 1017 l 332 818 l 400 818 l 543 1014 l 478 1031 l 367 872 l 256 1031 l 188 1017 z "},"ò":{"ha":729,"x_min":53,"x_max":676,"o":"m 676 333 q 638 153 676 233 q 528 28 600 74 q 360 -18 457 -18 q 133 81 214 -18 q 53 340 53 179 q 91 520 53 440 q 201 646 129 600 q 369 692 272 692 q 597 594 517 690 q 676 333 676 497 m 361 46 q 487 84 433 46 q 569 188 540 122 q 599 332 597 253 q 538 544 599 461 q 368 628 478 628 q 242 590 296 628 q 160 486 189 551 q 131 342 132 421 q 191 129 131 213 q 361 46 251 46 m 346 1031 l 254 1031 l 372 818 l 422 835 l 346 1031 z "},"ó":{"ha":729,"x_min":53,"x_max":676,"o":"m 676 333 q 638 153 676 233 q 528 28 600 74 q 360 -18 457 -18 q 133 81 214 -18 q 53 340 53 179 q 91 520 53 440 q 201 646 129 600 q 369 692 272 692 q 597 594 517 690 q 676 333 676 497 m 361 46 q 487 84 433 46 q 569 188 540 122 q 599 332 597 253 q 538 544 599 461 q 368 628 478 628 q 242 590 296 628 q 160 486 189 551 q 131 342 132 421 q 191 129 131 213 q 361 46 251 46 m 382 1031 l 306 835 l 356 818 l 474 1031 l 382 1031 z "},"ô":{"ha":729,"x_min":53,"x_max":676,"o":"m 676 333 q 638 153 676 233 q 528 28 600 74 q 360 -18 457 -18 q 133 81 214 -18 q 53 340 53 179 q 91 520 53 440 q 201 646 129 600 q 369 692 272 692 q 597 594 517 690 q 676 333 676 497 m 361 46 q 487 84 433 46 q 569 188 540 122 q 599 332 597 253 q 538 544 599 461 q 368 628 478 628 q 242 590 296 628 q 160 486 189 551 q 131 342 132 421 q 191 129 131 213 q 361 46 251 46 m 551 835 l 407 1031 l 339 1031 l 196 832 l 261 818 l 374 976 l 483 818 l 551 835 z "},"õ":{"ha":729,"x_min":53,"x_max":676,"o":"m 676 333 q 638 153 676 233 q 528 28 600 74 q 360 -18 457 -18 q 133 81 214 -18 q 53 340 53 179 q 91 520 53 440 q 201 646 129 600 q 369 692 272 692 q 597 594 517 690 q 676 333 676 497 m 361 46 q 487 84 433 46 q 569 188 540 122 q 599 332 597 253 q 538 544 599 461 q 368 628 478 628 q 242 590 296 628 q 160 486 189 551 q 131 342 132 421 q 191 129 131 213 q 361 46 251 46 m 496 971 q 477 922 493 939 q 438 904 461 904 q 371 940 403 904 q 281 976 339 976 q 197 946 229 976 q 165 850 165 915 l 224 850 q 242 900 226 882 q 282 918 258 918 q 354 882 315 918 q 438 844 390 844 q 521 875 489 844 q 553 971 553 906 l 496 971 z "},"ö":{"ha":729,"x_min":53,"x_max":676,"o":"m 676 333 q 638 153 676 233 q 528 28 600 74 q 360 -18 457 -18 q 133 81 214 -18 q 53 340 53 179 q 91 520 53 440 q 201 646 129 600 q 369 692 272 692 q 597 594 517 690 q 676 333 676 497 m 361 46 q 487 84 433 46 q 569 188 540 122 q 599 332 597 253 q 538 544 599 461 q 368 628 478 628 q 242 590 296 628 q 160 486 189 551 q 131 342 132 421 q 191 129 131 213 q 361 46 251 46 m 258 858 q 298 874 282 858 q 314 914 314 890 q 298 952 314 936 q 258 968 282 968 q 219 953 235 968 q 203 914 203 938 q 219 874 203 890 q 258 858 235 858 m 478 858 q 517 874 501 858 q 533 914 533 890 q 517 952 533 936 q 478 968 501 968 q 438 953 453 968 q 422 914 422 938 q 438 874 422 890 q 478 858 453 858 z "},"ō":{"ha":729,"x_min":53,"x_max":676,"o":"m 676 333 q 638 153 676 233 q 528 28 600 74 q 360 -18 457 -18 q 133 81 214 -18 q 53 340 53 179 q 91 520 53 440 q 201 646 129 600 q 369 692 272 692 q 597 594 517 690 q 676 333 676 497 m 361 46 q 487 84 433 46 q 569 188 540 122 q 599 332 597 253 q 538 544 599 461 q 368 628 478 628 q 242 590 296 628 q 160 486 189 551 q 131 342 132 421 q 191 129 131 213 q 361 46 251 46 m 521 949 l 194 949 l 194 889 l 529 889 l 521 949 z "},"ő":{"ha":729,"x_min":53,"x_max":676,"o":"m 676 333 q 638 153 676 233 q 528 28 600 74 q 360 -18 457 -18 q 133 81 214 -18 q 53 340 53 179 q 91 520 53 440 q 201 646 129 600 q 369 692 272 692 q 597 594 517 690 q 676 333 676 497 m 361 46 q 487 84 433 46 q 569 188 540 122 q 599 332 597 253 q 538 544 599 461 q 368 628 478 628 q 242 590 296 628 q 160 486 189 551 q 131 342 132 421 q 191 129 131 213 q 361 46 251 46 m 310 1031 l 233 835 l 283 818 l 401 1031 l 310 1031 m 496 1031 l 419 835 l 468 818 l 586 1031 l 496 1031 z "},"ŕ":{"ha":425,"x_min":94,"x_max":411,"o":"m 171 489 q 283 575 214 536 q 411 614 351 614 l 388 674 q 277 640 340 674 q 167 567 214 606 l 142 674 l 94 674 l 94 0 l 171 0 l 171 489 m 229 1031 l 153 835 l 203 818 l 321 1031 l 229 1031 z "},"ř":{"ha":425,"x_min":36,"x_max":411,"o":"m 171 489 q 283 575 214 536 q 411 614 351 614 l 388 674 q 277 640 340 674 q 167 567 214 606 l 142 674 l 94 674 l 94 0 l 171 0 l 171 489 m 36 1017 l 181 818 l 249 818 l 392 1014 l 326 1031 l 215 872 l 104 1031 l 36 1017 z "},"ś":{"ha":572,"x_min":58,"x_max":519,"o":"m 58 35 q 156 -3 94 11 q 264 -18 217 -18 q 455 31 390 -18 q 519 171 519 81 q 460 290 519 240 q 306 375 401 339 q 179 437 224 406 q 135 511 135 468 q 179 595 135 561 q 293 629 224 629 q 384 617 347 629 q 468 582 421 604 l 496 636 q 404 676 463 660 q 300 692 346 692 q 124 641 188 692 q 61 506 61 590 q 267 314 61 388 q 447 165 447 247 q 399 76 447 108 q 267 44 350 44 q 83 94 186 44 l 58 35 m 314 1031 l 238 835 l 288 818 l 406 1031 l 314 1031 z "},"š":{"ha":572,"x_min":58,"x_max":519,"o":"m 58 35 q 156 -3 94 11 q 264 -18 217 -18 q 455 31 390 -18 q 519 171 519 81 q 460 290 519 240 q 306 375 401 339 q 179 437 224 406 q 135 511 135 468 q 179 595 135 561 q 293 629 224 629 q 384 617 347 629 q 468 582 421 604 l 496 636 q 404 676 463 660 q 300 692 346 692 q 124 641 188 692 q 61 506 61 590 q 267 314 61 388 q 447 165 447 247 q 399 76 447 108 q 267 44 350 44 q 83 94 186 44 l 58 35 m 119 1017 l 264 818 l 332 818 l 475 1014 l 410 1031 l 299 872 l 188 1031 l 119 1017 z "},"ť":{"ha":568,"x_min":26,"x_max":526,"o":"m 468 975 q 424 957 442 975 q 407 915 407 939 q 422 876 407 894 q 461 856 438 857 q 381 744 457 792 l 403 707 q 492 790 458 735 q 526 907 526 844 q 510 955 526 935 q 468 975 493 975 m 203 865 l 126 835 l 126 656 l 26 656 l 26 599 l 126 599 l 126 161 q 167 28 126 75 q 279 -18 208 -18 q 333 -11 306 -18 q 371 -1 367 -1 l 354 60 q 297 47 325 47 q 226 82 249 47 q 203 171 203 117 l 203 599 l 354 599 l 325 656 l 203 656 l 203 865 z "},"ù":{"ha":704,"x_min":89,"x_max":611,"o":"m 535 183 q 415 85 481 122 q 293 47 349 47 q 194 92 224 47 q 165 214 165 136 l 165 674 l 89 674 l 89 206 q 138 42 89 103 q 292 -18 188 -18 q 422 18 353 -18 q 536 106 492 54 l 550 0 l 611 0 l 611 674 l 535 674 l 535 183 m 324 1031 l 232 1031 l 350 818 l 400 835 l 324 1031 z "},"ú":{"ha":704,"x_min":89,"x_max":611,"o":"m 535 183 q 415 85 481 122 q 293 47 349 47 q 194 92 224 47 q 165 214 165 136 l 165 674 l 89 674 l 89 206 q 138 42 89 103 q 292 -18 188 -18 q 422 18 353 -18 q 536 106 492 54 l 550 0 l 611 0 l 611 674 l 535 674 l 535 183 m 360 1031 l 283 835 l 333 818 l 451 1031 l 360 1031 z "},"û":{"ha":704,"x_min":89,"x_max":611,"o":"m 535 183 q 415 85 481 122 q 293 47 349 47 q 194 92 224 47 q 165 214 165 136 l 165 674 l 89 674 l 89 206 q 138 42 89 103 q 292 -18 188 -18 q 422 18 353 -18 q 536 106 492 54 l 550 0 l 611 0 l 611 674 l 535 674 l 535 183 m 529 835 l 385 1031 l 317 1031 l 174 832 l 239 818 l 351 976 l 461 818 l 529 835 z "},"ü":{"ha":704,"x_min":89,"x_max":611,"o":"m 535 183 q 415 85 481 122 q 293 47 349 47 q 194 92 224 47 q 165 214 165 136 l 165 674 l 89 674 l 89 206 q 138 42 89 103 q 292 -18 188 -18 q 422 18 353 -18 q 536 106 492 54 l 550 0 l 611 0 l 611 674 l 535 674 l 535 183 m 236 858 q 276 874 260 858 q 292 914 292 890 q 276 952 292 936 q 236 968 260 968 q 197 953 213 968 q 181 914 181 938 q 197 874 181 890 q 236 858 213 858 m 456 858 q 495 874 479 858 q 511 914 511 890 q 495 952 511 936 q 456 968 479 968 q 415 953 431 968 q 400 914 400 938 q 415 874 400 890 q 456 858 431 858 z "},"ū":{"ha":704,"x_min":89,"x_max":611,"o":"m 535 183 q 415 85 481 122 q 293 47 349 47 q 194 92 224 47 q 165 214 165 136 l 165 674 l 89 674 l 89 206 q 138 42 89 103 q 292 -18 188 -18 q 422 18 353 -18 q 536 106 492 54 l 550 0 l 611 0 l 611 674 l 535 674 l 535 183 m 499 949 l 172 949 l 172 889 l 507 889 l 499 949 z "},"ů":{"ha":704,"x_min":89,"x_max":611,"o":"m 535 183 q 415 85 481 122 q 293 47 349 47 q 194 92 224 47 q 165 214 165 136 l 165 674 l 89 674 l 89 206 q 138 42 89 103 q 292 -18 188 -18 q 422 18 353 -18 q 536 106 492 54 l 550 0 l 611 0 l 611 674 l 535 674 l 535 183 m 344 1054 q 258 1021 294 1054 q 221 938 221 988 q 257 857 221 889 q 344 825 293 825 q 431 857 396 825 q 467 938 467 889 q 431 1021 467 988 q 344 1054 394 1054 m 344 872 q 298 891 317 872 q 279 938 279 910 q 298 986 279 967 q 344 1006 317 1006 q 391 986 372 1006 q 410 938 410 967 q 391 891 410 910 q 344 872 372 872 z "},"ű":{"ha":704,"x_min":89,"x_max":611,"o":"m 535 183 q 415 85 481 122 q 293 47 349 47 q 194 92 224 47 q 165 214 165 136 l 165 674 l 89 674 l 89 206 q 138 42 89 103 q 292 -18 188 -18 q 422 18 353 -18 q 536 106 492 54 l 550 0 l 611 0 l 611 674 l 535 674 l 535 183 m 286 1031 l 210 835 l 260 818 l 378 1031 l 286 1031 m 472 1031 l 396 835 l 444 818 l 563 1031 l 472 1031 z "},"ų":{"ha":704,"x_min":89,"x_max":719,"o":"m 719 -246 q 672 -276 701 -264 q 608 -287 642 -287 q 504 -250 546 -287 q 463 -154 463 -212 q 487 -72 463 -115 q 550 4 511 -28 l 536 106 q 422 18 492 54 q 292 -18 353 -18 q 138 42 188 -18 q 89 206 89 103 l 89 674 l 165 674 l 165 214 q 194 92 165 136 q 293 47 224 47 q 415 85 349 47 q 535 183 481 122 l 535 674 l 611 674 l 611 0 q 553 -70 574 -31 q 532 -153 532 -110 q 557 -210 532 -190 q 613 -231 582 -231 q 689 -201 653 -231 l 719 -246 z "},"ý":{"ha":603,"x_min":14,"x_max":589,"o":"m 224 -136 q 177 -203 207 -179 q 89 -250 147 -226 l 103 -304 q 218 -251 169 -290 q 288 -156 267 -212 l 589 674 l 513 674 l 301 94 l 79 686 l 14 656 l 268 -4 l 224 -136 m 311 1031 l 235 835 l 285 818 l 403 1031 l 311 1031 z "},"ÿ":{"ha":603,"x_min":14,"x_max":589,"o":"m 224 -136 q 177 -203 207 -179 q 89 -250 147 -226 l 103 -304 q 218 -251 169 -290 q 288 -156 267 -212 l 589 674 l 513 674 l 301 94 l 79 686 l 14 656 l 268 -4 l 224 -136 m 188 858 q 227 874 211 858 q 243 914 243 890 q 227 952 243 936 q 188 968 211 968 q 148 953 164 968 q 132 914 132 938 q 148 874 132 890 q 188 858 164 858 m 407 858 q 447 874 431 858 q 463 914 463 890 q 447 952 463 936 q 407 968 431 968 q 367 953 382 968 q 351 914 351 938 q 367 874 351 890 q 407 858 382 858 z "},"ź":{"ha":600,"x_min":36,"x_max":564,"o":"m 99 614 l 474 614 l 36 43 l 47 0 l 556 0 l 542 58 l 122 58 l 564 629 l 560 674 l 76 674 l 99 614 m 329 1031 l 253 835 l 303 818 l 421 1031 l 329 1031 z "},"ż":{"ha":600,"x_min":36,"x_max":564,"o":"m 99 614 l 474 614 l 36 43 l 47 0 l 556 0 l 542 58 l 122 58 l 564 629 l 560 674 l 76 674 l 99 614 m 314 858 q 355 876 338 858 q 372 918 372 893 q 355 959 372 942 q 314 976 338 976 q 272 959 289 976 q 254 918 254 942 q 271 876 254 893 q 314 858 288 858 z "},"ž":{"ha":600,"x_min":36,"x_max":564,"o":"m 99 614 l 474 614 l 36 43 l 47 0 l 556 0 l 542 58 l 122 58 l 564 629 l 560 674 l 76 674 l 99 614 m 135 1017 l 279 818 l 347 818 l 490 1014 l 425 1031 l 314 872 l 203 1031 l 135 1017 z "},"ş":{"ha":572,"x_min":58,"x_max":519,"o":"m 519 171 q 463 38 519 86 q 293 -17 406 -11 l 271 -72 q 357 -115 324 -82 q 390 -186 390 -149 q 347 -275 390 -243 q 238 -307 304 -307 q 180 -299 211 -307 q 132 -281 149 -292 l 153 -231 q 235 -250 200 -250 q 297 -233 271 -250 q 324 -189 324 -215 q 287 -135 324 -158 q 193 -110 250 -111 l 229 -17 q 135 1 183 -12 q 58 35 88 15 l 83 94 q 267 44 186 44 q 399 76 350 44 q 447 165 447 108 q 267 314 447 247 q 61 506 61 388 q 124 641 61 590 q 300 692 188 692 q 404 676 346 692 q 496 636 463 660 l 468 582 q 384 617 421 604 q 293 629 347 629 q 179 595 224 629 q 135 511 135 561 q 179 437 135 468 q 306 375 224 406 q 460 290 401 339 q 519 171 519 240 z "},"ţ":{"ha":410,"x_min":26,"x_max":375,"o":"m 256 -72 q 342 -115 308 -82 q 375 -186 375 -149 q 332 -275 375 -243 q 222 -307 289 -307 q 165 -299 196 -307 q 117 -281 133 -292 l 138 -231 q 219 -250 185 -250 q 282 -233 256 -250 q 308 -189 308 -215 q 272 -135 308 -158 q 178 -110 235 -111 l 217 -7 q 150 53 174 11 q 126 161 126 96 l 126 599 l 26 599 l 26 656 l 126 656 l 126 835 l 203 865 l 203 656 l 325 656 l 354 599 l 203 599 l 203 171 q 226 82 203 117 q 297 47 249 47 q 354 60 325 47 l 371 -1 q 333 -11 367 -1 q 279 -18 306 -18 l 278 -18 l 256 -72 z "},"ș":{"ha":572,"x_min":58,"x_max":519,"o":"m 58 35 q 156 -3 94 11 q 264 -18 217 -18 q 455 31 390 -18 q 519 171 519 81 q 460 290 519 240 q 306 375 401 339 q 179 437 224 406 q 135 511 135 468 q 179 595 135 561 q 293 629 224 629 q 384 617 347 629 q 468 582 421 604 l 496 636 q 404 676 463 660 q 300 692 346 692 q 124 641 188 692 q 61 506 61 590 q 267 314 61 388 q 447 165 447 247 q 399 76 447 108 q 267 44 350 44 q 83 94 186 44 l 58 35 m 269 -29 q 227 -47 244 -29 q 210 -89 210 -64 q 225 -128 210 -110 q 264 -147 240 -146 q 182 -260 263 -212 l 206 -297 q 295 -215 261 -271 q 329 -96 329 -160 q 312 -49 329 -68 q 269 -29 294 -29 z "},"­":{"ha":167,"x_min":0,"x_max":0,"o":""},"µ":{"ha":718,"x_min":103,"x_max":625,"o":"m 625 0 l 564 0 l 550 106 q 436 18 506 54 q 306 -18 367 -18 q 179 18 228 -18 l 179 -289 l 103 -304 l 103 674 l 179 674 l 179 214 q 208 92 179 136 q 307 47 238 47 q 428 85 363 47 q 549 183 494 122 l 549 674 l 625 674 l 625 0 z "},"ˉ":{"ha":363,"x_min":14,"x_max":349,"o":"m 340 957 l 14 957 l 14 896 l 349 896 l 340 957 z "},"ℓ":{"ha":478,"x_min":14,"x_max":436,"o":"m 32 257 q 115 315 69 279 l 115 192 q 160 38 115 93 q 294 -17 204 -17 q 351 -8 322 -17 q 397 17 381 1 l 375 69 q 337 55 357 61 q 299 49 317 49 q 217 88 242 49 q 192 193 192 128 l 192 381 q 367 591 297 481 q 436 797 436 701 q 392 927 436 879 q 276 975 349 975 q 159 925 203 975 q 115 786 115 875 l 115 403 q 14 322 54 349 l 32 257 m 192 786 q 215 880 192 850 q 276 911 239 910 q 335 882 313 911 q 358 794 358 853 q 313 638 358 719 q 192 476 267 557 l 192 786 z "},"Ω":{"ha":985,"x_min":67,"x_max":919,"o":"m 838 469 q 814 311 838 394 q 749 161 790 228 q 656 65 707 94 l 649 0 l 911 0 l 918 61 l 751 61 q 874 233 828 118 q 919 468 919 349 q 869 720 919 607 q 722 899 818 833 q 494 967 625 965 q 267 899 364 965 q 119 720 171 833 q 67 468 67 607 q 113 233 67 349 q 233 61 158 118 l 68 61 l 75 0 l 339 0 l 332 65 q 239 161 281 94 q 174 311 197 228 q 150 469 150 394 q 194 687 150 589 q 318 841 239 785 q 494 897 397 897 q 670 841 592 897 q 793 688 749 785 q 838 469 838 590 z "},"∆":{"ha":807,"x_min":14,"x_max":793,"o":"m 793 0 l 793 15 l 433 944 l 357 944 l 14 0 l 793 0 m 396 844 l 693 61 l 110 61 l 396 844 z "},"∕":{"ha":528,"x_min":14,"x_max":514,"o":"m 85 -6 l 514 981 l 442 986 l 14 0 l 85 -6 z "},"∙":{"ha":281,"x_min":42,"x_max":239,"o":"m 140 356 q 210 384 181 356 q 239 453 239 413 q 210 524 239 494 q 140 553 181 553 q 71 524 100 553 q 42 453 42 494 q 71 384 42 413 q 140 356 100 356 z "},"₺":{"ha":675,"x_min":0,"x_max":647,"o":"m 226 0 q 427 63 329 0 q 586 233 525 126 q 647 460 647 339 l 574 460 q 522 268 574 360 q 388 119 469 176 q 226 63 307 63 l 226 547 l 479 638 l 468 694 l 226 608 l 226 694 l 479 783 l 468 840 l 226 754 l 226 981 l 150 967 l 150 728 l 0 675 l 10 617 l 150 665 l 150 582 l 0 529 l 10 471 l 150 521 l 150 0 l 226 0 z "},"₽":{"ha":763,"x_min":51,"x_max":711,"o":"m 213 283 l 615 283 l 622 224 l 213 224 l 213 0 l 136 0 l 136 224 l 58 224 l 51 283 l 136 283 l 136 369 l 58 369 l 51 428 l 136 428 l 136 944 l 371 944 q 619 876 528 944 q 711 660 711 807 q 611 440 710 514 q 356 367 513 367 l 213 367 l 213 283 m 365 429 q 558 488 483 429 q 633 658 632 546 q 381 881 633 881 l 213 881 l 213 429 l 365 429 z "},"¢":{"ha":625,"x_min":53,"x_max":578,"o":"m 571 39 q 494 5 540 19 q 403 -15 447 -10 l 403 -154 l 338 -154 l 338 -17 q 128 89 203 -8 q 53 340 53 186 q 129 583 53 486 q 338 690 206 679 l 338 826 l 403 840 l 403 689 q 497 669 447 685 q 578 633 546 654 l 550 581 q 464 616 500 604 q 368 628 428 628 q 242 590 296 628 q 160 486 189 551 q 131 342 132 421 q 191 129 131 213 q 361 46 251 46 q 437 52 406 46 q 494 69 468 58 q 543 93 519 81 l 571 39 z "},"£":{"ha":594,"x_min":81,"x_max":581,"o":"m 572 61 l 211 61 q 247 122 236 86 q 258 206 258 157 l 258 461 l 481 461 l 450 518 l 258 518 l 258 769 q 354 885 258 885 q 384 880 367 885 q 411 871 401 875 l 428 932 q 336 950 381 950 q 222 898 263 950 q 182 757 182 846 l 182 518 l 81 518 l 83 461 l 182 461 l 182 176 q 89 61 182 63 l 94 0 l 581 0 l 572 61 z "},"¤":{"ha":919,"x_min":42,"x_max":878,"o":"m 231 67 q 451 -18 319 -18 q 581 5 521 -18 q 685 69 640 28 l 835 -78 l 878 -28 l 731 121 q 799 332 796 210 q 782 451 799 394 q 733 553 765 508 l 878 699 l 835 750 l 690 606 q 465 692 597 692 q 339 668 399 692 q 233 603 279 644 l 85 750 l 42 699 l 189 553 q 122 342 122 463 q 186 117 122 210 l 42 -28 l 85 -78 l 231 67 m 719 332 q 685 188 719 253 q 590 85 651 122 q 453 47 529 47 q 322 85 379 47 q 232 190 264 124 q 200 342 200 257 q 235 485 200 419 q 330 588 269 550 q 467 626 390 626 q 602 587 544 626 q 690 481 660 547 q 719 332 719 414 z "},"¥":{"ha":746,"x_min":14,"x_max":732,"o":"m 732 944 l 647 944 l 364 456 l 86 961 l 14 925 l 326 378 l 326 0 l 403 0 l 403 386 l 732 944 m 361 389 l 360 392 l 385 392 l 386 389 l 361 389 m 361 146 l 360 149 l 385 149 l 386 146 l 361 146 z "},"€":{"ha":824,"x_min":0,"x_max":785,"o":"m 543 49 q 659 60 611 49 q 751 90 707 71 l 785 32 q 676 -4 746 11 q 549 -19 607 -19 q 313 47 410 -19 q 169 223 217 113 q 121 467 121 333 q 128 564 121 511 l 10 564 l 0 625 l 140 625 q 288 871 179 778 q 557 964 397 964 q 679 950 608 964 q 785 913 750 936 l 757 856 q 664 888 704 878 q 556 897 624 897 q 351 823 440 896 q 225 625 261 750 l 575 625 l 585 564 l 211 564 q 204 468 204 513 q 244 258 204 353 q 362 106 285 163 q 543 49 439 49 m 304 344 l 306 342 l 281 342 l 279 344 l 304 344 z "},"$":{"ha":725,"x_min":67,"x_max":650,"o":"m 260 -12 q 152 9 204 -6 q 76 40 100 24 l 97 100 q 203 62 142 78 q 328 46 264 46 q 508 97 443 46 q 574 222 574 147 q 514 349 574 297 q 321 457 454 400 q 130 579 193 511 q 67 740 67 647 q 118 876 67 818 q 260 956 169 933 l 260 1093 l 319 1107 l 319 964 q 356 967 339 967 q 413 963 386 967 l 413 1097 l 474 1111 l 474 953 q 589 913 535 939 l 558 856 q 465 890 508 878 q 358 903 422 903 q 201 856 260 903 q 142 736 142 810 q 201 609 142 661 q 397 496 261 557 q 590 376 531 438 q 650 219 650 314 q 604 85 650 143 q 474 1 558 28 l 474 -154 l 413 -154 l 413 -11 q 329 -18 371 -18 l 319 -18 l 319 -154 l 260 -154 l 260 -12 z "},",":{"ha":217,"x_min":28,"x_max":175,"o":"m 115 117 q 73 99 90 117 q 56 58 56 82 q 71 19 56 38 q 110 0 86 0 q 28 -112 108 -65 l 51 -150 q 141 -68 107 -124 q 175 51 175 -12 q 158 98 175 79 q 115 117 142 117 z "},".":{"ha":201,"x_min":42,"x_max":160,"o":"m 101 0 q 142 17 125 0 q 160 60 160 35 q 142 99 160 82 q 101 117 125 117 q 59 100 76 117 q 42 60 42 83 q 58 17 42 35 q 101 0 75 0 z "},"!":{"ha":203,"x_min":42,"x_max":161,"o":"m 156 975 l 67 975 l 78 278 l 138 249 l 156 975 m 101 117 q 59 100 76 117 q 42 60 42 83 q 59 17 42 35 q 101 0 76 0 q 144 17 126 0 q 161 60 161 35 q 144 100 161 83 q 101 117 126 117 z "},"¡":{"ha":203,"x_min":43,"x_max":161,"o":"m 103 856 q 144 873 128 856 q 161 915 161 890 q 144 958 161 940 q 103 975 128 975 q 60 957 78 975 q 43 915 43 939 q 60 874 43 892 q 103 856 78 856 m 50 0 l 138 0 l 126 697 l 67 726 l 50 0 z "},":":{"ha":201,"x_min":42,"x_max":160,"o":"m 100 500 q 142 518 125 500 q 160 560 160 536 q 142 601 160 583 q 100 619 125 619 q 58 601 75 619 q 42 560 42 583 q 58 517 42 535 q 100 500 75 500 m 100 57 q 142 74 125 57 q 160 117 160 92 q 142 159 160 142 q 100 176 125 176 q 58 159 75 176 q 42 117 42 142 q 58 74 42 92 q 100 57 75 57 z "},";":{"ha":217,"x_min":28,"x_max":175,"o":"m 115 500 q 158 518 140 500 q 175 560 175 536 q 158 601 175 583 q 115 619 140 619 q 73 601 90 619 q 56 560 56 583 q 73 517 56 535 q 115 500 90 500 m 115 176 q 73 158 90 176 q 56 115 56 140 q 71 76 56 94 q 110 57 86 58 q 28 -56 108 -8 l 51 -93 q 141 -10 107 -67 q 175 108 175 46 q 158 157 175 138 q 115 176 142 176 z "},"?":{"ha":553,"x_min":14,"x_max":511,"o":"m 258 975 q 125 952 183 975 q 14 890 67 929 l 25 825 q 137 890 88 869 q 256 910 186 910 q 385 869 340 910 q 429 746 429 828 q 363 603 429 668 q 188 504 297 539 l 199 219 l 253 192 l 265 461 q 445 589 379 511 q 511 747 511 667 q 447 913 511 851 q 258 975 383 975 m 218 117 q 176 100 193 117 q 160 60 160 83 q 176 17 160 35 q 218 0 193 0 q 260 17 243 0 q 278 60 278 35 q 260 100 278 83 q 218 117 243 117 z "},"¿":{"ha":553,"x_min":42,"x_max":539,"o":"m 333 744 q 376 762 358 744 q 393 804 393 779 q 376 847 393 829 q 333 864 358 864 q 292 846 310 864 q 274 804 274 828 q 292 763 274 781 q 333 744 310 744 m 294 -111 q 428 -89 369 -111 q 539 -28 488 -67 l 528 39 q 416 -26 465 -6 q 297 -46 367 -46 q 168 -5 213 -46 q 124 118 124 36 q 189 260 124 196 q 364 360 254 325 l 354 644 l 300 672 l 288 403 q 108 274 174 353 q 42 115 42 196 q 105 -50 42 11 q 294 -111 168 -111 z "},"*":{"ha":451,"x_min":14,"x_max":438,"o":"m 194 911 l 31 951 l 14 903 l 179 865 l 64 697 l 114 668 l 225 828 l 340 668 l 386 697 l 272 865 l 438 903 l 419 951 l 253 911 l 253 1075 l 196 1075 l 194 911 z "},"\"":{"ha":401,"x_min":28,"x_max":360,"o":"m 115 975 q 72 957 89 975 q 56 915 56 939 q 70 876 56 894 q 110 856 85 857 q 28 744 106 792 l 51 707 q 141 790 107 735 q 175 907 175 844 q 158 955 175 935 q 115 975 140 975 m 301 975 q 258 957 275 975 q 242 915 242 939 q 257 876 242 894 q 296 856 272 857 q 214 744 292 790 l 238 707 q 326 789 293 733 q 360 907 360 844 q 343 955 360 935 q 301 975 326 975 z "},"'":{"ha":217,"x_min":28,"x_max":175,"o":"m 115 975 q 72 957 89 975 q 56 915 56 939 q 70 876 56 894 q 110 856 85 857 q 28 744 106 792 l 51 707 q 141 790 107 735 q 175 907 175 844 q 158 955 175 935 q 115 975 140 975 z "},"‘":{"ha":217,"x_min":42,"x_max":189,"o":"m 101 707 q 144 724 128 707 q 160 765 160 742 q 145 806 160 788 q 106 825 131 824 q 189 936 110 892 l 164 975 q 76 892 110 947 q 42 774 42 836 q 58 726 42 746 q 101 707 75 707 z "},"’":{"ha":217,"x_min":28,"x_max":175,"o":"m 115 975 q 72 957 89 975 q 56 915 56 939 q 70 876 56 894 q 110 856 85 857 q 28 744 106 792 l 51 707 q 141 790 107 735 q 175 907 175 844 q 158 955 175 935 q 115 975 140 975 z "},"‚":{"ha":217,"x_min":28,"x_max":175,"o":"m 115 117 q 72 99 89 117 q 56 58 56 82 q 71 19 56 38 q 110 0 86 0 q 28 -112 106 -65 l 51 -150 q 141 -67 107 -122 q 175 51 175 -12 q 158 98 175 79 q 115 117 140 117 z "},"“":{"ha":401,"x_min":42,"x_max":374,"o":"m 101 707 q 144 724 128 707 q 160 765 160 742 q 145 806 160 788 q 106 825 131 824 q 189 936 110 892 l 164 975 q 76 892 110 947 q 42 774 42 836 q 58 726 42 746 q 101 707 75 707 m 286 707 q 329 724 313 707 q 346 765 346 742 q 331 806 346 788 q 293 825 317 824 q 374 936 294 890 l 351 975 q 262 892 296 949 q 228 774 228 836 q 244 726 228 746 q 286 707 261 707 z "},"”":{"ha":401,"x_min":28,"x_max":360,"o":"m 115 975 q 72 957 89 975 q 56 915 56 939 q 70 876 56 894 q 110 856 85 857 q 28 744 106 792 l 51 707 q 141 790 107 735 q 175 907 175 844 q 158 955 175 935 q 115 975 140 975 m 301 975 q 258 957 275 975 q 242 915 242 939 q 257 876 242 894 q 296 856 272 857 q 214 744 292 790 l 238 707 q 326 789 293 733 q 360 907 360 844 q 343 955 360 935 q 301 975 326 975 z "},"„":{"ha":401,"x_min":119,"x_max":268,"o":"m 240 107 q 260 84 253 99 q 268 51 268 69 q 235 -67 268 -12 q 146 -149 201 -122 l 143 -150 l 119 -112 q 201 0 197 -65 q 163 19 178 0 q 147 58 147 38 q 164 101 147 83 q 207 118 181 118 q 240 107 225 118 z "},"·":{"ha":201,"x_min":42,"x_max":160,"o":"m 101 304 q 142 322 125 304 q 160 364 160 340 q 142 406 160 389 q 101 422 125 422 q 58 406 75 422 q 42 364 42 389 q 59 322 42 339 q 101 304 76 304 z "},"(":{"ha":340,"x_min":69,"x_max":299,"o":"m 299 -26 q 225 100 260 14 q 169 282 190 186 q 149 446 149 378 q 169 607 149 513 q 225 786 190 701 q 299 913 260 871 l 235 938 q 111 699 153 833 q 69 444 69 564 q 111 189 69 324 q 235 -51 153 54 l 299 -26 z "},")":{"ha":340,"x_min":42,"x_max":271,"o":"m 42 913 q 114 785 79 871 q 170 605 149 700 q 192 443 192 510 q 170 281 192 376 q 114 99 149 185 q 42 -26 79 14 l 106 -51 q 228 190 186 56 q 271 444 271 325 q 228 697 271 561 q 106 938 186 832 l 42 913 z "},"[":{"ha":374,"x_min":139,"x_max":360,"o":"m 349 -65 l 213 -65 l 213 908 l 349 908 l 360 967 l 139 967 l 139 -122 l 360 -122 l 349 -65 z "},"]":{"ha":372,"x_min":14,"x_max":233,"o":"m 25 908 l 161 908 l 161 -65 l 25 -65 l 14 -122 l 233 -122 l 233 967 l 14 967 l 25 908 z "},"{":{"ha":368,"x_min":42,"x_max":354,"o":"m 182 429 q 247 484 224 446 q 271 582 271 522 q 244 679 271 621 q 218 778 218 738 q 244 833 218 810 q 318 857 271 857 l 344 857 l 354 915 l 318 915 q 190 876 233 915 q 146 769 146 838 q 171 669 146 726 q 196 569 196 614 q 163 487 196 519 q 88 454 131 454 l 42 454 l 42 400 l 88 400 q 163 367 131 400 q 196 285 196 335 q 171 186 196 243 q 146 86 146 131 q 189 -22 146 17 q 318 -61 232 -61 l 354 -61 l 344 -3 l 318 -3 q 244 21 269 -3 q 218 78 218 44 q 244 175 218 117 q 271 274 271 233 q 247 371 271 331 q 182 429 222 411 z "},"}":{"ha":368,"x_min":14,"x_max":326,"o":"m 188 426 q 122 371 146 410 q 97 274 97 332 q 124 175 97 233 q 150 78 150 117 q 124 21 150 44 q 50 -3 99 -3 l 24 -3 l 14 -61 l 50 -61 q 179 -22 136 -61 q 222 86 222 17 q 197 186 222 131 q 172 285 172 243 q 205 368 172 335 q 281 401 238 401 l 326 401 l 326 454 l 281 454 q 205 487 238 454 q 172 569 172 519 q 197 669 172 614 q 222 769 222 726 q 178 876 222 838 q 50 915 135 915 l 14 915 l 24 857 l 50 857 q 124 833 97 857 q 150 778 150 810 q 124 679 150 738 q 97 582 97 621 q 122 484 97 524 q 188 426 146 444 z "},"/":{"ha":528,"x_min":14,"x_max":514,"o":"m 85 -6 l 514 981 l 442 986 l 14 0 l 85 -6 z "},"\\":{"ha":528,"x_min":14,"x_max":514,"o":"m 14 981 l 442 -6 l 514 0 l 86 986 l 14 981 z "},"|":{"ha":347,"x_min":136,"x_max":213,"o":"m 213 -6 l 213 981 l 136 986 l 136 0 l 213 -6 z "},"¦":{"ha":347,"x_min":136,"x_max":213,"o":"m 213 564 l 213 981 l 136 986 l 136 569 l 213 564 m 213 -6 l 213 400 l 136 406 l 136 0 l 213 -6 z "},"«":{"ha":504,"x_min":42,"x_max":476,"o":"m 265 167 l 103 340 l 265 514 l 236 564 l 42 367 l 42 314 l 236 117 l 265 167 m 476 167 l 313 340 l 476 514 l 447 564 l 253 367 l 253 314 l 447 117 l 476 167 z "},"»":{"ha":504,"x_min":28,"x_max":463,"o":"m 28 514 l 192 340 l 28 167 l 58 117 l 253 314 l 253 367 l 58 564 l 28 514 m 239 514 l 403 340 l 239 167 l 269 117 l 463 314 l 463 367 l 269 564 l 239 514 z "},"π":{"ha":769,"x_min":14,"x_max":756,"o":"m 539 613 l 539 0 l 617 0 l 617 613 l 756 613 l 756 674 l 14 674 l 14 613 l 151 613 l 151 0 l 228 0 l 228 613 l 539 613 z "},"†":{"ha":513,"x_min":42,"x_max":471,"o":"m 42 864 l 68 806 l 214 806 l 221 0 l 286 -6 l 293 806 l 471 806 l 444 864 l 293 864 l 293 1083 l 214 1088 l 214 864 l 42 864 z "},"‡":{"ha":522,"x_min":42,"x_max":481,"o":"m 481 263 l 454 322 l 297 322 l 300 746 l 481 746 l 454 806 l 297 806 l 301 1083 l 221 1088 l 224 806 l 42 806 l 68 746 l 222 746 l 221 322 l 42 322 l 68 263 l 222 263 l 219 -8 l 300 1 l 297 263 l 481 263 z "},"•":{"ha":281,"x_min":42,"x_max":239,"o":"m 140 356 q 210 384 181 356 q 239 453 239 413 q 210 524 239 494 q 140 553 181 553 q 71 524 100 553 q 42 453 42 494 q 71 384 42 413 q 140 356 100 356 z "},"…":{"ha":549,"x_min":42,"x_max":507,"o":"m 99 0 q 138 16 122 0 q 154 56 154 32 q 138 95 154 79 q 99 111 122 111 q 58 95 75 111 q 42 56 42 79 q 58 16 42 32 q 99 0 75 0 m 276 0 q 316 16 300 0 q 332 56 332 32 q 316 95 332 79 q 276 111 300 111 q 236 95 253 111 q 219 56 219 79 q 236 16 219 32 q 276 0 253 0 m 451 0 q 491 16 475 0 q 507 56 507 32 q 491 95 507 79 q 451 111 475 111 q 411 95 428 111 q 394 56 394 79 q 411 16 394 32 q 451 0 428 0 z "},"‹":{"ha":293,"x_min":42,"x_max":265,"o":"m 265 169 l 107 340 l 265 511 l 236 567 l 42 367 l 42 314 l 236 115 l 265 169 z "},"›":{"ha":294,"x_min":28,"x_max":253,"o":"m 28 513 l 189 342 l 28 169 l 58 115 l 253 315 l 253 367 l 58 567 l 28 513 z "},"-":{"ha":435,"x_min":42,"x_max":393,"o":"m 53 349 l 393 349 l 382 410 l 42 410 l 53 349 z "},"_":{"ha":603,"x_min":42,"x_max":561,"o":"m 53 0 l 561 0 l 550 61 l 42 61 l 53 0 z "},"–":{"ha":604,"x_min":42,"x_max":563,"o":"m 53 349 l 563 349 l 551 410 l 42 410 l 53 349 z "},"—":{"ha":735,"x_min":42,"x_max":693,"o":"m 53 349 l 693 349 l 682 410 l 42 410 l 53 349 z "},"#":{"ha":690,"x_min":42,"x_max":649,"o":"m 294 515 l 339 697 l 272 697 l 226 515 l 42 515 l 53 454 l 211 454 l 163 256 l 42 256 l 53 194 l 147 194 l 101 7 l 168 0 l 215 194 l 401 194 l 356 7 l 421 0 l 468 194 l 649 194 l 639 256 l 483 256 l 532 454 l 649 454 l 639 515 l 547 515 l 593 697 l 525 697 l 481 515 l 294 515 m 231 256 l 279 454 l 465 454 l 415 256 l 231 256 z "},"%":{"ha":1143,"x_min":53,"x_max":1090,"o":"m 386 -6 l 815 981 l 742 986 l 314 0 l 386 -6 m 267 975 q 157 946 206 975 q 81 863 108 917 q 53 739 53 810 q 112 566 53 628 q 268 504 171 504 q 375 533 326 504 q 451 615 424 563 q 479 739 479 668 q 421 913 479 850 q 267 975 363 975 m 267 915 q 365 869 326 915 q 404 739 404 824 q 364 609 404 654 q 268 564 324 564 q 169 610 210 564 q 128 739 128 657 q 169 869 128 824 q 267 915 211 915 m 878 469 q 768 440 817 469 q 692 358 719 411 q 664 233 664 304 q 723 61 664 124 q 878 -1 782 -1 q 985 28 938 -1 q 1062 110 1033 57 q 1090 233 1090 163 q 1032 407 1090 344 q 878 469 974 469 m 878 408 q 976 363 938 408 q 1015 233 1015 318 q 974 105 1015 150 q 878 60 933 60 q 779 106 819 60 q 739 233 739 151 q 780 364 739 319 q 878 408 821 408 z "},"+":{"ha":738,"x_min":42,"x_max":696,"o":"m 404 738 l 331 742 l 331 410 l 42 410 l 53 350 l 331 350 l 331 11 l 404 6 l 404 350 l 696 350 l 682 410 l 404 410 l 404 738 z "},"÷":{"ha":690,"x_min":42,"x_max":649,"o":"m 344 513 q 390 532 371 513 q 408 576 408 551 q 390 623 408 604 q 344 642 372 642 q 297 623 315 642 q 279 576 279 604 q 298 531 279 550 q 344 513 317 513 m 53 350 l 649 350 l 636 410 l 42 410 l 53 350 m 349 92 q 394 111 375 92 q 413 157 413 131 q 394 202 413 183 q 349 221 375 221 q 301 203 319 221 q 283 157 283 185 q 301 110 283 129 q 349 92 319 92 z "},"×":{"ha":664,"x_min":42,"x_max":622,"o":"m 522 43 l 329 285 l 121 43 l 42 43 l 296 347 l 65 644 l 142 644 l 333 403 l 544 644 l 622 644 l 368 340 l 600 43 l 522 43 z "},"±":{"ha":683,"x_min":42,"x_max":642,"o":"m 374 738 l 301 742 l 301 482 l 42 482 l 53 424 l 301 424 l 301 157 l 374 150 l 374 424 l 636 424 l 625 482 l 374 482 l 374 738 m 53 0 l 642 0 l 631 58 l 42 58 l 53 0 z "},"<":{"ha":447,"x_min":42,"x_max":419,"o":"m 419 599 l 388 653 l 42 367 l 42 314 l 388 26 l 419 82 l 113 340 l 419 599 z "},"=":{"ha":690,"x_min":42,"x_max":649,"o":"m 53 454 l 649 454 l 639 515 l 42 515 l 53 454 m 53 194 l 649 194 l 639 256 l 42 256 l 53 194 z "},">":{"ha":447,"x_min":28,"x_max":406,"o":"m 28 599 l 335 339 l 28 81 l 60 26 l 406 314 l 406 365 l 60 653 l 28 599 z "},"°":{"ha":331,"x_min":14,"x_max":310,"o":"m 161 975 q 57 933 100 975 q 14 832 14 892 q 56 731 14 771 q 161 692 99 692 q 267 731 225 692 q 310 832 310 771 q 267 933 310 892 q 161 975 224 975 m 164 740 q 99 769 125 740 q 74 833 74 797 q 99 897 74 869 q 161 924 124 924 q 225 896 199 924 q 251 833 251 868 q 227 769 251 797 q 164 740 203 740 z "},"¹":{"ha":338,"x_min":14,"x_max":231,"o":"m 189 1063 l 14 972 l 46 929 l 163 988 l 163 467 l 231 467 l 231 1063 l 189 1063 z "},"²":{"ha":482,"x_min":35,"x_max":454,"o":"m 239 1071 q 135 1056 190 1071 q 40 1018 81 1040 l 67 967 q 148 1000 100 985 q 236 1015 196 1015 q 333 980 301 1015 q 365 899 365 944 q 343 822 365 865 q 251 715 319 778 l 35 522 l 35 467 l 454 467 l 446 519 l 114 519 l 288 671 q 401 793 367 740 q 435 903 435 846 q 414 983 435 944 q 349 1046 393 1021 q 239 1071 304 1071 z "},"³":{"ha":492,"x_min":0,"x_max":432,"o":"m 215 1071 q 108 1055 156 1071 q 13 1010 60 1039 l 43 963 q 214 1015 125 1015 q 313 983 276 1015 q 350 903 350 951 q 306 807 350 842 q 178 772 263 772 l 133 772 l 143 719 l 171 719 q 319 683 275 719 q 364 576 364 647 q 317 480 364 515 q 204 444 271 444 q 111 456 149 444 q 33 490 74 467 l 0 442 q 93 402 42 418 q 199 386 144 386 q 369 441 306 386 q 432 578 432 496 q 399 688 432 643 q 306 747 365 733 q 387 806 354 764 q 419 904 419 849 q 367 1024 419 976 q 215 1071 315 1071 z "},"¼":{"ha":994,"x_min":14,"x_max":967,"o":"m 189 1063 l 14 972 l 46 929 l 163 988 l 163 467 l 231 467 l 231 1063 l 189 1063 m 124 -186 l 813 972 l 744 972 l 47 -186 l 124 -186 m 854 446 l 810 446 l 458 -43 l 464 -97 l 788 -97 l 788 -226 l 854 -226 l 854 -97 l 961 -97 l 967 -43 l 854 -43 l 854 446 m 531 -43 l 788 319 l 788 -43 l 531 -43 z "},"½":{"ha":1042,"x_min":14,"x_max":1014,"o":"m 189 1063 l 14 972 l 46 929 l 163 988 l 163 467 l 231 467 l 231 1063 l 189 1063 m 118 -186 l 807 972 l 739 972 l 42 -186 l 118 -186 m 800 451 q 696 435 751 451 q 601 399 640 419 l 628 347 q 709 381 661 365 q 797 396 757 396 q 894 360 863 396 q 926 279 926 325 q 904 203 926 246 q 813 96 881 158 l 596 -97 l 596 -153 l 1014 -153 l 1006 -100 l 675 -100 l 849 51 q 960 174 926 121 q 994 283 994 226 q 974 363 994 325 q 909 426 953 401 q 800 451 865 451 z "},"¾":{"ha":1065,"x_min":0,"x_max":1038,"o":"m 215 1071 q 108 1055 156 1071 q 13 1010 60 1039 l 43 963 q 214 1015 125 1015 q 313 983 276 1015 q 350 903 350 951 q 306 807 350 842 q 178 772 263 772 l 133 772 l 143 719 l 171 719 q 319 683 275 719 q 364 576 364 647 q 317 480 364 515 q 204 444 271 444 q 111 456 149 444 q 33 490 74 467 l 0 442 q 93 402 42 418 q 199 386 144 386 q 369 441 306 386 q 432 578 432 496 q 399 688 432 643 q 306 747 365 733 q 387 806 354 764 q 419 904 419 849 q 367 1024 419 976 q 215 1071 315 1071 m 235 -186 l 925 972 l 856 972 l 160 -186 l 235 -186 m 924 446 l 879 446 l 528 -43 l 533 -97 l 857 -97 l 857 -226 l 924 -226 l 924 -97 l 1032 -97 l 1038 -43 l 924 -43 l 924 446 m 600 -43 l 857 319 l 857 -43 l 600 -43 z "},"℮":{"ha":675,"x_min":53,"x_max":622,"o":"m 622 335 q 551 593 622 494 q 351 692 481 692 q 130 594 207 692 q 53 340 53 497 q 135 78 53 175 q 382 -18 217 -18 q 501 -2 440 -18 q 607 40 561 14 l 579 97 q 482 58 529 72 q 374 44 435 44 q 192 124 251 44 q 131 335 132 204 l 622 335 m 133 389 q 197 561 143 494 q 344 628 250 628 q 486 563 439 628 q 543 389 533 497 l 133 389 z "},"∂":{"ha":729,"x_min":53,"x_max":676,"o":"m 158 1042 q 676 333 676 846 q 638 153 676 233 q 528 28 600 74 q 360 -18 457 -18 q 133 81 214 -18 q 53 340 53 179 q 91 520 53 440 q 201 646 129 600 q 369 692 272 692 q 539 638 467 690 q 136 990 435 865 l 158 1042 m 361 46 q 487 84 433 46 q 569 188 540 122 q 599 332 597 253 q 575 536 599 442 q 481 604 535 581 q 368 628 428 628 q 242 590 296 628 q 160 486 189 551 q 131 342 132 421 q 191 129 131 213 q 361 46 251 46 z "},"∏":{"ha":835,"x_min":136,"x_max":700,"o":"m 208 888 l 625 888 l 625 0 l 700 0 l 700 944 l 136 944 l 136 0 l 208 0 l 208 888 z "},"∑":{"ha":607,"x_min":42,"x_max":579,"o":"m 42 882 l 326 479 l 42 69 l 42 0 l 579 0 l 572 69 l 129 69 l 396 458 l 396 500 l 129 882 l 550 882 l 542 944 l 42 944 l 42 882 z "},"−":{"ha":654,"x_min":42,"x_max":613,"o":"m 53 349 l 613 349 l 600 410 l 42 410 l 53 349 z "},"√":{"ha":733,"x_min":14,"x_max":719,"o":"m 89 446 l 14 440 l 247 0 l 314 -6 l 719 981 l 649 986 l 282 81 l 89 446 z "},"∞":{"ha":1133,"x_min":53,"x_max":1081,"o":"m 324 636 q 182 597 243 636 q 87 490 121 557 q 53 342 53 424 q 126 141 53 217 q 324 65 200 65 q 454 113 396 65 q 551 233 513 160 q 666 113 597 160 q 810 65 735 65 q 952 104 890 65 q 1047 210 1014 143 q 1081 358 1081 276 q 1007 560 1081 483 q 810 636 933 636 q 679 590 738 636 q 582 469 621 543 q 468 589 539 542 q 324 636 397 636 m 531 354 q 449 198 500 264 q 326 132 399 132 q 182 190 236 132 q 128 340 128 249 q 182 506 128 442 q 328 569 236 569 q 454 523 397 568 q 549 407 511 478 l 531 354 m 603 346 q 684 501 632 432 q 808 569 736 569 q 953 511 899 569 q 1007 360 1007 453 q 953 196 1007 260 q 810 132 900 132 q 681 178 739 132 q 586 294 624 224 l 603 346 z "},"∫":{"ha":415,"x_min":0,"x_max":415,"o":"m 246 907 q 342 1022 246 1022 q 399 1010 363 1022 l 415 1069 q 324 1088 368 1088 q 210 1036 250 1088 q 169 894 169 985 l 169 -68 q 74 -182 169 -182 q 43 -178 61 -182 q 17 -169 25 -174 l 0 -231 q 92 -249 47 -249 q 206 -197 165 -249 q 246 -56 246 -144 l 246 907 z "},"≈":{"ha":694,"x_min":42,"x_max":653,"o":"m 594 531 q 561 490 589 503 q 503 476 533 476 q 357 507 447 476 q 203 538 265 538 q 94 513 143 538 q 42 435 46 489 l 99 421 q 133 462 104 449 q 194 475 163 475 q 350 444 257 475 q 494 413 450 413 q 601 436 554 413 q 653 517 649 460 l 594 531 m 594 285 q 561 243 589 257 q 503 229 533 229 q 357 261 450 229 q 203 292 265 292 q 94 267 143 292 q 42 188 46 243 l 99 175 q 134 215 104 201 q 194 229 164 229 q 350 199 257 229 q 494 167 450 167 q 601 191 553 167 q 653 269 649 215 l 594 285 z "},"≠":{"ha":690,"x_min":42,"x_max":649,"o":"m 42 515 l 53 454 l 350 454 l 263 256 l 42 256 l 53 194 l 236 194 l 143 -14 l 211 -19 l 307 194 l 649 194 l 639 256 l 332 256 l 421 454 l 649 454 l 639 515 l 447 515 l 538 719 l 469 725 l 378 515 l 42 515 z "},"≤":{"ha":447,"x_min":42,"x_max":419,"o":"m 419 600 l 388 653 l 42 426 l 42 375 l 388 150 l 419 201 l 115 403 l 419 600 m 54 0 l 415 0 l 407 61 l 43 61 l 54 0 z "},"≥":{"ha":447,"x_min":28,"x_max":406,"o":"m 28 603 l 332 403 l 28 204 l 60 150 l 406 376 l 406 428 l 60 653 l 28 603 m 39 0 l 400 0 l 392 61 l 28 61 l 39 0 z "},"‰":{"ha":1649,"x_min":53,"x_max":1596,"o":"m 386 -6 l 815 981 l 742 986 l 314 0 l 386 -6 m 267 975 q 157 946 206 975 q 81 863 108 917 q 53 739 53 810 q 112 566 53 628 q 268 504 171 504 q 375 533 326 504 q 451 615 424 563 q 479 739 479 668 q 421 913 479 850 q 267 975 363 975 m 267 915 q 365 869 326 915 q 404 739 404 824 q 364 609 404 654 q 268 564 324 564 q 169 610 210 564 q 128 739 128 657 q 169 869 128 824 q 267 915 211 915 m 878 469 q 768 440 817 469 q 692 358 719 411 q 664 233 664 304 q 723 61 664 124 q 878 -1 782 -1 q 985 28 938 -1 q 1062 110 1033 57 q 1090 233 1090 163 q 1032 407 1090 344 q 878 469 974 469 m 1382 469 q 1274 440 1322 469 q 1197 358 1225 411 q 1169 233 1169 304 q 1228 60 1169 122 q 1383 -1 1286 -1 q 1491 28 1443 -1 q 1567 110 1539 57 q 1596 233 1596 163 q 1538 407 1596 344 q 1382 469 1481 469 m 878 408 q 976 363 938 408 q 1015 233 1015 318 q 974 105 1015 150 q 878 60 933 60 q 779 106 819 60 q 739 233 739 151 q 780 364 739 319 q 878 408 821 408 m 1382 408 q 1482 363 1443 408 q 1521 233 1521 318 q 1480 105 1521 150 q 1383 60 1439 60 q 1285 106 1325 60 q 1244 233 1244 151 q 1285 363 1244 318 q 1382 408 1326 408 z "},"⁄":{"ha":528,"x_min":14,"x_max":514,"o":"m 85 -6 l 514 981 l 442 986 l 14 0 l 85 -6 z "},"◊":{"ha":722,"x_min":42,"x_max":681,"o":"m 681 426 l 376 832 l 346 832 l 42 426 l 42 406 l 346 0 l 376 0 l 681 406 l 681 426 m 360 85 l 118 415 l 360 749 l 607 415 l 360 85 z "},"©":{"ha":1096,"x_min":53,"x_max":1043,"o":"m 1043 467 q 981 717 1043 604 q 807 894 919 829 q 547 958 694 958 q 288 894 400 958 q 114 717 175 829 q 53 467 53 604 q 113 218 53 329 q 285 42 174 107 q 547 -22 397 -22 q 807 42 694 -22 q 981 219 919 107 q 1043 467 1043 331 m 125 468 q 177 688 125 590 q 325 842 229 786 q 547 899 421 899 q 770 842 674 899 q 919 688 867 786 q 972 468 972 589 q 919 249 972 347 q 770 94 867 150 q 547 38 674 38 q 325 94 421 38 q 177 248 229 150 q 125 468 125 346 m 565 158 q 665 174 610 158 q 754 217 721 190 l 726 267 q 651 231 686 243 q 564 219 615 219 q 406 287 461 219 q 351 475 351 354 q 409 658 351 589 q 567 726 467 726 q 655 714 619 726 q 729 679 690 701 l 757 731 q 669 773 725 757 q 569 789 614 789 q 415 750 482 789 q 312 640 349 711 q 275 474 275 569 q 354 244 275 329 q 565 158 433 158 z "},"®":{"ha":986,"x_min":53,"x_max":935,"o":"m 935 676 q 879 898 935 799 q 724 1054 824 997 q 494 1111 624 1111 q 263 1054 363 1111 q 108 898 163 997 q 53 676 53 799 q 108 457 53 556 q 265 301 164 358 q 494 244 365 244 q 724 301 624 244 q 879 457 824 358 q 935 676 935 556 m 122 678 q 168 870 122 785 q 298 1004 214 956 q 494 1053 382 1053 q 689 1004 606 1053 q 817 870 772 956 q 863 678 863 785 q 817 487 863 572 q 689 352 772 401 q 494 303 606 303 q 298 352 382 303 q 168 487 214 401 q 122 678 122 572 m 568 656 q 637 709 610 674 q 664 794 664 744 q 613 908 664 872 q 475 944 563 944 l 347 944 l 347 422 l 410 422 l 410 642 l 468 642 q 489 643 482 642 l 508 643 l 633 422 l 706 422 l 568 656 m 460 894 q 564 875 529 894 q 599 793 599 856 q 559 713 599 735 q 453 690 519 690 l 410 690 l 410 894 l 460 894 z "},"™":{"ha":992,"x_min":14,"x_max":926,"o":"m 14 892 l 176 892 l 176 425 l 243 425 l 243 892 l 404 892 l 400 944 l 14 944 l 14 892 m 865 425 l 926 425 l 926 944 l 897 944 l 713 671 l 521 944 l 494 944 l 494 425 l 558 425 l 558 794 l 704 581 l 721 583 l 865 796 l 865 425 z "},"&":{"ha":908,"x_min":67,"x_max":857,"o":"m 729 165 q 803 451 799 283 l 746 471 q 726 334 743 401 q 676 213 708 267 l 394 478 q 279 608 314 554 q 244 731 244 661 q 267 815 244 775 q 331 878 290 854 q 421 903 371 903 q 506 893 474 903 q 563 872 539 883 q 594 856 588 860 l 624 913 q 414 967 524 967 q 287 934 342 967 q 201 846 232 901 q 171 724 171 790 q 219 568 171 639 q 108 448 150 522 q 67 282 67 374 q 111 121 67 189 q 233 17 156 53 q 406 -18 310 -18 q 570 17 497 -18 q 693 114 643 51 l 819 0 l 857 46 l 729 165 m 643 161 q 540 76 600 107 q 408 46 481 46 q 278 74 340 46 q 179 157 217 103 q 142 285 142 211 q 172 420 142 360 q 258 518 201 481 q 324 453 281 490 l 643 161 z "},"@":{"ha":1058,"x_min":53,"x_max":1006,"o":"m 615 564 q 465 529 535 564 q 355 433 396 494 q 314 293 314 371 q 373 147 314 203 q 535 92 432 92 q 604 105 568 92 q 667 138 640 118 q 715 101 686 114 q 779 88 744 88 q 945 174 885 88 q 1006 422 1006 260 q 952 629 1006 538 q 803 773 899 721 q 583 825 707 825 q 299 754 419 825 q 116 563 179 683 q 53 296 53 442 q 113 67 53 167 q 273 -86 174 -32 q 488 -140 372 -140 q 749 -86 644 -140 l 729 -28 q 626 -64 688 -51 q 503 -76 564 -76 q 314 -31 399 -76 q 180 100 229 15 q 131 297 131 185 q 190 542 131 436 q 352 706 250 647 q 579 764 454 764 q 768 719 688 764 q 892 595 849 675 q 935 413 935 515 q 893 218 935 288 q 786 149 851 149 q 727 169 750 149 q 704 235 704 190 q 706 254 704 247 l 739 533 l 714 564 l 615 564 m 533 149 q 428 190 465 149 q 390 293 390 231 q 420 408 390 358 q 500 483 450 457 q 608 510 550 510 l 671 510 l 639 264 q 636 231 636 242 q 643 183 636 203 q 595 158 625 168 q 533 149 565 149 z "},"^":{"ha":575,"x_min":14,"x_max":554,"o":"m 554 199 l 319 542 l 249 542 l 14 199 l 89 199 l 285 481 l 479 199 l 554 199 z "},"~":{"ha":525,"x_min":42,"x_max":483,"o":"m 100 292 q 121 335 101 319 q 167 350 140 350 q 261 317 210 350 q 358 283 311 283 q 449 314 415 283 q 483 401 483 344 l 422 401 q 403 359 422 375 q 357 343 385 343 q 274 376 319 343 q 167 410 226 410 q 76 379 110 410 q 42 292 42 349 l 100 292 z "},"§":{"ha":786,"x_min":67,"x_max":735,"o":"m 735 338 q 710 235 735 282 q 636 156 685 188 q 650 74 650 122 q 565 -99 650 -33 q 329 -165 481 -165 q 190 -147 269 -165 q 76 -107 111 -129 l 97 -46 q 203 -84 142 -68 q 328 -100 264 -100 q 508 -50 443 -100 q 574 75 574 0 q 514 202 574 150 q 321 310 454 254 q 130 431 193 363 q 67 593 67 500 q 92 694 67 649 q 167 769 118 739 q 150 857 150 810 q 185 973 150 921 q 287 1054 221 1025 q 440 1083 353 1083 q 566 1068 506 1083 q 674 1029 626 1053 l 643 972 q 550 1007 593 994 q 443 1019 507 1019 q 285 973 344 1019 q 226 853 226 926 q 286 726 226 778 q 482 614 346 674 q 675 493 615 554 q 735 338 735 432 m 600 218 q 658 339 658 267 q 599 466 658 414 q 404 574 539 518 q 201 710 261 635 q 142 589 142 661 q 201 462 142 514 q 397 350 261 410 q 520 285 471 317 q 600 218 569 254 z "},"ª":{"ha":461,"x_min":53,"x_max":408,"o":"m 100 883 q 130 895 108 886 q 175 909 151 904 q 228 914 199 914 q 310 885 282 914 q 339 808 339 857 l 339 781 l 219 781 q 100 744 147 781 q 53 646 53 708 q 97 545 53 586 q 213 504 142 504 q 284 522 249 504 q 343 567 319 540 l 358 517 l 408 517 l 408 806 q 360 925 408 875 q 226 975 311 975 q 152 963 196 975 q 83 935 108 951 l 100 883 m 121 646 q 151 707 121 683 q 232 731 182 731 l 339 731 l 339 633 q 282 581 315 601 q 213 560 249 560 q 147 585 172 560 q 121 646 121 611 z "},"¬":{"ha":707,"x_min":14,"x_max":665,"o":"m 25 503 l 592 503 l 592 163 l 665 156 l 665 494 l 654 564 l 14 564 l 25 503 z "},"¶":{"ha":1125,"x_min":53,"x_max":1074,"o":"m 850 883 l 850 0 l 926 0 l 926 883 l 1074 883 l 1074 944 l 393 944 q 144 874 236 944 q 53 660 53 803 q 153 442 53 517 q 408 367 253 367 l 461 367 l 461 0 l 538 0 l 538 883 l 850 883 z "},"º":{"ha":503,"x_min":38,"x_max":465,"o":"m 250 975 q 143 946 192 975 q 66 863 94 917 q 38 739 38 810 q 98 567 38 629 q 250 504 158 504 q 359 533 310 504 q 437 615 408 563 q 465 739 465 668 q 404 912 465 849 q 250 975 343 975 m 250 917 q 351 869 310 917 q 392 739 392 822 q 349 608 392 654 q 250 563 307 563 q 151 610 192 563 q 110 739 110 657 q 152 870 110 824 q 250 917 194 917 z "},"Ģ":{"ha":861,"x_min":67,"x_max":779,"o":"m 703 81 q 533 49 615 49 q 337 101 424 49 q 200 249 250 154 q 150 467 150 344 q 203 693 150 594 q 347 845 257 792 q 546 899 438 899 q 654 889 613 899 q 747 858 696 879 l 774 913 q 667 950 739 936 q 543 964 594 964 q 300 901 408 964 q 129 724 192 838 q 67 467 67 611 q 124 217 67 328 q 288 44 182 107 q 535 -19 394 -19 q 668 -1 597 -19 q 779 43 739 17 l 779 475 l 499 475 l 490 417 l 703 417 l 703 81 m 536 -29 q 494 -47 511 -29 q 476 -89 476 -64 q 492 -128 476 -110 q 531 -147 507 -146 q 449 -260 529 -212 l 472 -297 q 562 -215 528 -271 q 596 -96 596 -160 q 578 -49 596 -68 q 536 -29 561 -29 z "},"Ķ":{"ha":814,"x_min":136,"x_max":800,"o":"m 213 365 l 213 0 l 136 0 l 136 944 l 213 944 l 213 458 l 685 965 l 736 917 l 381 543 l 800 0 l 706 0 l 329 489 l 213 365 m 467 -29 q 424 -47 442 -29 q 407 -89 407 -64 q 422 -128 407 -110 q 461 -147 438 -146 q 379 -260 460 -212 l 403 -297 q 492 -215 458 -271 q 526 -96 526 -160 q 509 -49 526 -68 q 467 -29 492 -29 z "},"Ļ":{"ha":686,"x_min":136,"x_max":672,"o":"m 213 944 l 136 944 l 136 0 l 672 0 l 665 61 l 213 61 l 213 944 m 453 -29 q 410 -47 428 -29 q 393 -89 393 -64 q 408 -128 393 -110 q 447 -147 424 -146 q 365 -260 446 -212 l 389 -297 q 478 -215 444 -271 q 513 -96 513 -160 q 495 -49 513 -68 q 453 -29 478 -29 z "},"Ņ":{"ha":931,"x_min":136,"x_max":796,"o":"m 232 749 l 749 0 l 796 0 l 796 944 l 718 944 l 718 165 l 671 247 l 183 944 l 136 944 l 136 0 l 213 0 l 213 789 l 232 749 m 489 -29 q 447 -47 464 -29 q 429 -89 429 -64 q 444 -128 429 -110 q 483 -147 460 -146 q 401 -260 482 -212 l 425 -297 q 515 -215 481 -271 q 549 -96 549 -160 q 531 -49 549 -68 q 489 -29 514 -29 z "},"Ŗ":{"ha":800,"x_min":136,"x_max":786,"o":"m 213 0 l 213 397 l 356 397 q 474 408 414 397 l 700 0 l 786 0 l 540 429 q 665 521 619 460 q 711 675 710 582 q 620 881 711 817 q 371 944 529 944 l 136 944 l 136 0 l 213 0 m 374 881 q 633 672 633 881 q 554 511 632 563 q 358 460 476 460 l 213 460 l 213 881 l 374 881 m 458 -29 q 416 -47 433 -29 q 399 -89 399 -64 q 414 -128 399 -110 q 453 -147 429 -146 q 371 -260 451 -212 l 394 -297 q 484 -215 450 -271 q 518 -96 518 -160 q 501 -49 518 -68 q 458 -29 483 -29 z "},"Ț":{"ha":754,"x_min":14,"x_max":740,"o":"m 14 883 l 338 883 l 338 0 l 415 0 l 415 883 l 740 883 l 733 944 l 14 944 l 14 883 m 381 -29 q 338 -47 356 -29 q 321 -89 321 -64 q 336 -128 321 -110 q 375 -147 351 -146 q 293 -260 374 -212 l 317 -297 q 406 -215 372 -271 q 440 -96 440 -160 q 423 -49 440 -68 q 381 -29 406 -29 z "},"ģ":{"ha":708,"x_min":53,"x_max":606,"o":"m 358 793 q 315 813 332 793 q 299 861 299 832 q 333 979 299 924 q 421 1063 367 1035 l 446 1024 q 363 913 367 976 q 402 892 388 911 q 417 853 417 874 q 401 810 417 828 q 358 793 385 793 m 606 -86 q 533 -254 606 -189 q 331 -319 460 -319 q 212 -303 285 -319 q 101 -262 139 -286 l 128 -207 q 222 -242 178 -231 q 328 -256 267 -254 q 473 -214 417 -256 q 529 -93 529 -172 l 529 49 q 350 -18 449 -18 q 129 79 206 -18 q 53 339 53 176 q 88 520 53 440 q 192 646 124 600 q 358 692 261 692 q 542 619 447 692 l 560 674 l 606 674 l 606 -86 m 350 46 q 449 67 407 46 q 529 129 490 89 l 529 556 q 449 608 490 589 q 354 628 408 628 q 190 547 247 628 q 131 340 132 465 q 186 128 131 210 q 350 46 242 46 z "},"ķ":{"ha":629,"x_min":108,"x_max":629,"o":"m 286 379 l 536 0 l 629 0 l 336 429 l 550 644 l 497 692 l 185 368 l 185 981 l 108 967 l 108 0 l 185 0 l 185 276 l 286 379 m 357 -29 q 315 -47 332 -29 q 297 -89 297 -64 q 313 -128 297 -110 q 351 -147 328 -146 q 269 -260 350 -212 l 293 -297 q 383 -215 349 -271 q 417 -96 417 -160 q 399 -49 417 -68 q 357 -29 382 -29 z "},"ļ":{"ha":292,"x_min":61,"x_max":208,"o":"m 108 967 l 108 0 l 185 0 l 185 981 l 108 967 m 149 -29 q 106 -47 124 -29 q 89 -89 89 -64 q 104 -128 89 -110 q 143 -147 119 -146 q 61 -260 142 -212 l 85 -297 q 174 -215 140 -271 q 208 -96 208 -160 q 191 -49 208 -68 q 149 -29 174 -29 z "},"ņ":{"ha":704,"x_min":94,"x_max":617,"o":"m 171 490 q 290 589 225 551 q 411 626 356 626 q 540 460 540 626 l 540 0 l 617 0 l 617 468 q 567 631 617 571 q 413 692 517 692 q 282 656 351 692 q 169 569 213 621 l 156 674 l 94 674 l 94 0 l 171 0 l 171 490 m 361 -29 q 319 -47 336 -29 q 301 -89 301 -64 q 317 -128 301 -110 q 356 -147 332 -146 q 274 -260 354 -212 l 297 -297 q 387 -215 353 -271 q 421 -96 421 -160 q 403 -49 421 -68 q 361 -29 386 -29 z "},"ŗ":{"ha":425,"x_min":47,"x_max":411,"o":"m 171 489 q 283 575 214 536 q 411 614 351 614 l 388 674 q 277 640 340 674 q 167 567 214 606 l 142 674 l 94 674 l 94 0 l 171 0 l 171 489 m 135 -29 q 92 -47 110 -29 q 75 -89 75 -64 q 90 -128 75 -110 q 129 -147 106 -146 q 47 -260 128 -212 l 71 -297 q 160 -215 126 -271 q 194 -96 194 -160 q 177 -49 194 -68 q 135 -29 160 -29 z "},"ț":{"ha":410,"x_min":26,"x_max":371,"o":"m 203 865 l 126 835 l 126 656 l 26 656 l 26 599 l 126 599 l 126 161 q 167 28 126 75 q 279 -18 208 -18 q 333 -11 306 -18 q 371 -1 367 -1 l 354 60 q 297 47 325 47 q 226 82 249 47 q 203 171 203 117 l 203 599 l 354 599 l 325 656 l 203 656 l 203 865 m 254 -29 q 212 -47 229 -29 q 194 -89 194 -64 q 210 -128 194 -110 q 249 -147 225 -146 q 167 -260 247 -212 l 190 -297 q 280 -215 246 -271 q 314 -96 314 -160 q 297 -49 314 -68 q 254 -29 279 -29 z "},"அ":{"ha":1467,"x_min":53,"x_max":1331,"o":"m 1331 -175 l 1263 -175 l 1263 118 l 1000 118 q 794 -115 938 -29 q 457 -200 650 -200 q 248 -169 340 -200 q 104 -83 156 -137 q 53 40 53 -28 q 92 138 53 101 q 206 174 132 174 l 943 174 q 965 319 965 247 q 927 503 965 422 q 818 629 889 583 q 651 675 747 675 q 541 658 592 675 q 454 611 490 642 q 499 617 482 617 q 622 572 572 617 q 671 460 671 526 q 622 342 671 388 q 496 296 572 296 q 372 342 421 296 q 322 460 322 389 q 365 602 322 539 q 484 701 408 665 q 651 738 560 738 q 856 684 768 738 q 992 535 944 631 q 1040 319 1040 440 q 1019 174 1040 243 l 1263 174 l 1263 713 l 1331 713 l 1331 -175 m 603 457 q 572 532 603 503 q 494 561 542 561 q 417 532 447 561 q 386 457 386 503 q 417 382 386 411 q 496 353 447 353 q 573 382 543 353 q 603 457 603 411 m 457 -137 q 740 -69 618 -137 q 919 118 861 0 l 210 118 q 126 40 126 118 q 168 -49 126 -8 q 285 -114 210 -90 q 457 -137 360 -137 z "},"ஆ":{"ha":1744,"x_min":53,"x_max":1731,"o":"m 1506 122 q 1669 56 1608 122 q 1731 -117 1731 -11 q 1665 -326 1731 -233 q 1485 -472 1600 -419 q 1228 -524 1371 -524 q 1073 -500 1142 -524 q 965 -434 1004 -476 q 926 -337 926 -392 q 975 -228 926 -271 q 1099 -185 1024 -185 l 1128 -185 l 1128 -240 l 1099 -240 q 1027 -267 1054 -240 q 1000 -337 1000 -294 q 1064 -427 1000 -393 q 1228 -461 1128 -461 q 1449 -417 1351 -461 q 1602 -294 1547 -372 q 1657 -115 1657 -215 q 1615 10 1657 -39 q 1501 58 1574 58 q 1379 5 1428 58 q 1331 -131 1331 -49 l 1331 -175 l 1263 -175 l 1263 118 l 1000 118 q 794 -115 938 -29 q 457 -200 650 -200 q 248 -169 340 -200 q 104 -83 156 -137 q 53 40 53 -28 q 92 138 53 101 q 206 174 132 174 l 943 174 q 965 319 965 247 q 927 503 965 422 q 818 629 889 583 q 651 675 747 675 q 541 658 592 675 q 454 611 490 642 q 499 617 482 617 q 622 572 572 617 q 671 460 671 526 q 622 342 671 388 q 496 296 572 296 q 372 342 421 296 q 322 460 322 389 q 365 602 322 539 q 484 701 408 665 q 651 738 560 738 q 856 684 768 738 q 992 535 944 631 q 1040 319 1040 440 q 1019 174 1040 243 l 1263 174 l 1263 713 l 1331 713 l 1331 39 q 1406 100 1361 78 q 1506 122 1451 122 m 603 457 q 572 532 603 503 q 494 561 542 561 q 417 532 447 561 q 386 457 386 503 q 417 382 386 411 q 496 353 447 353 q 573 382 543 353 q 603 457 603 411 m 457 -137 q 740 -69 618 -137 q 919 118 861 0 l 210 118 q 126 40 126 118 q 168 -49 126 -8 q 285 -114 210 -90 q 457 -137 360 -137 z "},"ஐ":{"ha":1161,"x_min":81,"x_max":1081,"o":"m 1008 140 q 1049 35 1036 82 q 1061 -69 1061 -11 q 994 -224 1061 -164 q 818 -285 928 -285 q 589 -158 664 -285 q 343 -285 510 -285 q 207 -253 267 -285 q 114 -167 147 -222 q 81 -44 81 -112 q 456 240 81 189 l 706 274 q 928 350 851 293 q 1007 497 1006 407 q 960 625 1007 575 q 838 675 913 675 q 698 619 753 675 q 643 476 643 563 l 643 381 l 574 381 l 574 476 q 517 619 574 563 q 372 675 461 675 q 268 656 313 675 q 196 601 224 636 q 238 607 214 607 q 340 569 300 607 q 379 472 379 532 q 338 378 379 415 q 235 340 297 340 q 131 378 172 340 q 90 475 90 415 q 126 610 90 550 q 227 703 163 669 q 372 738 292 738 q 608 606 521 738 q 838 738 690 738 q 963 706 907 738 q 1049 620 1018 675 q 1081 497 1081 565 q 988 309 1081 379 q 706 213 896 239 l 456 179 q 233 103 311 160 q 154 -44 156 46 q 206 -172 154 -122 q 343 -222 258 -222 q 495 -166 436 -222 q 554 -24 554 -110 l 554 72 l 624 72 l 624 -24 q 677 -167 624 -111 q 818 -222 731 -222 q 942 -180 896 -222 q 988 -69 988 -137 q 974 29 988 -26 q 939 132 961 85 l 1008 140 m 238 551 q 180 531 203 551 q 156 479 157 511 l 156 471 q 178 417 156 439 q 235 396 200 396 q 290 417 268 396 q 314 469 313 438 q 292 528 314 506 q 238 551 271 551 z "},"ஔ":{"ha":2799,"x_min":81,"x_max":2785,"o":"m 744 185 q 918 7 744 7 l 1003 7 l 1003 -49 l 918 -49 q 828 -37 869 -49 l 828 -69 q 794 -190 828 -136 q 703 -274 761 -243 q 571 -304 644 -304 q 439 -274 497 -304 q 348 -190 381 -243 q 315 -69 315 -136 l 315 0 l 383 0 l 383 -69 q 436 -194 383 -146 q 571 -243 489 -243 q 706 -194 653 -243 q 760 -69 760 -146 l 760 -4 q 682 185 682 53 l 682 374 l 749 374 q 783 276 750 314 q 867 238 815 238 q 949 279 922 238 q 976 392 976 321 q 923 539 976 474 q 776 641 869 604 q 565 678 682 678 q 351 639 446 678 q 202 531 256 600 q 149 374 149 461 q 150 344 149 354 q 205 431 163 399 q 307 464 247 464 q 428 418 381 464 q 476 301 476 372 q 428 187 476 232 q 303 142 379 142 q 190 172 240 142 q 110 254 139 201 q 81 374 81 307 q 143 563 81 479 q 316 694 206 647 q 565 742 426 742 q 815 697 704 742 q 988 572 925 651 q 1050 392 1050 492 q 1001 235 1050 296 q 867 175 953 175 q 744 228 793 175 l 744 185 m 306 406 q 228 376 258 406 q 199 301 199 347 q 228 228 199 257 q 303 199 257 199 q 377 228 347 199 q 408 301 407 257 q 379 376 408 347 q 306 406 350 406 m 2511 657 l 2511 0 l 2442 0 l 2442 657 l 2071 657 l 2071 0 l 2003 0 l 2003 317 q 1956 501 2003 419 q 1828 629 1910 583 q 1647 675 1747 675 q 1454 631 1536 675 q 1328 508 1372 586 q 1285 329 1285 429 q 1314 188 1285 251 q 1397 86 1343 125 q 1367 194 1367 136 q 1396 307 1367 257 q 1477 385 1425 357 q 1593 414 1529 414 q 1713 385 1660 414 q 1797 307 1767 357 q 1826 193 1826 257 q 1797 81 1826 131 q 1713 3 1767 31 q 1593 -25 1660 -25 q 1389 20 1475 -25 q 1257 146 1303 65 q 1211 329 1211 226 q 1264 540 1211 447 q 1415 685 1317 633 q 1647 738 1514 738 q 1855 685 1761 738 q 2003 539 1949 632 l 2003 713 l 2778 713 l 2785 657 l 2511 657 m 1431 194 q 1476 76 1431 122 q 1593 31 1522 31 q 1711 76 1665 31 q 1757 193 1757 122 q 1711 310 1757 264 q 1593 357 1665 357 q 1476 311 1522 357 q 1431 194 1431 265 z "},"ச":{"ha":929,"x_min":67,"x_max":878,"o":"m 636 347 l 636 285 q 552 56 636 138 q 328 -25 468 -25 q 191 3 250 -25 q 99 79 132 31 q 67 189 67 128 q 110 318 67 264 q 231 393 153 372 l 231 713 l 871 713 l 878 657 l 636 657 l 636 403 l 871 403 l 878 347 l 636 347 m 318 403 l 567 403 l 567 657 l 300 657 l 300 403 l 318 403 m 321 347 q 188 303 235 347 q 140 188 140 260 q 192 79 140 121 q 328 38 243 38 q 502 102 438 38 q 567 285 567 167 l 567 347 l 321 347 z "},"எ":{"ha":1176,"x_min":81,"x_max":1163,"o":"m 888 657 l 888 0 l 819 0 l 819 657 l 540 657 q 252 569 350 657 q 154 329 154 481 q 183 188 154 251 q 267 86 213 125 q 236 194 236 136 q 265 307 236 257 q 347 385 294 357 q 463 414 399 414 q 583 385 529 414 q 666 307 636 357 q 696 193 696 257 q 666 81 696 131 q 583 3 636 31 q 463 -25 529 -25 q 258 20 344 -25 q 126 146 172 65 q 81 329 81 226 q 195 608 81 504 q 528 713 310 713 l 1156 713 l 1163 657 l 888 657 m 300 194 q 346 76 300 122 q 463 31 392 31 q 581 76 535 31 q 626 193 626 122 q 581 310 626 264 q 463 357 535 357 q 346 311 392 357 q 300 194 300 265 z "},"ஏ":{"ha":1176,"x_min":81,"x_max":1163,"o":"m 888 657 l 888 36 q 881 -58 888 -24 q 855 -117 875 -93 q 793 -160 835 -142 l 346 -347 l 314 -296 l 739 -115 q 803 -63 788 -94 q 819 36 819 -32 l 819 657 l 540 657 q 252 569 350 657 q 154 329 154 481 q 183 188 154 251 q 267 86 213 125 q 236 194 236 136 q 265 307 236 257 q 347 385 294 357 q 463 414 399 414 q 583 385 529 414 q 666 307 636 357 q 696 193 696 257 q 666 81 696 131 q 583 3 636 31 q 463 -25 529 -25 q 258 20 344 -25 q 126 146 172 65 q 81 329 81 226 q 195 608 81 504 q 528 713 310 713 l 1156 713 l 1163 657 l 888 657 m 300 194 q 346 76 300 122 q 463 31 392 31 q 581 76 535 31 q 626 193 626 122 q 581 310 626 264 q 463 357 535 357 q 346 311 392 357 q 300 194 300 265 z "},"ஹ":{"ha":2133,"x_min":81,"x_max":2053,"o":"m 1768 738 q 1980 623 1907 738 q 2053 321 2053 508 q 2003 35 2053 158 q 1851 -158 1953 -89 q 1601 -228 1750 -228 l 364 -228 q 226 -258 285 -228 q 135 -337 167 -287 l 81 -307 q 188 -210 115 -247 q 356 -172 261 -172 l 1601 -172 q 1885 -38 1792 -172 q 1979 321 1979 96 q 1927 578 1979 482 q 1774 674 1875 674 q 1657 624 1700 674 q 1614 478 1614 575 l 1614 0 l 1546 0 l 1546 440 q 1502 610 1546 546 q 1381 675 1458 675 q 1229 463 1229 675 l 1229 0 l 757 0 l 757 56 q 841 188 810 111 q 872 354 872 264 q 828 519 872 446 q 706 633 785 592 q 524 675 626 675 q 327 631 411 675 q 199 508 243 586 q 154 329 154 429 q 183 188 154 251 q 267 86 213 125 q 236 194 236 136 q 265 307 236 257 q 347 385 294 357 q 463 414 399 414 q 583 385 529 414 q 666 307 636 357 q 696 193 696 257 q 666 81 696 131 q 583 3 636 31 q 463 -25 529 -25 q 258 20 344 -25 q 126 146 172 65 q 81 329 81 226 q 135 540 81 447 q 289 685 189 633 q 524 738 389 738 q 742 688 646 738 q 892 551 839 639 q 946 354 946 464 q 919 191 946 269 q 846 56 892 113 l 1161 56 l 1161 463 q 1219 667 1161 597 q 1376 738 1276 738 q 1492 703 1443 738 q 1571 608 1542 669 q 1651 704 1599 671 q 1768 738 1703 738 m 300 194 q 346 76 300 122 q 463 31 392 31 q 581 76 535 31 q 626 193 626 122 q 581 310 626 264 q 463 357 535 357 q 346 311 392 357 q 300 194 300 265 z "},"இ":{"ha":1435,"x_min":53,"x_max":1299,"o":"m 750 988 q 1031 926 906 988 q 1227 753 1156 865 q 1299 497 1299 642 l 1299 -206 l 1231 -206 l 1231 494 q 1169 722 1231 625 q 998 872 1107 819 q 750 925 889 925 q 485 874 600 925 q 306 723 369 822 q 242 485 242 624 q 324 163 242 318 q 614 211 461 211 q 817 181 718 211 q 907 444 907 328 q 847 612 907 549 q 678 675 788 675 q 492 606 557 675 q 550 617 521 617 q 673 572 624 617 q 722 460 722 526 q 673 342 722 388 q 547 296 624 296 q 423 342 472 296 q 374 460 374 389 q 413 602 374 539 q 521 701 451 665 q 678 738 590 738 q 901 656 821 738 q 981 444 981 575 q 955 306 981 379 q 882 157 929 232 q 1049 35 986 111 q 1111 -132 1111 -40 q 1058 -236 1111 -197 q 913 -275 1006 -275 q 556 -174 728 -275 q 251 -275 393 -275 q 106 -236 158 -275 q 53 -132 53 -197 q 108 19 53 -50 q 260 135 163 88 q 169 485 169 304 q 244 753 169 640 q 450 927 318 867 q 750 988 582 988 m 546 561 q 468 532 499 561 q 438 457 438 503 q 468 382 438 411 q 547 353 499 353 q 624 382 594 353 q 654 457 654 411 q 624 532 654 503 q 546 561 593 561 m 614 149 q 357 107 478 149 q 556 -97 436 -17 q 781 125 683 -7 q 614 149 699 149 m 1038 -132 q 985 3 1038 -58 q 846 101 933 64 q 614 -133 747 -35 q 913 -212 758 -212 q 1038 -132 1038 -212 m 251 -212 q 497 -135 368 -212 q 293 79 375 -47 q 171 -14 215 40 q 126 -132 126 -68 q 251 -212 126 -212 z "},"ஈ":{"ha":1029,"x_min":136,"x_max":1015,"o":"m 597 0 l 597 657 l 204 657 l 204 0 l 136 0 l 136 713 l 1008 713 l 1015 657 l 665 657 l 665 0 l 597 0 m 400 268 q 439 284 424 268 q 454 322 454 300 q 438 359 454 344 q 400 374 422 374 q 362 359 376 374 q 347 322 347 344 q 362 283 347 299 q 400 268 376 268 m 861 268 q 900 284 885 268 q 915 322 915 300 q 899 359 915 344 q 861 374 883 374 q 824 359 839 374 q 808 322 808 344 q 824 283 808 299 q 861 268 839 268 z "},"ஜ":{"ha":1161,"x_min":81,"x_max":1081,"o":"m 879 97 q 1025 45 969 97 q 1081 -89 1081 -7 q 1014 -226 1081 -172 q 843 -281 947 -281 l 674 -281 l 674 -225 l 843 -225 q 963 -187 918 -225 q 1007 -89 1007 -149 q 974 1 1007 -33 q 879 35 940 35 q 769 -1 822 35 q 635 -111 715 -37 q 472 -240 542 -196 q 324 -285 403 -285 q 147 -217 214 -285 q 81 -44 81 -150 q 456 240 81 189 l 706 274 q 928 350 851 293 q 1007 497 1006 407 q 960 625 1007 575 q 838 675 913 675 q 698 619 753 675 q 643 476 643 563 l 643 381 l 574 381 l 574 476 q 517 619 574 563 q 372 675 461 675 q 268 656 313 675 q 196 601 224 636 q 238 607 214 607 q 340 569 300 607 q 379 472 379 532 q 338 378 379 415 q 235 340 297 340 q 131 378 172 340 q 90 475 90 415 q 126 610 90 550 q 227 703 163 669 q 372 738 292 738 q 608 606 521 738 q 838 738 690 738 q 963 706 907 738 q 1049 620 1018 675 q 1081 497 1081 565 q 988 309 1081 379 q 706 213 896 239 l 456 179 q 233 103 311 160 q 154 -44 156 46 q 200 -173 154 -124 q 324 -222 246 -222 q 440 -185 383 -222 q 585 -69 497 -147 q 742 55 676 13 q 879 97 808 97 m 238 551 q 180 531 203 551 q 156 479 157 511 l 156 471 q 178 417 156 439 q 235 396 200 396 q 290 417 268 396 q 314 469 313 438 q 292 528 314 506 q 238 551 271 551 z "},"க":{"ha":1013,"x_min":67,"x_max":960,"o":"m 701 403 q 890 345 821 403 q 960 194 960 288 q 885 36 960 97 q 685 -25 811 -25 l 685 31 q 833 76 781 31 q 886 194 886 121 q 838 305 886 263 q 703 347 790 347 l 636 347 l 636 285 q 552 56 636 138 q 328 -25 468 -25 q 191 3 250 -25 q 99 79 132 31 q 67 189 67 128 q 110 318 67 264 q 231 393 153 372 l 231 713 l 871 713 l 878 657 l 636 657 l 636 403 l 701 403 m 318 403 l 567 403 l 567 657 l 300 657 l 300 403 l 318 403 m 321 347 q 188 303 235 347 q 140 188 140 260 q 192 79 140 121 q 328 38 243 38 q 502 102 438 38 q 567 285 567 167 l 567 347 l 321 347 z "},"ல":{"ha":1396,"x_min":81,"x_max":1315,"o":"m 1197 732 q 1285 526 1256 636 q 1315 326 1315 415 q 1253 68 1315 161 q 1067 -25 1190 -25 q 887 55 950 -25 q 824 292 824 135 l 824 357 q 736 590 824 504 q 503 675 649 675 q 317 631 396 675 q 196 510 238 588 q 154 331 154 432 q 183 190 154 253 q 267 89 211 128 q 236 194 236 138 q 265 307 236 257 q 347 385 294 357 q 463 414 399 414 q 583 385 529 414 q 666 307 636 357 q 696 193 696 257 q 666 81 696 131 q 583 3 636 31 q 463 -25 529 -25 q 258 21 344 -25 q 126 147 172 67 q 81 331 81 228 q 132 541 81 449 q 279 685 183 633 q 503 738 375 738 q 707 691 618 738 q 844 558 796 644 q 893 357 893 472 l 893 292 q 938 101 893 164 q 1067 38 982 38 q 1199 114 1154 38 q 1243 324 1243 190 q 1214 524 1243 413 q 1129 713 1185 635 l 1197 732 m 300 194 q 346 76 300 122 q 463 31 392 31 q 581 76 535 31 q 626 193 626 122 q 581 310 626 264 q 463 357 535 357 q 346 311 392 357 q 300 194 300 265 z "},"ள":{"ha":1668,"x_min":81,"x_max":1654,"o":"m 1381 657 l 1381 0 l 1311 0 l 1311 657 l 940 657 l 940 0 l 872 0 l 872 317 q 826 501 872 419 q 698 629 779 583 q 517 675 617 675 q 324 631 406 675 q 198 508 242 586 q 154 329 154 429 q 183 188 154 251 q 267 86 213 125 q 236 194 236 136 q 265 307 236 257 q 347 385 294 357 q 463 414 399 414 q 583 385 529 414 q 666 307 636 357 q 696 193 696 257 q 666 81 696 131 q 583 3 636 31 q 463 -25 529 -25 q 258 20 344 -25 q 126 146 172 65 q 81 329 81 226 q 133 540 81 447 q 285 685 186 633 q 517 738 383 738 q 724 685 631 738 q 872 539 818 632 l 872 713 l 1647 713 l 1654 657 l 1381 657 m 300 194 q 346 76 300 122 q 463 31 392 31 q 581 76 535 31 q 626 193 626 122 q 581 310 626 264 q 463 357 535 357 q 346 311 392 357 q 300 194 300 265 z "},"ழ":{"ha":1106,"x_min":136,"x_max":1025,"o":"m 588 -69 q 607 -155 588 -128 q 668 -182 626 -182 l 908 -182 l 914 -237 l 664 -237 q 567 -369 639 -319 q 408 -419 494 -419 q 238 -362 299 -419 q 176 -210 176 -304 l 244 -210 q 287 -316 244 -276 q 410 -356 329 -356 q 523 -324 472 -356 q 600 -226 574 -293 q 534 -165 550 -204 q 518 -60 518 -125 l 518 0 l 136 0 l 136 713 l 204 719 l 204 56 l 518 56 l 518 489 q 578 674 518 611 q 739 738 639 738 q 892 684 828 738 q 991 536 957 631 q 1025 321 1025 442 q 958 88 1025 175 q 756 0 890 0 l 588 0 l 588 -69 m 756 56 q 905 126 858 56 q 951 321 951 197 q 896 577 951 479 q 743 675 840 675 q 630 630 672 675 q 588 492 588 585 l 588 56 l 756 56 z "},"ம":{"ha":1106,"x_min":136,"x_max":1025,"o":"m 739 738 q 892 684 828 738 q 991 536 957 631 q 1025 321 1025 442 q 958 88 1025 175 q 756 0 890 0 l 136 0 l 136 713 l 204 719 l 204 56 l 518 56 l 518 489 q 578 674 518 611 q 739 738 639 738 m 756 56 q 905 126 858 56 q 951 321 951 197 q 896 577 951 479 q 743 675 840 675 q 630 630 672 675 q 588 492 588 585 l 588 56 l 756 56 z "},"ந":{"ha":1028,"x_min":136,"x_max":947,"o":"m 718 485 q 888 401 829 485 q 947 176 947 317 q 903 -31 947 61 q 773 -175 860 -122 q 563 -228 686 -228 l 421 -228 q 282 -258 342 -228 q 190 -337 222 -287 l 136 -307 q 244 -210 171 -247 q 411 -172 317 -172 l 563 -172 q 734 -126 664 -172 q 839 -1 804 -81 q 874 178 874 78 q 834 356 874 290 q 714 422 794 422 q 592 368 640 422 q 543 232 543 314 l 543 0 l 475 0 l 475 657 l 204 657 l 204 0 l 136 0 l 136 713 l 811 713 l 817 657 l 543 657 l 543 401 q 619 463 574 440 q 718 485 664 485 z "},"ங":{"ha":1321,"x_min":136,"x_max":1185,"o":"m 1185 0 l 475 0 l 475 56 l 646 56 q 808 117 747 56 q 869 272 869 178 q 829 397 869 349 q 717 444 789 444 q 592 390 640 444 q 543 254 543 336 l 543 203 l 475 203 l 475 657 l 204 657 l 204 0 l 136 0 l 136 713 l 811 713 l 817 657 l 543 657 l 543 424 q 621 485 575 463 q 721 507 667 507 q 883 441 824 507 q 943 271 943 375 q 915 145 943 200 q 832 56 886 90 l 1117 56 l 1117 713 l 1185 713 l 1185 0 z "},"ண":{"ha":2322,"x_min":81,"x_max":2308,"o":"m 2033 657 l 2033 0 l 1964 0 l 1964 657 l 1824 657 q 1597 601 1696 657 q 1703 439 1665 533 q 1740 238 1740 344 q 1681 48 1740 121 q 1524 -25 1622 -25 q 1369 48 1426 -25 q 1311 238 1311 121 q 1358 444 1311 349 q 1490 604 1406 539 q 1260 675 1389 675 q 1025 606 1125 675 q 1160 441 1111 536 q 1208 238 1208 346 q 1150 48 1208 121 q 994 -25 1092 -25 q 837 48 896 -25 q 778 238 778 121 q 815 437 778 343 q 919 600 851 531 q 621 675 789 675 q 374 629 479 675 q 211 502 268 583 q 154 317 154 421 q 183 185 154 244 q 267 88 213 126 q 236 194 236 136 q 265 307 236 257 q 347 385 294 357 q 463 414 399 414 q 583 385 529 414 q 666 307 636 357 q 696 193 696 257 q 666 81 696 131 q 583 3 636 31 q 463 -25 529 -25 q 262 19 349 -25 q 128 142 175 64 q 81 317 81 219 q 147 533 81 438 q 337 683 214 629 q 621 738 460 738 q 971 644 815 738 q 1260 738 1093 738 q 1550 643 1425 738 q 1824 713 1672 713 l 2301 713 l 2308 657 l 2033 657 m 1667 238 q 1633 419 1667 335 q 1539 563 1600 503 q 1426 421 1467 506 q 1385 238 1385 336 q 1422 93 1385 149 q 1524 38 1458 38 q 1628 94 1589 38 q 1667 238 1667 150 m 1133 238 q 1092 420 1133 336 q 975 563 1050 504 q 883 419 915 503 q 851 238 851 335 q 890 94 851 150 q 994 38 929 38 q 1097 93 1060 38 q 1133 238 1133 149 m 300 194 q 346 76 300 122 q 463 31 392 31 q 581 76 535 31 q 626 193 626 122 q 581 310 626 264 q 463 357 535 357 q 346 311 392 357 q 300 194 300 265 z "},"ன":{"ha":1789,"x_min":81,"x_max":1775,"o":"m 1500 657 l 1500 0 l 1432 0 l 1432 657 l 1290 657 q 1044 590 1153 657 q 1165 431 1122 522 q 1208 238 1208 340 q 1150 48 1208 121 q 993 -25 1092 -25 q 836 48 894 -25 q 778 238 778 121 q 820 433 778 342 q 939 589 863 524 q 621 675 801 675 q 374 629 479 675 q 211 502 268 583 q 154 317 154 421 q 183 185 154 244 q 267 88 213 126 q 236 194 236 136 q 265 307 236 257 q 347 385 294 357 q 463 414 399 414 q 583 385 529 414 q 666 307 636 357 q 696 193 696 257 q 666 81 696 131 q 583 3 636 31 q 463 -25 529 -25 q 262 19 349 -25 q 128 142 175 64 q 81 317 81 219 q 147 533 81 438 q 337 683 214 629 q 621 738 460 738 q 822 709 728 738 q 993 629 917 681 q 1290 713 1125 713 l 1769 713 l 1775 657 l 1500 657 m 1133 238 q 1096 411 1133 331 q 990 550 1058 492 q 888 411 924 492 q 851 238 851 331 q 890 93 851 149 q 993 38 928 38 q 1096 93 1058 38 q 1133 238 1133 149 m 300 194 q 346 76 300 122 q 463 31 392 31 q 581 76 535 31 q 626 193 626 122 q 581 310 626 264 q 463 357 535 357 q 346 311 392 357 q 300 194 300 265 z "},"ஞ":{"ha":1664,"x_min":108,"x_max":1583,"o":"m 1354 485 q 1523 402 1463 485 q 1583 190 1583 319 q 1497 -97 1583 25 q 1253 -284 1411 -219 q 883 -349 1094 -349 q 474 -276 649 -349 q 203 -69 299 -204 q 108 251 108 67 q 165 511 108 375 q 306 726 221 647 l 376 713 q 238 512 293 644 q 182 249 182 379 q 268 -37 182 83 q 513 -221 354 -157 q 883 -285 671 -285 q 1215 -228 1074 -285 q 1433 -63 1356 -171 q 1510 193 1510 44 q 1469 358 1510 293 q 1351 422 1429 422 q 1228 368 1276 422 q 1179 232 1179 314 l 1179 0 l 1111 0 l 1111 657 l 863 657 q 574 569 672 657 q 476 329 476 481 q 506 188 476 251 q 592 86 536 125 q 560 194 560 133 q 624 352 560 290 q 786 414 688 414 q 906 385 853 414 q 990 307 960 357 q 1019 193 1019 257 q 990 81 1019 131 q 906 3 960 31 q 786 -25 853 -25 q 581 20 668 -25 q 449 146 494 65 q 403 329 403 226 q 453 531 403 444 q 604 665 504 617 q 850 713 704 713 l 1447 713 l 1454 657 l 1179 657 l 1179 401 q 1255 463 1210 440 q 1354 485 1300 485 m 622 194 q 668 76 622 122 q 786 31 714 31 q 903 76 857 31 q 949 193 949 122 q 903 310 949 264 q 786 357 857 357 q 668 311 714 357 q 622 194 622 265 z "},"ஒ":{"ha":1131,"x_min":81,"x_max":1050,"o":"m 744 185 q 918 7 744 7 l 1003 7 l 1003 -49 l 918 -49 q 828 -37 869 -49 l 828 -69 q 794 -190 828 -136 q 703 -274 761 -243 q 571 -304 644 -304 q 439 -274 497 -304 q 348 -190 381 -243 q 315 -69 315 -136 l 315 0 l 383 0 l 383 -69 q 436 -194 383 -146 q 571 -243 489 -243 q 706 -194 653 -243 q 760 -69 760 -146 l 760 -4 q 682 185 682 53 l 682 374 l 749 374 q 783 276 750 314 q 867 238 815 238 q 949 279 922 238 q 976 392 976 321 q 923 539 976 474 q 776 641 869 604 q 565 678 682 678 q 351 639 446 678 q 202 531 256 600 q 149 374 149 461 q 150 344 149 354 q 205 431 163 399 q 307 464 247 464 q 428 418 381 464 q 476 301 476 372 q 428 187 476 232 q 303 142 379 142 q 190 172 240 142 q 110 254 139 201 q 81 374 81 307 q 143 563 81 479 q 316 694 206 647 q 565 742 426 742 q 815 697 704 742 q 988 572 925 651 q 1050 392 1050 492 q 1001 235 1050 296 q 867 175 953 175 q 744 228 793 175 l 744 185 m 306 406 q 228 376 258 406 q 199 301 199 347 q 228 228 199 257 q 303 199 257 199 q 377 228 347 199 q 408 301 407 257 q 379 376 408 347 q 306 406 350 406 z "},"ௐ":{"ha":1131,"x_min":81,"x_max":1050,"o":"m 744 185 q 918 7 744 7 l 1003 7 l 1003 -49 l 918 -49 q 828 -37 869 -49 l 828 -69 q 794 -190 828 -136 q 703 -274 761 -243 q 571 -304 644 -304 q 439 -274 497 -304 q 348 -190 381 -243 q 315 -69 315 -136 l 315 0 l 383 0 l 383 -69 q 436 -194 383 -146 q 571 -243 489 -243 q 706 -194 653 -243 q 760 -69 760 -146 l 760 -4 q 682 185 682 53 l 682 374 l 749 374 q 783 276 750 314 q 867 238 815 238 q 949 279 922 238 q 976 392 976 321 q 923 539 976 474 q 776 641 869 604 q 565 678 682 678 q 351 639 446 678 q 202 531 256 600 q 149 374 149 461 q 150 344 149 354 q 205 431 163 399 q 307 464 247 464 q 428 418 381 464 q 476 301 476 372 q 428 187 476 232 q 303 142 379 142 q 190 172 240 142 q 110 254 139 201 q 81 374 81 307 q 143 563 81 479 q 316 694 206 647 q 565 742 426 742 q 815 697 704 742 q 988 572 925 651 q 1050 392 1050 492 q 1001 235 1050 296 q 867 175 953 175 q 744 228 793 175 l 744 185 m 306 406 q 228 376 258 406 q 199 301 199 347 q 228 228 199 257 q 303 199 257 199 q 377 228 347 199 q 408 301 407 257 q 379 376 408 347 q 306 406 350 406 m 569 44 q 553 51 560 44 q 547 67 547 57 q 553 83 547 76 q 569 90 560 90 q 585 83 579 90 q 592 67 592 76 q 585 51 592 57 q 569 44 579 44 m 508 -100 l 553 -100 l 553 -43 q 567 3 553 -15 q 610 21 582 21 q 661 -1 643 21 q 679 -57 679 -22 q 660 -111 679 -90 q 607 -132 640 -132 l 474 -132 l 474 15 l 508 17 l 508 -100 m 610 -100 q 635 -88 625 -100 q 644 -57 644 -76 q 637 -23 644 -36 q 614 -10 629 -10 q 588 -44 588 -10 l 588 -100 l 610 -100 z "},"ஓ":{"ha":1131,"x_min":81,"x_max":1050,"o":"m 744 185 q 918 7 744 7 l 1003 7 l 1003 -49 l 918 -49 q 828 -37 869 -49 l 828 -69 q 791 -190 828 -136 q 690 -274 754 -243 q 546 -304 626 -304 q 408 -281 469 -304 q 313 -215 347 -257 q 279 -119 279 -172 q 328 -8 279 -53 q 450 36 376 36 l 479 36 l 479 -19 l 450 -19 q 378 -48 406 -19 q 350 -119 350 -76 q 405 -208 350 -174 q 546 -243 460 -243 q 699 -194 639 -243 q 760 -69 760 -146 l 760 -4 q 682 185 682 53 l 682 374 l 749 374 q 783 276 750 314 q 867 238 815 238 q 949 279 922 238 q 976 392 976 321 q 923 539 976 474 q 776 641 869 604 q 565 678 682 678 q 351 639 446 678 q 202 531 256 600 q 149 374 149 461 q 150 344 149 354 q 205 431 163 399 q 307 464 247 464 q 428 418 381 464 q 476 301 476 372 q 428 187 476 232 q 303 142 379 142 q 190 172 240 142 q 110 254 139 201 q 81 374 81 307 q 143 563 81 479 q 316 694 206 647 q 565 742 426 742 q 815 697 704 742 q 988 572 925 651 q 1050 392 1050 492 q 1001 235 1050 296 q 867 175 953 175 q 744 228 793 175 l 744 185 m 306 406 q 228 376 258 406 q 199 301 199 347 q 228 228 199 257 q 303 199 257 199 q 377 228 347 199 q 408 301 407 257 q 379 376 408 347 q 306 406 350 406 z "},"ப":{"ha":981,"x_min":136,"x_max":846,"o":"m 136 0 l 136 713 l 204 719 l 204 56 l 776 56 l 776 713 l 846 713 l 846 0 l 136 0 z "},"ர":{"ha":931,"x_min":136,"x_max":917,"o":"m 643 36 q 636 -55 643 -22 q 610 -111 629 -87 q 549 -160 590 -135 l 226 -347 l 194 -293 l 506 -111 q 562 -53 549 -85 q 575 46 575 -22 l 575 657 l 204 657 l 204 0 l 136 0 l 136 713 l 911 713 l 917 657 l 643 657 l 643 36 z "},"ற":{"ha":1093,"x_min":122,"x_max":1014,"o":"m 735 738 q 943 624 872 738 q 1014 321 1014 510 q 964 35 1014 158 q 813 -158 914 -89 q 561 -228 711 -228 l 407 -228 q 268 -258 328 -228 q 176 -337 208 -287 l 122 -307 q 230 -210 157 -247 q 397 -172 303 -172 l 561 -172 q 846 -38 751 -172 q 940 321 940 96 q 890 579 940 483 q 739 675 840 675 q 622 624 669 675 q 575 478 575 572 l 575 0 l 507 0 l 507 440 q 463 611 506 547 q 340 675 421 675 q 190 463 190 675 l 190 0 l 122 0 l 122 463 q 180 667 122 597 q 338 738 238 738 q 456 701 406 738 q 535 601 507 665 q 617 702 564 667 q 735 738 669 738 z "},"ஸ":{"ha":1782,"x_min":81,"x_max":1701,"o":"m 1583 732 q 1672 526 1642 636 q 1701 326 1701 415 q 1639 68 1701 161 q 1453 -25 1576 -25 q 1273 55 1336 -25 q 1210 292 1210 135 l 1210 469 q 1173 622 1210 571 q 1067 674 1136 674 q 936 588 979 674 q 893 357 893 501 l 893 0 l 824 0 l 824 357 q 736 590 824 504 q 503 675 649 675 q 317 631 396 675 q 196 510 238 588 q 154 331 154 432 q 183 190 154 253 q 267 89 211 128 q 236 194 236 138 q 265 307 236 257 q 347 385 294 357 q 463 414 399 414 q 583 385 529 414 q 666 307 636 357 q 696 193 696 257 q 666 81 696 131 q 583 3 636 31 q 463 -25 529 -25 q 258 21 344 -25 q 126 147 172 67 q 81 331 81 228 q 132 541 81 449 q 279 685 183 633 q 503 738 375 738 q 715 687 624 738 q 853 543 806 636 q 931 686 878 635 q 1067 738 985 738 q 1222 667 1165 738 q 1279 468 1279 597 l 1279 292 q 1324 101 1279 164 q 1453 38 1368 38 q 1585 113 1540 38 q 1629 324 1629 189 q 1600 524 1629 413 q 1515 713 1571 635 l 1583 732 m 300 194 q 346 76 300 122 q 463 31 392 31 q 581 76 535 31 q 626 193 626 122 q 581 310 626 264 q 463 357 535 357 q 346 311 392 357 q 300 194 300 265 z "},"ஶ":{"ha":1397,"x_min":122,"x_max":1317,"o":"m 1047 713 q 1249 625 1182 713 q 1317 392 1317 538 q 1283 176 1317 271 q 1184 28 1249 82 q 1031 -25 1119 -25 q 870 38 931 -25 q 810 224 810 101 l 810 657 l 583 657 l 583 250 q 521 45 583 115 q 353 -25 458 -25 q 185 45 247 -25 q 122 250 122 115 l 122 713 l 190 719 l 190 250 q 234 90 190 143 q 353 38 278 38 q 472 90 428 38 q 515 250 515 143 l 515 713 l 1047 713 m 1036 38 q 1188 135 1133 38 q 1243 392 1243 233 q 1197 586 1243 515 q 1047 657 1150 657 l 879 657 l 879 221 q 922 83 879 128 q 1036 38 964 38 z "},"ஷ":{"ha":1865,"x_min":81,"x_max":1729,"o":"m 1443 0 l 1443 -337 l 1374 -337 l 1374 0 l 757 0 l 757 56 q 841 188 810 111 q 872 354 872 264 q 828 519 872 446 q 706 633 785 592 q 524 675 626 675 q 327 631 411 675 q 199 508 243 586 q 154 329 154 429 q 183 188 154 251 q 267 86 213 125 q 236 194 236 136 q 265 307 236 257 q 347 385 294 357 q 463 414 399 414 q 583 385 529 414 q 666 307 636 357 q 696 193 696 257 q 666 81 696 131 q 583 3 636 31 q 463 -25 529 -25 q 258 20 344 -25 q 126 146 172 65 q 81 329 81 226 q 135 540 81 447 q 289 685 189 633 q 524 738 389 738 q 742 688 646 738 q 892 551 839 639 q 946 354 946 464 q 919 193 946 271 q 847 56 893 115 l 1374 56 l 1374 294 q 1283 283 1326 283 q 1138 314 1200 283 q 1041 399 1075 344 q 1006 519 1007 453 q 1067 676 1006 615 q 1229 738 1128 738 q 1386 676 1329 738 q 1443 513 1443 614 l 1443 393 q 1565 503 1510 433 q 1660 657 1621 572 l 1729 657 l 1729 0 l 1443 0 m 1283 346 q 1374 361 1328 346 l 1374 506 q 1337 630 1374 585 q 1229 675 1300 675 q 1120 632 1161 675 q 1079 519 1079 589 q 1134 394 1079 443 q 1283 346 1189 346 m 1660 524 q 1563 403 1618 456 q 1443 321 1507 351 l 1443 56 l 1660 56 l 1660 524 m 300 194 q 346 76 300 122 q 463 31 392 31 q 581 76 535 31 q 626 193 626 122 q 581 310 626 264 q 463 357 535 357 q 346 311 392 357 q 300 194 300 265 z "},"த":{"ha":1026,"x_min":67,"x_max":960,"o":"m 672 403 q 822 365 757 403 q 924 258 888 326 q 960 104 960 190 q 910 -67 960 8 q 768 -185 860 -143 q 556 -228 676 -228 l 351 -228 q 213 -258 272 -228 q 121 -337 153 -287 l 67 -307 q 174 -210 101 -247 q 342 -172 247 -172 l 556 -172 q 731 -137 657 -172 q 846 -39 806 -101 q 886 104 886 24 q 828 279 886 211 q 674 347 769 347 l 636 347 l 636 285 q 552 56 636 138 q 328 -25 468 -25 q 191 3 250 -25 q 99 79 132 31 q 67 189 67 128 q 110 318 67 264 q 231 393 153 372 l 231 713 l 871 713 l 878 657 l 636 657 l 636 403 l 672 403 m 318 403 l 567 403 l 567 657 l 300 657 l 300 403 l 318 403 m 321 347 q 188 303 235 347 q 140 188 140 260 q 192 79 140 121 q 328 38 243 38 q 502 102 438 38 q 567 285 567 167 l 567 347 l 321 347 z "},"ட":{"ha":993,"x_min":136,"x_max":979,"o":"m 204 719 l 136 713 l 136 0 l 979 0 l 974 56 l 204 56 l 204 719 z "},"உ":{"ha":1350,"x_min":53,"x_max":1336,"o":"m 1336 0 l 107 0 l 107 56 l 436 56 q 598 97 526 56 q 710 213 669 139 q 750 379 750 286 q 711 532 750 465 q 602 637 672 599 q 440 675 532 675 q 282 641 351 675 q 171 546 213 607 q 278 572 219 572 q 430 517 369 572 q 490 376 490 461 q 429 231 490 288 q 274 175 368 175 q 115 233 178 175 q 53 382 53 292 q 101 565 53 483 q 238 692 150 646 q 440 738 326 738 q 639 691 551 738 q 776 563 726 644 q 825 379 825 482 q 779 187 825 271 q 647 56 733 103 l 1336 56 l 1336 0 m 278 514 q 167 476 210 514 q 124 381 124 439 q 166 277 124 317 q 274 238 208 238 q 377 277 336 238 q 418 376 418 317 q 378 475 418 436 q 278 514 339 514 z "},"ஊ":{"ha":2301,"x_min":53,"x_max":2288,"o":"m 2288 0 l 107 0 l 107 56 l 436 56 q 598 97 526 56 q 710 213 669 139 q 750 379 750 286 q 711 532 750 465 q 602 637 672 599 q 440 675 532 675 q 282 641 351 675 q 171 546 213 607 q 278 572 219 572 q 430 517 369 572 q 490 376 490 461 q 429 231 490 288 q 274 175 368 175 q 115 233 178 175 q 53 382 53 292 q 101 565 53 483 q 238 692 150 646 q 440 738 326 738 q 639 691 551 738 q 776 563 726 644 q 825 379 825 482 q 778 185 825 269 q 646 56 732 101 l 2288 56 l 2288 0 m 1271 113 q 1099 151 1172 113 q 988 256 1026 189 q 949 404 949 322 q 994 574 949 499 q 1119 693 1039 650 q 1303 736 1200 736 q 1469 697 1394 736 q 1588 590 1543 658 l 1588 713 l 2214 713 l 2221 657 l 2024 657 l 2024 136 l 1954 136 l 1954 657 l 1657 657 l 1657 136 l 1588 136 l 1588 399 q 1551 538 1588 475 q 1449 638 1514 601 q 1303 674 1383 674 q 1156 638 1221 674 q 1056 542 1092 603 q 1021 404 1021 481 q 1042 299 1021 347 q 1104 218 1064 250 q 1085 297 1085 254 q 1138 428 1085 376 q 1272 479 1190 479 q 1411 427 1357 479 q 1465 296 1465 375 q 1410 165 1465 217 q 1271 113 1356 113 m 278 514 q 167 476 210 514 q 124 381 124 439 q 166 277 124 317 q 274 238 208 238 q 377 277 336 238 q 418 376 418 317 q 378 475 418 436 q 278 514 339 514 m 1146 297 q 1182 203 1146 240 q 1274 167 1218 167 q 1365 203 1329 167 q 1400 296 1400 239 q 1365 388 1400 351 q 1274 424 1329 424 q 1182 388 1218 424 q 1146 297 1146 351 z "},"வ":{"ha":1415,"x_min":81,"x_max":1279,"o":"m 1279 0 l 757 0 l 757 56 q 841 188 810 111 q 872 354 872 264 q 829 519 872 446 q 708 633 786 592 q 524 675 629 675 q 327 631 411 675 q 199 508 243 586 q 154 329 154 429 q 183 188 154 251 q 267 86 213 125 q 236 194 236 136 q 265 307 236 257 q 347 385 294 357 q 463 414 399 414 q 583 385 529 414 q 666 307 636 357 q 696 193 696 257 q 666 81 696 131 q 583 3 636 31 q 463 -25 529 -25 q 258 20 344 -25 q 126 146 172 65 q 81 329 81 226 q 135 540 81 447 q 289 685 189 633 q 524 738 389 738 q 742 688 646 738 q 892 551 839 639 q 946 354 946 464 q 919 192 946 269 q 846 56 893 114 l 1211 56 l 1211 713 l 1279 713 l 1279 0 m 300 194 q 346 76 300 122 q 463 31 392 31 q 581 76 535 31 q 626 193 626 122 q 581 310 626 264 q 463 357 535 357 q 346 311 392 357 q 300 194 300 265 z "},"ஃ":{"ha":933,"x_min":81,"x_max":853,"o":"m 465 447 q 572 488 529 447 q 615 589 615 528 q 571 691 615 650 q 465 732 526 732 q 363 691 407 732 q 318 589 318 650 q 361 488 318 528 q 465 447 404 447 m 467 506 q 406 529 431 506 q 382 589 382 553 q 406 649 382 625 q 467 674 431 674 q 527 649 503 674 q 551 589 551 625 q 527 529 551 553 q 467 506 503 506 m 228 -19 q 333 21 290 -19 q 376 124 376 61 q 333 225 376 185 q 228 265 289 265 q 124 225 168 265 q 81 124 81 185 q 124 22 81 63 q 228 -19 167 -19 m 704 -19 q 810 22 767 -19 q 853 124 853 63 q 809 225 853 185 q 704 265 765 265 q 600 225 644 265 q 556 124 556 185 q 599 22 556 63 q 704 -19 643 -19 m 228 39 q 168 63 192 39 q 144 124 144 88 q 168 184 144 160 q 228 208 192 208 q 290 184 265 208 q 314 124 314 160 q 290 63 314 88 q 228 39 265 39 m 704 39 q 644 63 668 39 q 621 124 621 88 q 644 183 621 160 q 704 207 668 207 q 765 183 740 207 q 789 124 789 160 q 765 63 789 88 q 704 39 740 39 z "},"ய":{"ha":1246,"x_min":122,"x_max":1110,"o":"m 1110 0 l 531 0 l 531 71 q 353 -25 468 -25 q 184 43 246 -25 q 122 250 122 111 l 122 713 l 190 719 l 190 250 q 353 38 190 38 q 485 102 439 38 q 531 272 531 167 l 531 713 l 600 713 l 600 56 l 1040 56 l 1040 713 l 1110 713 l 1110 0 z "},"௮":{"ha":1467,"x_min":53,"x_max":1331,"o":"m 1331 -175 l 1263 -175 l 1263 118 l 1000 118 q 794 -114 939 -28 q 457 -200 650 -200 q 248 -169 340 -200 q 104 -83 156 -137 q 53 40 53 -28 q 92 137 53 100 q 206 174 132 174 l 456 174 q 356 277 392 213 q 319 422 319 342 q 362 585 319 514 q 480 697 404 657 q 651 738 556 738 q 856 684 768 738 q 992 535 944 631 q 1040 319 1040 440 q 1019 174 1040 243 l 1263 174 l 1263 713 l 1331 713 l 1331 -175 m 943 174 q 965 319 965 239 q 927 503 965 422 q 818 629 889 583 q 651 675 747 675 q 518 642 576 675 q 427 552 460 610 q 394 422 394 494 q 428 294 394 351 q 520 206 461 238 q 653 174 579 174 l 943 174 m 457 -137 q 741 -69 619 -137 q 921 118 863 0 l 210 118 q 126 40 126 118 q 168 -49 126 -8 q 285 -114 210 -90 q 457 -137 360 -137 z "},"௫":{"ha":1700,"x_min":108,"x_max":1565,"o":"m 590 657 l 590 0 l 521 0 l 521 713 l 1219 713 l 1226 657 l 951 657 l 951 401 q 1027 463 982 440 q 1126 485 1072 485 q 1296 400 1236 485 q 1356 176 1356 315 q 1282 -102 1356 17 q 1075 -285 1208 -221 q 767 -349 942 -349 q 415 -262 564 -349 q 188 -19 267 -176 q 108 347 108 139 q 201 731 108 561 q 467 998 293 901 q 881 1094 642 1094 q 1238 1017 1083 1094 q 1479 797 1393 939 q 1565 469 1565 656 l 1565 0 l 1496 0 l 1496 467 q 1419 764 1496 636 q 1202 962 1342 892 q 881 1032 1063 1032 q 505 943 663 1032 q 265 698 347 854 q 182 344 182 542 q 251 13 182 154 q 452 -207 321 -129 q 767 -285 583 -285 q 1038 -229 921 -285 q 1218 -69 1154 -174 q 1282 178 1282 35 q 1242 355 1282 288 q 1124 422 1201 422 q 1000 368 1049 422 q 951 232 951 314 l 951 0 l 883 0 l 883 657 l 590 657 z "},"௪":{"ha":1106,"x_min":67,"x_max":1039,"o":"m 636 347 l 636 285 q 552 56 636 138 q 328 -25 468 -25 q 191 3 250 -25 q 99 79 132 31 q 67 189 67 128 q 110 318 67 264 q 231 393 153 372 l 231 713 l 871 713 l 878 657 l 636 657 l 636 403 l 972 403 l 972 713 l 1039 713 l 1039 347 l 636 347 m 318 403 l 567 403 l 567 657 l 300 657 l 300 403 l 318 403 m 321 347 q 188 303 235 347 q 140 188 140 260 q 192 79 140 121 q 328 38 243 38 q 502 102 438 38 q 567 285 567 167 l 567 347 l 321 347 z "},"௯":{"ha":1289,"x_min":67,"x_max":1236,"o":"m 1014 435 q 1174 369 1113 435 q 1236 201 1236 303 q 1224 97 1236 143 q 1185 -8 1211 51 l 1114 0 q 1149 101 1136 44 q 1163 201 1163 157 q 1123 326 1163 279 q 1014 372 1083 372 q 933 357 972 372 q 1015 265 986 321 q 1044 144 1044 210 q 1001 24 1044 72 q 892 -25 958 -25 q 778 24 822 -25 q 735 144 735 72 q 753 255 735 204 q 807 344 772 306 q 778 347 788 347 l 636 347 l 636 285 q 552 56 636 138 q 328 -25 468 -25 q 191 3 250 -25 q 99 79 132 31 q 67 189 67 128 q 110 318 67 264 q 231 393 153 372 l 231 713 l 871 713 l 878 657 l 636 657 l 636 403 l 776 403 q 861 390 822 403 q 1014 435 926 435 m 318 403 l 567 403 l 567 657 l 300 657 l 300 403 l 318 403 m 321 347 q 188 303 235 347 q 140 188 140 260 q 192 79 140 121 q 328 38 243 38 q 502 102 438 38 q 567 285 567 167 l 567 347 l 321 347 m 969 144 q 945 248 969 201 q 878 321 921 294 q 826 245 844 290 q 807 144 807 200 q 831 69 807 99 q 892 39 854 39 q 948 69 926 39 q 969 144 969 99 z "},"௧":{"ha":1013,"x_min":67,"x_max":960,"o":"m 701 403 q 890 345 821 403 q 960 194 960 288 q 885 36 960 97 q 685 -25 811 -25 l 685 31 q 833 76 781 31 q 886 194 886 121 q 838 305 886 263 q 703 347 790 347 l 636 347 l 636 285 q 552 56 636 138 q 328 -25 468 -25 q 191 3 250 -25 q 99 79 132 31 q 67 189 67 128 q 110 318 67 264 q 231 393 153 372 l 231 713 l 871 713 l 878 657 l 636 657 l 636 403 l 701 403 m 318 403 l 567 403 l 567 657 l 300 657 l 300 403 l 318 403 m 321 347 q 188 303 235 347 q 140 188 140 260 q 192 79 140 121 q 328 38 243 38 q 502 102 438 38 q 567 285 567 167 l 567 347 l 321 347 z "},"௭":{"ha":1019,"x_min":81,"x_max":888,"o":"m 888 0 l 819 0 l 819 657 l 540 657 q 252 569 350 657 q 154 329 154 481 q 183 188 154 251 q 267 86 213 125 q 236 194 236 136 q 265 307 236 257 q 347 385 294 357 q 463 414 399 414 q 583 385 529 414 q 666 307 636 357 q 696 193 696 257 q 666 81 696 131 q 583 3 636 31 q 463 -25 529 -25 q 258 20 344 -25 q 126 146 172 65 q 81 329 81 226 q 195 608 81 504 q 528 713 310 713 l 888 713 l 888 0 m 300 194 q 346 76 300 122 q 463 31 392 31 q 581 76 535 31 q 626 193 626 122 q 581 310 626 264 q 463 357 535 357 q 346 311 392 357 q 300 194 300 265 z "},"௬":{"ha":1449,"x_min":67,"x_max":1435,"o":"m 1435 0 l 1010 0 l 1010 56 q 1154 101 1104 56 q 1204 219 1204 146 q 1164 328 1204 286 q 1054 369 1124 369 q 932 321 979 369 q 885 194 885 272 l 885 0 l 817 0 l 817 194 q 769 304 817 263 q 636 347 722 346 l 636 285 q 552 56 636 138 q 328 -25 468 -25 q 191 3 250 -25 q 99 79 132 31 q 67 189 67 128 q 110 318 67 264 q 231 393 153 372 l 231 713 l 871 713 l 878 657 l 636 657 l 636 403 q 764 378 710 401 q 849 313 818 356 q 933 401 878 368 q 1058 433 989 433 q 1218 374 1158 433 q 1278 218 1278 314 q 1257 125 1278 167 q 1196 56 1236 83 l 1435 56 l 1435 0 m 318 403 l 567 403 l 567 657 l 300 657 l 300 403 l 318 403 m 328 38 q 502 102 438 38 q 567 285 567 167 l 567 347 l 321 347 q 188 303 235 347 q 140 188 140 260 q 192 79 140 121 q 328 38 243 38 z "},"௩":{"ha":1131,"x_min":136,"x_max":1117,"o":"m 1117 0 l 475 0 l 475 56 l 646 56 q 808 117 747 56 q 869 272 869 178 q 829 397 869 349 q 717 444 789 444 q 592 390 640 444 q 543 254 543 336 l 543 203 l 475 203 l 475 657 l 204 657 l 204 0 l 136 0 l 136 713 l 811 713 l 817 657 l 543 657 l 543 424 q 621 485 575 463 q 721 507 667 507 q 883 441 824 507 q 943 271 943 375 q 915 145 943 200 q 832 56 886 90 l 1117 56 l 1117 0 z "},"௨":{"ha":1043,"x_min":53,"x_max":1029,"o":"m 1029 0 l 107 0 l 107 56 l 436 56 q 598 97 526 56 q 710 213 669 139 q 750 379 750 286 q 711 532 750 465 q 602 637 672 599 q 440 675 532 675 q 282 641 351 675 q 171 546 213 607 q 278 572 219 572 q 430 517 369 572 q 490 376 490 461 q 429 231 490 288 q 274 175 368 175 q 115 233 178 175 q 53 382 53 292 q 101 565 53 483 q 238 692 150 646 q 440 738 326 738 q 639 691 551 738 q 776 563 726 644 q 825 379 825 482 q 779 187 825 271 q 647 56 733 103 l 1029 56 l 1029 0 m 278 514 q 167 476 210 514 q 124 381 124 439 q 166 277 124 317 q 274 238 208 238 q 377 277 336 238 q 418 376 418 317 q 378 475 418 436 q 278 514 339 514 z "},"௦":{"ha":1001,"x_min":81,"x_max":921,"o":"m 500 738 q 717 689 621 738 q 867 553 813 640 q 921 357 921 467 q 867 159 921 246 q 717 24 813 72 q 500 -25 621 -25 q 284 24 379 -25 q 135 159 189 72 q 81 357 81 246 q 135 553 81 467 q 284 689 189 640 q 500 738 379 738 m 500 38 q 681 78 601 38 q 803 192 760 119 q 847 357 847 265 q 803 521 847 449 q 681 634 760 593 q 500 675 601 675 q 320 634 399 675 q 198 520 242 593 q 154 357 154 447 q 198 192 154 265 q 320 78 242 119 q 500 38 399 38 z "},"௱":{"ha":1326,"x_min":122,"x_max":1313,"o":"m 1039 657 l 1039 0 l 971 0 l 971 657 l 600 657 l 600 0 l 531 0 l 531 440 q 485 610 531 546 q 353 675 439 675 q 190 463 190 675 l 190 0 l 122 0 l 122 463 q 184 669 122 601 q 353 738 246 738 q 531 642 468 738 l 531 713 l 1306 713 l 1313 657 l 1039 657 z "},"௰":{"ha":1075,"x_min":81,"x_max":994,"o":"m 876 732 q 965 526 935 636 q 994 326 994 415 q 931 68 994 161 q 744 -25 868 -25 q 619 8 672 -25 q 538 104 567 40 q 329 -25 478 -25 q 143 68 206 -25 q 81 326 81 161 q 110 526 81 415 q 197 732 139 636 l 267 713 q 182 524 211 635 q 153 324 153 413 q 197 113 153 189 q 329 38 242 38 q 458 101 414 38 q 503 292 503 164 l 503 469 l 571 469 l 571 292 q 616 101 571 164 q 744 38 661 38 q 876 113 832 38 q 921 324 921 189 q 892 524 921 413 q 807 713 863 635 l 876 732 z "},"௲":{"ha":1444,"x_min":67,"x_max":1392,"o":"m 1160 186 q 1328 119 1264 186 q 1392 -56 1392 51 q 1353 -191 1392 -132 q 1244 -283 1314 -250 q 1082 -315 1174 -315 l 890 -315 q 710 -396 763 -315 l 657 -361 q 744 -288 683 -315 q 886 -261 806 -261 l 1082 -261 q 1253 -203 1189 -261 q 1318 -56 1318 -146 q 1275 78 1318 25 q 1161 132 1232 132 l 1138 132 l 1138 92 q 1068 -86 1138 -21 q 886 -151 999 -151 q 727 -103 786 -151 q 668 21 668 -56 q 723 140 668 94 q 876 186 778 186 l 1068 186 l 1068 347 l 636 347 l 636 285 q 552 56 636 138 q 328 -25 468 -25 q 191 3 250 -25 q 99 79 132 31 q 67 189 67 128 q 110 318 67 264 q 231 393 153 372 l 231 713 l 871 713 l 878 657 l 636 657 l 636 403 l 1329 403 l 1336 347 l 1138 347 l 1138 186 l 1160 186 m 318 403 l 567 403 l 567 657 l 300 657 l 300 403 l 318 403 m 321 347 q 188 303 235 347 q 140 188 140 260 q 192 79 140 121 q 328 38 243 38 q 502 102 438 38 q 567 285 567 167 l 567 347 l 321 347 m 879 132 q 776 101 811 132 q 742 19 742 69 q 780 -58 742 -29 q 886 -87 818 -87 q 1018 -39 968 -87 q 1068 92 1068 10 l 1068 132 l 879 132 z "},"௹":{"ha":1464,"x_min":108,"x_max":1383,"o":"m 1154 485 q 1324 400 1264 485 q 1383 176 1383 315 q 1309 -101 1383 18 q 1101 -285 1235 -221 q 793 -349 967 -349 q 422 -259 575 -349 q 188 -6 268 -169 q 108 381 108 158 q 199 817 108 626 q 450 1114 289 1008 q 814 1219 611 1219 q 1056 1180 949 1219 q 1223 1079 1163 1140 q 1283 954 1283 1018 q 1246 855 1283 893 q 1150 817 1208 817 q 1051 853 1090 817 q 1011 946 1011 890 q 1049 1035 1011 1000 q 1144 1072 1086 1071 q 1000 1133 1088 1111 q 814 1154 913 1154 q 487 1058 631 1154 q 263 785 343 961 q 182 378 182 608 q 252 26 182 175 q 460 -203 322 -122 q 793 -285 597 -285 q 1063 -228 946 -285 q 1245 -68 1181 -172 q 1310 178 1310 36 q 1269 355 1310 288 q 1151 422 1229 422 q 1028 368 1076 422 q 979 232 979 314 l 979 0 l 911 0 l 911 657 l 590 657 l 590 0 l 521 0 l 521 713 l 1247 713 l 1254 657 l 979 657 l 979 401 q 1055 463 1010 440 q 1154 485 1100 485 m 1150 867 q 1206 889 1185 867 q 1228 944 1228 911 q 1206 999 1228 976 q 1150 1021 1185 1021 q 1095 999 1117 1021 q 1074 944 1074 976 q 1095 889 1074 911 q 1150 867 1117 867 z "},"௺":{"ha":1350,"x_min":136,"x_max":1350,"o":"m 1350 783 l 956 783 l 956 839 q 1080 884 1035 839 q 1125 1001 1125 929 q 1072 1113 1125 1069 q 938 1156 1019 1156 q 829 1138 875 1156 q 890 1044 868 1099 q 911 928 911 990 q 868 807 911 856 q 757 758 825 758 q 643 806 686 758 q 600 928 600 854 q 628 1047 600 992 q 706 1142 656 1103 q 629 1156 672 1156 q 470 1093 532 1156 q 408 933 408 1031 q 460 775 408 838 q 593 713 511 713 l 811 713 l 817 657 l 543 657 l 543 401 q 619 463 574 440 q 718 485 664 485 q 888 401 829 485 q 947 176 947 317 q 903 -31 947 61 q 773 -175 860 -122 q 563 -228 686 -228 l 421 -228 q 282 -258 342 -228 q 190 -337 222 -287 l 136 -307 q 244 -210 171 -247 q 411 -172 317 -172 l 563 -172 q 734 -126 664 -172 q 839 -1 804 -81 q 874 178 874 78 q 834 356 874 290 q 714 422 794 422 q 592 368 640 422 q 543 232 543 314 l 543 0 l 475 0 l 475 657 l 204 657 l 204 0 l 136 0 l 136 713 l 433 713 q 360 806 386 749 q 335 933 335 863 q 372 1081 335 1015 q 477 1183 410 1146 q 629 1219 544 1219 q 771 1183 707 1219 q 938 1219 846 1219 q 1072 1192 1013 1219 q 1165 1114 1132 1164 q 1199 1001 1199 1064 q 1119 839 1199 899 l 1350 839 l 1350 783 m 839 928 q 819 1029 839 983 q 765 1106 800 1075 q 698 1029 722 1075 q 674 928 674 983 q 697 851 674 881 q 757 822 719 822 q 816 852 793 822 q 839 928 839 882 z "},"௴":{"ha":1622,"x_min":136,"x_max":1622,"o":"m 1622 783 l 1228 783 l 1228 839 q 1353 884 1308 839 q 1397 1001 1397 929 q 1345 1113 1397 1071 q 1210 1156 1293 1156 q 1101 1138 1150 1156 q 1162 1044 1140 1099 q 1183 928 1183 990 q 1140 807 1183 856 q 1029 758 1097 758 q 915 807 960 758 q 871 928 871 856 q 899 1047 871 992 q 976 1142 926 1103 q 901 1156 944 1156 q 788 1127 839 1156 q 709 1048 738 1099 q 681 933 681 997 q 707 812 681 864 q 782 735 733 760 q 960 603 896 715 q 1025 321 1025 490 q 958 88 1025 175 q 756 0 890 0 l 136 0 l 136 713 l 204 719 l 204 56 l 518 56 l 518 489 q 563 654 518 593 q 683 732 607 715 q 627 820 647 768 q 607 933 607 872 q 644 1081 607 1015 q 749 1183 682 1146 q 901 1219 817 1219 q 1043 1183 979 1219 q 1210 1219 1118 1219 q 1344 1192 1285 1219 q 1438 1114 1404 1164 q 1471 1001 1471 1064 q 1451 908 1471 950 q 1392 839 1431 865 l 1622 839 l 1622 783 m 1110 928 q 1091 1029 1110 983 q 1038 1106 1072 1075 q 970 1029 994 1075 q 946 928 946 983 q 969 851 946 881 q 1029 822 992 822 q 1087 852 1064 822 q 1110 928 1110 882 m 951 321 q 896 577 951 479 q 743 675 840 675 q 630 630 672 675 q 588 492 588 585 l 588 56 l 756 56 q 905 126 858 56 q 951 321 951 197 z "},"௸":{"ha":2518,"x_min":81,"x_max":2383,"o":"m 2097 0 l 2097 -337 l 2028 -337 l 2028 0 l 1428 0 l 1428 56 q 1488 217 1467 131 q 1508 376 1508 304 q 1438 593 1508 511 q 1235 675 1368 675 q 1024 607 1118 675 q 1160 443 1111 539 q 1208 238 1208 347 q 1150 48 1208 121 q 994 -25 1092 -25 q 837 48 896 -25 q 778 238 778 121 q 815 436 778 342 q 919 600 853 531 q 621 675 793 675 q 374 629 479 675 q 211 502 268 583 q 154 317 154 421 q 183 185 154 244 q 267 88 213 126 q 236 194 236 136 q 265 307 236 257 q 347 385 294 357 q 463 414 399 414 q 583 385 529 414 q 666 307 636 357 q 696 193 696 257 q 666 81 696 131 q 583 3 636 31 q 463 -25 529 -25 q 262 19 349 -25 q 128 142 175 64 q 81 317 81 219 q 147 533 81 438 q 337 683 214 629 q 621 738 460 738 q 968 644 818 738 q 1235 738 1088 738 q 1422 691 1344 738 q 1540 563 1500 644 q 1581 374 1581 481 q 1562 219 1581 301 q 1503 56 1543 138 l 2028 56 l 2028 296 q 1936 283 1985 283 q 1790 314 1853 283 q 1694 399 1728 344 q 1658 519 1660 453 q 1719 676 1658 615 q 1882 738 1781 738 q 2040 676 1982 738 q 2097 513 2097 614 l 2097 394 q 2218 502 2163 433 q 2314 657 2274 571 l 2383 657 l 2383 0 l 2097 0 m 1936 346 q 2028 361 1982 346 l 2028 506 q 1990 630 2028 585 q 1882 675 1953 675 q 1774 632 1814 675 q 1733 519 1733 589 q 1788 394 1733 443 q 1936 346 1843 346 m 1133 238 q 1092 420 1133 336 q 974 564 1050 504 q 883 419 915 504 q 851 238 851 335 q 890 94 851 150 q 994 38 929 38 q 1097 93 1060 38 q 1133 238 1133 149 m 2314 525 q 2097 321 2224 381 l 2097 56 l 2314 56 l 2314 525 m 300 194 q 346 76 300 122 q 463 31 392 31 q 581 76 535 31 q 626 193 626 122 q 581 310 626 264 q 463 357 535 357 q 346 311 392 357 q 300 194 300 265 z "},"௳":{"ha":1225,"x_min":81,"x_max":1211,"o":"m 1211 0 l 757 0 l 757 56 q 841 188 810 111 q 872 354 872 264 q 828 519 872 446 q 706 633 785 592 q 524 675 626 675 q 327 631 411 675 q 199 508 243 586 q 154 329 154 429 q 183 188 154 251 q 267 86 213 125 q 236 194 236 136 q 265 307 236 257 q 347 385 294 357 q 463 414 399 414 q 583 385 529 414 q 666 307 636 357 q 696 193 696 257 q 666 81 696 131 q 583 3 636 31 q 463 -25 529 -25 q 258 20 344 -25 q 126 146 172 65 q 81 329 81 226 q 135 540 81 447 q 289 685 189 633 q 524 738 389 738 q 742 688 646 738 q 892 551 839 639 q 946 354 946 464 q 919 193 946 271 q 847 56 893 115 l 1211 56 l 1211 0 m 300 194 q 346 76 300 122 q 463 31 392 31 q 581 76 535 31 q 626 193 626 122 q 581 310 626 264 q 463 357 535 357 q 346 311 392 357 q 300 194 300 265 z "},"௶":{"ha":1326,"x_min":136,"x_max":1190,"o":"m 843 -181 q 778 -325 833 -262 q 633 -422 722 -387 q 436 -457 544 -457 q 219 -405 301 -457 q 136 -267 136 -353 q 181 -165 136 -203 q 311 -126 225 -126 l 776 -126 l 776 0 l 136 0 l 136 713 l 204 719 l 204 56 l 776 56 l 776 713 l 846 713 l 846 -126 l 1121 -126 l 1121 713 l 1190 713 l 1190 -181 l 843 -181 m 436 -393 q 597 -366 524 -393 q 717 -290 669 -339 q 774 -181 764 -242 l 311 -181 q 234 -203 258 -181 q 210 -267 210 -226 q 272 -360 210 -326 q 436 -393 335 -393 z "},"௷":{"ha":1769,"x_min":81,"x_max":1756,"o":"m 1756 0 l 1374 0 l 1374 56 q 1494 100 1450 56 q 1538 214 1538 144 q 1487 328 1538 283 q 1357 372 1436 372 q 1228 346 1288 372 q 1299 258 1274 310 q 1325 144 1325 206 q 1282 24 1325 72 q 1172 -25 1239 -25 q 1062 23 1104 -25 q 1019 144 1019 71 q 1107 343 1019 260 q 1063 347 1086 347 l 888 347 l 888 0 l 819 0 l 819 657 l 540 657 q 252 569 350 657 q 154 329 154 481 q 183 188 154 251 q 267 86 213 125 q 236 194 236 136 q 265 307 236 257 q 347 385 294 357 q 463 414 399 414 q 583 385 529 414 q 666 307 636 357 q 696 193 696 257 q 666 81 696 131 q 583 3 636 31 q 463 -25 529 -25 q 258 20 344 -25 q 126 146 172 65 q 81 329 81 226 q 195 608 81 504 q 528 713 310 713 l 1156 713 l 1163 657 l 888 657 l 888 403 l 1061 403 q 1163 385 1113 403 q 1357 435 1247 435 q 1488 407 1431 435 q 1579 328 1546 379 q 1613 214 1613 278 q 1592 124 1613 165 q 1536 56 1572 83 l 1756 56 l 1756 0 m 300 194 q 346 76 300 122 q 463 31 392 31 q 581 76 535 31 q 626 193 626 122 q 581 310 626 264 q 463 357 535 357 q 346 311 392 357 q 300 194 300 265 m 1251 144 q 1231 242 1251 199 q 1172 313 1210 285 q 1114 239 1135 282 q 1093 144 1093 196 q 1115 69 1093 99 q 1172 39 1136 39 q 1229 69 1207 39 q 1251 144 1251 99 z "},"௵":{"ha":2388,"x_min":108,"x_max":2307,"o":"m 2078 485 q 2247 400 2188 485 q 2307 176 2307 315 q 2120 -203 2307 -79 q 1608 -326 1933 -326 l 839 -326 q 453 -252 618 -326 q 198 -47 288 -178 q 108 251 108 85 q 165 511 108 375 q 306 726 221 647 l 376 713 q 238 512 293 644 q 182 249 182 379 q 262 -20 182 99 q 491 -206 342 -139 q 839 -272 640 -272 l 1608 -272 q 2065 -162 1894 -275 q 2235 178 2235 -50 q 2194 355 2235 288 q 2074 422 2153 422 q 1952 368 2000 422 q 1904 232 1904 314 l 1904 0 l 1835 0 l 1835 657 l 1551 657 l 1551 0 l 1078 0 l 1079 56 q 1163 188 1132 111 q 1194 354 1194 264 q 1152 519 1194 446 q 1031 633 1110 592 q 846 675 951 675 q 650 631 733 675 q 522 508 567 586 q 476 329 476 429 q 506 188 476 251 q 592 86 536 125 q 560 194 560 133 q 624 352 560 290 q 786 414 688 414 q 906 385 853 414 q 990 307 960 357 q 1019 193 1019 257 q 990 81 1019 131 q 906 3 960 31 q 786 -25 853 -25 q 581 20 668 -25 q 449 146 494 65 q 403 329 403 226 q 457 540 403 447 q 612 685 511 633 q 846 738 713 738 q 1065 688 968 738 q 1215 551 1161 639 q 1269 354 1269 464 q 1242 192 1269 271 q 1169 56 1215 114 l 1483 56 l 1483 713 l 2172 713 l 2178 657 l 1904 657 l 1904 401 q 1979 463 1935 440 q 2078 485 2024 485 m 622 194 q 668 76 622 122 q 786 31 714 31 q 903 76 857 31 q 949 193 949 122 q 903 310 949 264 q 786 357 857 357 q 668 311 714 357 q 622 194 622 265 z "},"ௗ":{"ha":1668,"x_min":81,"x_max":1654,"o":"m 1381 657 l 1381 0 l 1311 0 l 1311 657 l 940 657 l 940 0 l 872 0 l 872 317 q 826 501 872 419 q 698 629 779 583 q 517 675 617 675 q 324 631 406 675 q 198 508 242 586 q 154 329 154 429 q 183 188 154 251 q 267 86 213 125 q 236 194 236 136 q 265 307 236 257 q 347 385 294 357 q 463 414 399 414 q 583 385 529 414 q 666 307 636 357 q 696 193 696 257 q 666 81 696 131 q 583 3 636 31 q 463 -25 529 -25 q 258 20 344 -25 q 126 146 172 65 q 81 329 81 226 q 133 540 81 447 q 285 685 186 633 q 517 738 383 738 q 724 685 631 738 q 872 539 818 632 l 872 713 l 1647 713 l 1654 657 l 1381 657 m 300 194 q 346 76 300 122 q 463 31 392 31 q 581 76 535 31 q 626 193 626 122 q 581 310 626 264 q 463 357 535 357 q 346 311 392 357 q 300 194 300 265 z "},"ா":{"ha":903,"x_min":136,"x_max":889,"o":"m 547 0 l 547 657 l 204 657 l 204 0 l 136 0 l 136 713 l 883 713 l 889 657 l 615 657 l 615 0 l 547 0 z "},"ை":{"ha":1661,"x_min":81,"x_max":1581,"o":"m 1235 738 q 1422 691 1344 738 q 1540 563 1500 644 q 1581 374 1581 481 q 1551 182 1581 286 q 1463 -19 1522 78 l 1394 0 q 1479 184 1450 79 q 1508 376 1508 289 q 1438 593 1508 511 q 1235 675 1368 675 q 1024 607 1118 675 q 1160 443 1111 539 q 1208 238 1208 347 q 1150 48 1208 121 q 994 -25 1092 -25 q 837 48 896 -25 q 778 238 778 121 q 815 436 778 342 q 919 600 853 531 q 621 675 793 675 q 374 629 479 675 q 211 502 268 583 q 154 317 154 421 q 183 185 154 244 q 267 88 213 126 q 236 194 236 136 q 265 307 236 257 q 347 385 294 357 q 463 414 399 414 q 583 385 529 414 q 666 307 636 357 q 696 193 696 257 q 666 81 696 131 q 583 3 636 31 q 463 -25 529 -25 q 262 19 349 -25 q 128 142 175 64 q 81 317 81 219 q 147 533 81 438 q 337 683 214 629 q 621 738 460 738 q 968 644 818 738 q 1235 738 1088 738 m 1133 238 q 1092 420 1133 336 q 974 564 1050 504 q 883 419 915 504 q 851 238 851 335 q 890 94 851 150 q 994 38 929 38 q 1097 93 1060 38 q 1133 238 1133 149 m 300 194 q 346 76 300 122 q 463 31 392 31 q 581 76 535 31 q 626 193 626 122 q 581 310 626 264 q 463 357 535 357 q 346 311 392 357 q 300 194 300 265 z "},"ௌ":{"ha":3476,"x_min":83,"x_max":3463,"o":"m 526 938 q 835 817 724 938 q 946 479 946 696 l 946 0 l 876 0 l 876 479 q 785 772 876 669 q 526 875 693 875 q 330 820 414 875 q 201 669 246 765 q 157 449 157 572 q 180 281 157 358 q 244 149 203 204 q 239 194 239 167 q 268 307 239 257 q 349 385 297 357 q 465 414 401 414 q 585 385 532 414 q 669 307 639 357 q 699 193 699 257 q 669 81 699 131 q 585 3 639 31 q 465 -25 532 -25 q 269 36 356 -25 q 133 205 182 97 q 83 449 83 313 q 138 701 83 590 q 292 875 192 813 q 526 938 393 938 m 465 357 q 349 311 394 357 q 303 194 303 265 q 349 76 303 122 q 465 31 394 31 q 583 76 538 31 q 629 193 629 122 q 583 310 629 264 q 465 357 538 357 m 3189 657 l 3189 0 l 3119 0 l 3119 657 l 2749 657 l 2749 0 l 2681 0 l 2681 317 q 2634 501 2681 419 q 2506 629 2588 583 q 2325 675 2425 675 q 2132 631 2214 675 q 2006 508 2050 586 q 1963 329 1963 429 q 1992 188 1963 251 q 2075 86 2021 125 q 2044 194 2044 136 q 2074 307 2044 257 q 2155 385 2103 357 q 2271 414 2207 414 q 2391 385 2338 414 q 2474 307 2444 357 q 2504 193 2504 257 q 2474 81 2504 131 q 2391 3 2444 31 q 2271 -25 2338 -25 q 2067 20 2153 -25 q 1935 146 1981 65 q 1889 329 1889 226 q 1942 540 1889 447 q 2093 685 1994 633 q 2325 738 2192 738 q 2533 685 2439 738 q 2681 539 2626 632 l 2681 713 l 3456 713 l 3463 657 l 3189 657 m 2108 194 q 2154 76 2108 122 q 2271 31 2200 31 q 2389 76 2343 31 q 2435 193 2435 122 q 2389 310 2435 264 q 2271 357 2343 357 q 2154 311 2200 357 q 2108 194 2108 265 m 1435 638 q 1464 649 1453 638 q 1475 678 1475 660 q 1464 708 1475 696 q 1435 719 1453 719 q 1406 708 1417 719 q 1394 678 1394 696 q 1406 649 1394 660 q 1435 638 1417 638 m 1311 697 q 1282 686 1293 697 q 1271 657 1271 675 q 1282 628 1271 639 q 1311 617 1293 617 q 1340 628 1329 617 q 1351 657 1351 639 q 1340 686 1351 675 q 1311 697 1329 697 m 1560 617 q 1589 628 1578 617 q 1600 657 1600 639 q 1589 686 1600 675 q 1560 697 1578 697 q 1531 686 1542 697 q 1519 657 1519 675 q 1531 628 1519 639 q 1560 617 1542 617 m 1206 628 q 1176 616 1188 628 q 1164 586 1164 604 q 1176 557 1164 568 q 1206 546 1188 546 q 1235 557 1224 546 q 1246 586 1246 568 q 1235 616 1246 604 q 1206 628 1224 628 m 1665 546 q 1695 557 1683 546 q 1707 586 1707 568 q 1695 616 1707 604 q 1665 628 1683 628 q 1636 616 1647 628 q 1625 586 1625 604 q 1636 557 1625 568 q 1665 546 1647 546 m 1139 518 q 1109 506 1121 518 q 1097 476 1097 494 q 1109 447 1097 458 q 1139 436 1121 436 q 1168 447 1157 436 q 1179 476 1179 458 q 1168 506 1179 494 q 1139 518 1157 518 m 1732 436 q 1761 447 1750 436 q 1772 476 1772 458 q 1761 506 1772 494 q 1732 518 1750 518 q 1703 506 1714 518 q 1692 476 1692 494 q 1703 447 1692 458 q 1732 436 1714 436 m 1119 399 q 1090 387 1101 399 q 1078 357 1078 375 q 1090 328 1078 339 q 1119 318 1101 318 q 1149 328 1138 318 q 1160 357 1160 339 q 1149 387 1160 375 q 1119 399 1138 399 m 1751 318 q 1781 328 1769 318 q 1793 357 1793 339 q 1781 387 1793 375 q 1751 399 1769 399 q 1722 387 1733 399 q 1711 357 1711 375 q 1722 328 1711 339 q 1751 318 1733 318 m 1139 282 q 1109 271 1121 282 q 1097 242 1097 260 q 1109 213 1097 224 q 1139 201 1121 201 q 1168 213 1157 201 q 1179 242 1179 224 q 1168 271 1179 260 q 1139 282 1157 282 m 1732 201 q 1761 213 1750 201 q 1772 242 1772 224 q 1761 271 1772 260 q 1732 282 1750 282 q 1703 271 1714 282 q 1692 242 1692 260 q 1703 213 1692 224 q 1732 201 1714 201 m 1204 171 q 1174 160 1186 171 q 1163 131 1163 149 q 1174 101 1163 113 q 1204 90 1186 90 q 1233 101 1222 90 q 1244 131 1244 113 q 1233 160 1244 149 q 1204 171 1222 171 m 1667 90 q 1697 101 1685 90 q 1708 131 1708 113 q 1697 160 1708 149 q 1667 171 1685 171 q 1638 160 1649 171 q 1626 131 1626 149 q 1638 101 1626 113 q 1667 90 1649 90 m 1311 103 q 1282 91 1293 103 q 1271 61 1271 79 q 1282 32 1271 43 q 1311 21 1293 21 q 1340 32 1329 21 q 1351 61 1351 43 q 1340 91 1351 79 q 1311 103 1329 103 m 1560 21 q 1589 32 1578 21 q 1600 61 1600 43 q 1589 91 1600 79 q 1560 103 1578 103 q 1531 91 1542 103 q 1519 61 1519 79 q 1531 32 1519 43 q 1560 21 1542 21 m 1435 0 q 1464 11 1453 0 q 1475 40 1475 22 q 1464 70 1475 58 q 1435 82 1453 82 q 1406 70 1417 82 q 1394 40 1394 58 q 1406 11 1394 22 q 1435 0 1417 0 z "},"ெ":{"ha":1079,"x_min":81,"x_max":943,"o":"m 524 938 q 832 817 721 938 q 943 479 943 696 l 943 0 l 874 0 l 874 479 q 782 772 874 669 q 524 875 690 875 q 327 820 411 875 q 199 669 243 765 q 154 449 154 572 q 177 281 154 358 q 242 149 200 204 q 236 194 236 167 q 265 307 236 257 q 347 385 294 357 q 463 414 399 414 q 583 385 529 414 q 666 307 636 357 q 696 193 696 257 q 666 81 696 131 q 583 3 636 31 q 463 -25 529 -25 q 266 36 353 -25 q 130 205 179 97 q 81 449 81 313 q 135 701 81 590 q 290 875 189 813 q 524 938 390 938 m 463 357 q 346 311 392 357 q 300 194 300 265 q 346 76 300 122 q 463 31 392 31 q 581 76 535 31 q 626 193 626 122 q 581 310 626 264 q 463 357 535 357 z "},"ே":{"ha":922,"x_min":81,"x_max":842,"o":"m 649 371 q 787 318 732 371 q 842 185 842 265 q 806 76 842 124 q 703 1 769 28 q 553 -25 638 -25 q 302 38 410 -25 q 138 211 194 101 q 81 457 81 321 q 138 701 81 592 q 302 874 194 811 q 553 938 410 938 q 703 911 638 938 q 806 837 769 885 q 842 728 842 789 q 787 594 842 647 q 649 542 732 542 q 513 595 567 542 q 458 729 458 649 q 481 815 458 776 q 540 879 503 854 l 538 879 q 338 820 425 876 q 202 668 250 764 q 154 457 154 572 q 202 246 154 342 q 338 94 250 150 q 539 35 425 38 q 480 98 501 58 q 458 185 458 138 q 513 318 458 265 q 649 371 567 371 m 650 601 q 739 638 704 601 q 774 728 774 674 q 739 819 774 783 q 651 856 704 856 q 562 819 597 856 q 526 729 526 783 q 562 638 526 674 q 650 601 597 601 m 650 311 q 562 275 597 311 q 526 185 526 239 q 562 93 526 129 q 651 57 597 57 q 739 93 704 57 q 774 185 774 129 q 739 275 774 239 q 650 311 704 311 z "},"ி":{"ha":339,"x_min":-510,"x_max":204,"o":"m -193 1107 q 16 1055 -74 1107 q 155 910 106 1003 q 204 699 204 817 l 204 0 l 136 0 l 136 699 q 96 878 136 800 q -19 1001 56 957 q -193 1044 -93 1044 q -371 997 -306 1044 q -436 871 -436 949 q -387 755 -436 797 q -243 713 -339 713 l -187 713 l -187 657 l -243 657 q -438 717 -368 657 q -510 871 -508 776 q -471 993 -510 939 q -360 1077 -432 1047 q -193 1107 -289 1107 z "},"ொ":{"ha":2646,"x_min":81,"x_max":2610,"o":"m 524 938 q 832 817 721 938 q 943 479 943 696 l 943 0 l 874 0 l 874 479 q 782 772 874 669 q 524 875 690 875 q 327 820 411 875 q 199 669 243 765 q 154 449 154 572 q 177 281 154 358 q 242 149 200 204 q 236 194 236 167 q 265 307 236 257 q 347 385 294 357 q 463 414 399 414 q 583 385 529 414 q 666 307 636 357 q 696 193 696 257 q 666 81 696 131 q 583 3 636 31 q 463 -25 529 -25 q 266 36 353 -25 q 130 205 179 97 q 81 449 81 313 q 135 701 81 590 q 290 875 189 813 q 524 938 390 938 m 463 357 q 346 311 392 357 q 300 194 300 265 q 346 76 300 122 q 463 31 392 31 q 581 76 535 31 q 626 193 626 122 q 581 310 626 264 q 463 357 535 357 m 2268 0 l 2268 657 l 1925 657 l 1925 0 l 1857 0 l 1857 713 l 2604 713 l 2610 657 l 2336 657 l 2336 0 l 2268 0 m 1406 638 q 1435 649 1424 638 q 1446 678 1446 660 q 1435 708 1446 696 q 1406 719 1424 719 q 1376 708 1388 719 q 1365 678 1365 696 q 1376 649 1365 660 q 1406 638 1388 638 m 1282 697 q 1253 686 1264 697 q 1242 657 1242 675 q 1253 628 1242 639 q 1282 617 1264 617 q 1311 628 1300 617 q 1322 657 1322 639 q 1311 686 1322 675 q 1282 697 1300 697 m 1531 617 q 1560 628 1549 617 q 1571 657 1571 639 q 1560 686 1571 675 q 1531 697 1549 697 q 1501 686 1513 697 q 1490 657 1490 675 q 1501 628 1490 639 q 1531 617 1513 617 m 1176 628 q 1147 616 1158 628 q 1135 586 1135 604 q 1147 557 1135 568 q 1176 546 1158 546 q 1206 557 1194 546 q 1217 586 1217 568 q 1206 616 1217 604 q 1176 628 1194 628 m 1636 546 q 1666 557 1654 546 q 1678 586 1678 568 q 1666 616 1678 604 q 1636 628 1654 628 q 1607 616 1618 628 q 1596 586 1596 604 q 1607 557 1596 568 q 1636 546 1618 546 m 1110 518 q 1080 506 1092 518 q 1068 476 1068 494 q 1080 447 1068 458 q 1110 436 1092 436 q 1139 447 1128 436 q 1150 476 1150 458 q 1139 506 1150 494 q 1110 518 1128 518 m 1703 436 q 1732 447 1721 436 q 1743 476 1743 458 q 1732 506 1743 494 q 1703 518 1721 518 q 1674 506 1685 518 q 1663 476 1663 494 q 1674 447 1663 458 q 1703 436 1685 436 m 1090 399 q 1060 387 1072 399 q 1049 357 1049 375 q 1060 328 1049 339 q 1090 318 1072 318 q 1119 328 1108 318 q 1131 357 1131 339 q 1119 387 1131 375 q 1090 399 1108 399 m 1722 318 q 1752 328 1740 318 q 1764 357 1764 339 q 1752 387 1764 375 q 1722 399 1740 399 q 1693 387 1704 399 q 1682 357 1682 375 q 1693 328 1682 339 q 1722 318 1704 318 m 1110 282 q 1080 271 1092 282 q 1068 242 1068 260 q 1080 213 1068 224 q 1110 201 1092 201 q 1139 213 1128 201 q 1150 242 1150 224 q 1139 271 1150 260 q 1110 282 1128 282 m 1703 201 q 1732 213 1721 201 q 1743 242 1743 224 q 1732 271 1743 260 q 1703 282 1721 282 q 1674 271 1685 282 q 1663 242 1663 260 q 1674 213 1663 224 q 1703 201 1685 201 m 1175 171 q 1145 160 1157 171 q 1133 131 1133 149 q 1145 101 1133 113 q 1175 90 1157 90 q 1204 101 1193 90 q 1215 131 1215 113 q 1204 160 1215 149 q 1175 171 1193 171 m 1638 90 q 1667 101 1656 90 q 1679 131 1679 113 q 1667 160 1679 149 q 1638 171 1656 171 q 1608 160 1619 171 q 1597 131 1597 149 q 1608 101 1597 113 q 1638 90 1619 90 m 1282 103 q 1253 91 1264 103 q 1242 61 1242 79 q 1253 32 1242 43 q 1282 21 1264 21 q 1311 32 1300 21 q 1322 61 1322 43 q 1311 91 1322 79 q 1282 103 1300 103 m 1531 21 q 1560 32 1549 21 q 1571 61 1571 43 q 1560 91 1571 79 q 1531 103 1549 103 q 1501 91 1513 103 q 1490 61 1490 79 q 1501 32 1490 43 q 1531 21 1513 21 m 1406 0 q 1435 11 1424 0 q 1446 40 1446 22 q 1435 70 1446 58 q 1406 82 1424 82 q 1376 70 1388 82 q 1365 40 1365 58 q 1376 11 1365 22 q 1406 0 1388 0 z "},"ோ":{"ha":2508,"x_min":81,"x_max":2471,"o":"m 649 371 q 787 318 732 371 q 842 185 842 265 q 806 76 842 124 q 703 1 769 28 q 553 -25 638 -25 q 302 38 410 -25 q 138 211 194 101 q 81 457 81 321 q 138 701 81 592 q 302 874 194 811 q 553 938 410 938 q 703 911 638 938 q 806 837 769 885 q 842 728 842 789 q 787 594 842 647 q 649 542 732 542 q 513 595 567 542 q 458 729 458 649 q 481 815 458 776 q 540 879 503 854 l 538 879 q 338 820 425 876 q 202 668 250 764 q 154 457 154 572 q 202 246 154 342 q 338 94 250 150 q 539 35 425 38 q 480 98 501 58 q 458 185 458 138 q 513 318 458 265 q 649 371 567 371 m 650 601 q 739 638 704 601 q 774 728 774 674 q 739 819 774 783 q 651 856 704 856 q 562 819 597 856 q 526 729 526 783 q 562 638 526 674 q 650 601 597 601 m 650 311 q 562 275 597 311 q 526 185 526 239 q 562 93 526 129 q 651 57 597 57 q 739 93 704 57 q 774 185 774 129 q 739 275 774 239 q 650 311 704 311 m 2129 0 l 2129 657 l 1786 657 l 1786 0 l 1718 0 l 1718 713 l 2465 713 l 2471 657 l 2197 657 l 2197 0 l 2129 0 m 1272 638 q 1301 649 1290 638 q 1313 678 1313 660 q 1301 708 1313 696 q 1272 719 1290 719 q 1243 708 1254 719 q 1232 678 1232 696 q 1243 649 1232 660 q 1272 638 1254 638 m 1149 697 q 1119 686 1131 697 q 1108 657 1108 675 q 1119 628 1108 639 q 1149 617 1131 617 q 1178 628 1167 617 q 1189 657 1189 639 q 1178 686 1189 675 q 1149 697 1167 697 m 1397 617 q 1426 628 1415 617 q 1438 657 1438 639 q 1426 686 1438 675 q 1397 697 1415 697 q 1368 686 1379 697 q 1357 657 1357 675 q 1368 628 1357 639 q 1397 617 1379 617 m 1043 628 q 1013 616 1025 628 q 1001 586 1001 604 q 1013 557 1001 568 q 1043 546 1025 546 q 1072 557 1061 546 q 1083 586 1083 568 q 1072 616 1083 604 q 1043 628 1061 628 m 1503 546 q 1533 557 1521 546 q 1544 586 1544 568 q 1533 616 1544 604 q 1503 628 1521 628 q 1474 616 1485 628 q 1463 586 1463 604 q 1474 557 1463 568 q 1503 546 1485 546 m 976 518 q 947 506 958 518 q 935 476 935 494 q 947 447 935 458 q 976 436 958 436 q 1006 447 994 436 q 1017 476 1017 458 q 1006 506 1017 494 q 976 518 994 518 m 1569 436 q 1599 447 1588 436 q 1610 476 1610 458 q 1599 506 1610 494 q 1569 518 1588 518 q 1540 506 1551 518 q 1529 476 1529 494 q 1540 447 1529 458 q 1569 436 1551 436 m 957 399 q 927 387 939 399 q 915 357 915 375 q 927 328 915 339 q 957 318 939 318 q 986 328 975 318 q 997 357 997 339 q 986 387 997 375 q 957 399 975 399 m 1589 318 q 1619 328 1607 318 q 1631 357 1631 339 q 1619 387 1631 375 q 1589 399 1607 399 q 1560 387 1571 399 q 1549 357 1549 375 q 1560 328 1549 339 q 1589 318 1571 318 m 976 282 q 947 271 958 282 q 935 242 935 260 q 947 213 935 224 q 976 201 958 201 q 1006 213 994 201 q 1017 242 1017 224 q 1006 271 1017 260 q 976 282 994 282 m 1569 201 q 1599 213 1588 201 q 1610 242 1610 224 q 1599 271 1610 260 q 1569 282 1588 282 q 1540 271 1551 282 q 1529 242 1529 260 q 1540 213 1529 224 q 1569 201 1551 201 m 1042 171 q 1012 160 1024 171 q 1000 131 1000 149 q 1012 101 1000 113 q 1042 90 1024 90 q 1071 101 1060 90 q 1082 131 1082 113 q 1071 160 1082 149 q 1042 171 1060 171 m 1504 90 q 1534 101 1522 90 q 1546 131 1546 113 q 1534 160 1546 149 q 1504 171 1522 171 q 1475 160 1486 171 q 1464 131 1464 149 q 1475 101 1464 113 q 1504 90 1486 90 m 1149 103 q 1119 91 1131 103 q 1108 61 1108 79 q 1119 32 1108 43 q 1149 21 1131 21 q 1178 32 1167 21 q 1189 61 1189 43 q 1178 91 1189 79 q 1149 103 1167 103 m 1397 21 q 1426 32 1415 21 q 1438 61 1438 43 q 1426 91 1438 79 q 1397 103 1415 103 q 1368 91 1379 103 q 1357 61 1357 79 q 1368 32 1357 43 q 1397 21 1379 21 m 1272 0 q 1301 11 1290 0 q 1313 40 1313 22 q 1301 70 1313 58 q 1272 82 1290 82 q 1243 70 1254 82 q 1232 40 1232 58 q 1243 11 1232 22 q 1272 0 1254 0 z "},"ு":{"ha":644,"x_min":-204,"x_max":592,"o":"m 358 713 q 478 685 425 713 q 562 607 532 657 q 592 494 592 557 q 562 381 592 432 q 478 302 532 331 q 358 274 425 274 q 238 302 292 274 q 155 381 185 331 q 125 493 125 431 q 144 585 125 543 q 200 657 164 628 l -204 657 l -204 713 l 358 713 m 358 331 q 473 377 428 331 q 518 494 518 424 q 473 611 518 565 q 358 657 428 657 q 240 611 286 657 q 193 493 193 565 q 240 376 193 422 q 358 331 286 331 z "},"ூ":{"ha":907,"x_min":-204,"x_max":854,"o":"m 503 850 q 683 804 603 850 q 809 678 764 758 q 854 496 854 597 q 801 306 854 390 q 653 173 747 221 q 443 125 560 125 l 364 125 l 364 181 l 443 181 q 618 221 542 181 q 737 333 694 261 q 779 496 779 406 q 744 647 779 581 q 646 751 708 714 q 503 788 583 788 q 282 713 368 788 l 351 713 q 523 651 457 713 q 589 494 589 590 q 560 381 589 432 q 478 302 531 331 q 361 274 426 274 q 240 303 293 274 q 156 387 186 333 q 125 506 125 440 q 160 657 125 588 l -204 657 l -204 713 l 194 713 q 326 814 246 778 q 503 850 406 850 m 518 494 q 472 611 518 565 q 351 657 426 657 l 235 657 q 193 506 193 592 q 241 381 193 431 q 361 331 289 331 q 474 377 429 331 q 518 494 518 424 z "},"ஂ":{"ha":0,"x_min":-149,"x_max":149,"o":"m 0 886 q 106 926 63 886 q 149 1028 149 967 q 105 1131 149 1090 q 0 1171 61 1171 q -104 1131 -60 1171 q -149 1028 -149 1090 q -105 926 -149 967 q 0 886 -61 886 m 0 944 q -60 968 -36 944 q -85 1028 -85 992 q -60 1088 -85 1064 q 0 1113 -36 1113 q 60 1088 36 1113 q 85 1028 85 1064 q 60 968 85 992 q 0 944 36 944 z "},"்":{"ha":0,"x_min":-53,"x_max":54,"o":"m 0 886 q 39 901 24 886 q 54 939 54 917 q 38 976 54 961 q 0 992 22 992 q -38 976 -24 992 q -53 939 -53 961 q -38 901 -53 915 q 0 886 -24 886 z "},"ீ":{"ha":0,"x_min":-521,"x_max":60,"o":"m -225 1219 q -77 1183 -142 1219 q 24 1088 -12 1147 q 60 960 60 1028 q 22 858 60 899 q -75 817 -17 817 q -175 853 -135 817 q -215 946 -215 890 q -177 1037 -215 1001 q -79 1072 -139 1072 q -35 1065 -58 1072 q -111 1132 -62 1108 q -225 1156 -160 1156 q -387 1094 -326 1156 q -447 933 -447 1032 q -395 775 -447 838 q -262 713 -343 713 l -262 658 q -395 694 -336 658 q -487 792 -454 729 q -521 933 -521 856 q -484 1081 -521 1015 q -381 1183 -447 1146 q -225 1219 -314 1219 m -75 871 q -22 892 -43 871 q -1 944 -1 913 q -22 996 -1 975 q -75 1017 -43 1017 q -128 996 -107 1017 q -150 944 -150 975 q -128 892 -150 913 q -75 871 -107 871 z "}}}
